<ttFont>
    <TTGlyph name="A" xMin="18" yMin="0" xMax="1304" yMax="1441">
      <contour>
        <pt x="663" y="1329" on="1"/>
        <pt x="378" y="502" on="1"/>
        <pt x="943" y="502" on="1"/>
      </contour>
      <contour>
        <pt x="562" y="1441" on="1"/>
        <pt x="763" y="1441" on="1"/>
        <pt x="1304" y="0" on="1"/>
        <pt x="1128" y="0" on="1"/>
        <pt x="992" y="367" on="1"/>
        <pt x="330" y="367" on="1"/>
        <pt x="195" y="0" on="1"/>
        <pt x="18" y="0" on="1"/>
      </contour>
    </TTGlyph>
    <TTGlyph name="AE" xMin="-17" yMin="0" xMax="1784" yMax="1441">
      <contour>
        <pt x="771" y="1299" on="1"/>
        <pt x="403" y="507" on="1"/>
        <pt x="928" y="507" on="1"/>
        <pt x="805" y="1299" on="1"/>
      </contour>
      <contour>
        <pt x="670" y="1441" on="1"/>
        <pt x="1636" y="1441" on="1"/>
        <pt x="1623" y="1302" on="1"/>
        <pt x="969" y="1302" on="1"/>
        <pt x="1048" y="821" on="1"/>
        <pt x="1639" y="821" on="1"/>
        <pt x="1650" y="685" on="1"/>
        <pt x="1067" y="685" on="1"/>
        <pt x="1159" y="139" on="1"/>
        <pt x="1751" y="139" on="1"/>
        <pt x="1784" y="0" on="1"/>
        <pt x="1003" y="0" on="1"/>
        <pt x="941" y="368" on="1"/>
        <pt x="343" y="368" on="1"/>
        <pt x="166" y="0" on="1"/>
        <pt x="-17" y="0" on="1"/>
      </contour>
    </TTGlyph>
    <TTGlyph name="Aacute" xMin="18" yMin="0" xMax="1304" yMax="2020">
      <component glyphName="A" x="0" y="0" flags="0x1204"/>
      <component glyphName="acute" x="267" y="430" flags="0x1004"/>
    </TTGlyph>
    <TTGlyph name="Acircumflex" xMin="18" yMin="0" xMax="1304" yMax="1902">
      <component glyphName="A" x="0" y="0" flags="0x1204"/>
      <component glyphName="circumflex" x="334" y="430" flags="0x1004"/>
    </TTGlyph>
    <TTGlyph name="Adieresis" xMin="18" yMin="0" xMax="1304" yMax="1870">
      <component glyphName="A" x="0" y="0" flags="0x1204"/>
      <component glyphName="dieresis" x="314" y="430" flags="0x1004"/>
    </TTGlyph>
    <TTGlyph name="Agrave" xMin="18" yMin="0" xMax="1304" yMax="2020">
      <component glyphName="A" x="0" y="0" flags="0x1204"/>
      <component glyphName="grave" x="331" y="430" flags="0x1004"/>
    </TTGlyph>
    <TTGlyph name="Aring" xMin="18" yMin="0" xMax="1304" yMax="1901">
      <component glyphName="A" x="0" y="0" flags="0x1204"/>
      <component glyphName="ring" x="374" y="430" flags="0x1004"/>
    </TTGlyph>
    <TTGlyph name="Atilde" xMin="18" yMin="0" xMax="1304" yMax="1871">
      <component glyphName="A" x="0" y="0" flags="0x1204"/>
      <component glyphName="tilde" x="223" y="430" flags="0x1004"/>
    </TTGlyph>
    <TTGlyph name="B" xMin="192" yMin="0" xMax="1244" yMax="1441">
      <contour>
        <pt x="366" y="1300" on="1"/>
        <pt x="366" y="833" on="1"/>
        <pt x="707" y="833" on="1"/>
        <pt x="812" y="833" on="0"/>
        <pt x="937" y="871" on="0"/>
        <pt x="969" y="910" on="1"/>
        <pt x="994" y="940" on="0"/>
        <pt x="1014" y="1024" on="0"/>
        <pt x="1014" y="1079" on="1"/>
        <pt x="1014" y="1139" on="0"/>
        <pt x="997" y="1218" on="0"/>
        <pt x="972" y="1244" on="1"/>
        <pt x="940" y="1276" on="0"/>
        <pt x="809" y="1300" on="0"/>
        <pt x="695" y="1300" on="1"/>
      </contour>
      <contour>
        <pt x="366" y="696" on="1"/>
        <pt x="366" y="141" on="1"/>
        <pt x="752" y="141" on="1"/>
        <pt x="859" y="141" on="0"/>
        <pt x="986" y="172" on="0"/>
        <pt x="1019" y="211" on="1"/>
        <pt x="1045" y="243" on="0"/>
        <pt x="1066" y="339" on="0"/>
        <pt x="1066" y="410" on="1"/>
        <pt x="1066" y="461" on="0"/>
        <pt x="1055" y="533" on="0"/>
        <pt x="1037" y="585" on="0"/>
        <pt x="1012" y="620" on="0"/>
        <pt x="997" y="632" on="1"/>
        <pt x="968" y="657" on="0"/>
        <pt x="839" y="696" on="0"/>
        <pt x="727" y="696" on="1"/>
      </contour>
      <contour>
        <pt x="192" y="1441" on="1"/>
        <pt x="608" y="1441" on="1"/>
        <pt x="668" y="1441" on="0"/>
        <pt x="770" y="1439" on="0"/>
        <pt x="815" y="1437" on="1"/>
        <pt x="906" y="1433" on="0"/>
        <pt x="1030" y="1388" on="0"/>
        <pt x="1072" y="1348" on="1"/>
        <pt x="1122" y="1300" on="0"/>
        <pt x="1163" y="1161" on="0"/>
        <pt x="1163" y="1072" on="1"/>
        <pt x="1163" y="994" on="0"/>
        <pt x="1127" y="893" on="0"/>
        <pt x="1099" y="861" on="1"/>
        <pt x="1080" y="839" on="0"/>
        <pt x="1035" y="810" on="0"/>
        <pt x="989" y="790" on="0"/>
        <pt x="944" y="776" on="0"/>
        <pt x="924" y="770" on="1"/>
        <pt x="939" y="767" on="0"/>
        <pt x="976" y="759" on="0"/>
        <pt x="1013" y="749" on="0"/>
        <pt x="1049" y="737" on="0"/>
        <pt x="1063" y="731" on="1"/>
        <pt x="1091" y="718" on="0"/>
        <pt x="1155" y="681" on="0"/>
        <pt x="1209" y="610" on="0"/>
        <pt x="1244" y="497" on="0"/>
        <pt x="1244" y="407" on="1"/>
        <pt x="1244" y="343" on="0"/>
        <pt x="1224" y="244" on="0"/>
        <pt x="1191" y="168" on="0"/>
        <pt x="1151" y="114" on="0"/>
        <pt x="1132" y="95" on="1"/>
        <pt x="1112" y="75" on="0"/>
        <pt x="1051" y="41" on="0"/>
        <pt x="965" y="15" on="0"/>
        <pt x="853" y="0" on="0"/>
        <pt x="781" y="0" on="1"/>
        <pt x="192" y="0" on="1"/>
      </contour>
    </TTGlyph>
    <TTGlyph name="C" xMin="118" yMin="-39" xMax="1315" yMax="1472">
      <contour>
        <pt x="1315" y="337" on="1"/>
        <pt x="1302" y="279" on="0"/>
        <pt x="1266" y="192" on="0"/>
        <pt x="1228" y="130" on="0"/>
        <pt x="1192" y="91" on="0"/>
        <pt x="1179" y="81" on="1"/>
        <pt x="1167" y="71" on="0"/>
        <pt x="1103" y="31" on="0"/>
        <pt x="1000" y="-9" on="0"/>
        <pt x="856" y="-39" on="0"/>
        <pt x="763" y="-39" on="1"/>
        <pt x="664" y="-39" on="0"/>
        <pt x="508" y="-5" on="0"/>
        <pt x="393" y="44" on="0"/>
        <pt x="317" y="98" on="0"/>
        <pt x="296" y="118" on="1"/>
        <pt x="260" y="152" on="0"/>
        <pt x="196" y="263" on="0"/>
        <pt x="147" y="411" on="0"/>
        <pt x="118" y="594" on="0"/>
        <pt x="118" y="699" on="1"/>
        <pt x="118" y="829" on="0"/>
        <pt x="151" y="1026" on="0"/>
        <pt x="201" y="1168" on="0"/>
        <pt x="257" y="1262" on="0"/>
        <pt x="280" y="1289" on="1"/>
        <pt x="303" y="1316" on="0"/>
        <pt x="386" y="1380" on="0"/>
        <pt x="506" y="1435" on="0"/>
        <pt x="665" y="1472" on="0"/>
        <pt x="764" y="1472" on="1"/>
        <pt x="861" y="1472" on="0"/>
        <pt x="1009" y="1440" on="0"/>
        <pt x="1115" y="1396" on="0"/>
        <pt x="1180" y="1352" on="0"/>
        <pt x="1192" y="1340" on="1"/>
        <pt x="1204" y="1328" on="0"/>
        <pt x="1237" y="1286" on="0"/>
        <pt x="1270" y="1224" on="0"/>
        <pt x="1300" y="1144" on="0"/>
        <pt x="1310" y="1095" on="1"/>
        <pt x="1164" y="1020" on="1"/>
        <pt x="1144" y="1112" on="0"/>
        <pt x="1081" y="1229" on="0"/>
        <pt x="1049" y="1249" on="1"/>
        <pt x="1041" y="1254" on="0"/>
        <pt x="1000" y="1278" on="0"/>
        <pt x="930" y="1303" on="0"/>
        <pt x="831" y="1322" on="0"/>
        <pt x="767" y="1322" on="1"/>
        <pt x="695" y="1322" on="0"/>
        <pt x="583" y="1299" on="0"/>
        <pt x="500" y="1265" on="0"/>
        <pt x="444" y="1226" on="0"/>
        <pt x="428" y="1211" on="1"/>
        <pt x="407" y="1191" on="0"/>
        <pt x="361" y="1115" on="0"/>
        <pt x="323" y="995" on="0"/>
        <pt x="298" y="826" on="0"/>
        <pt x="298" y="714" on="1"/>
        <pt x="298" y="603" on="0"/>
        <pt x="321" y="438" on="0"/>
        <pt x="354" y="322" on="0"/>
        <pt x="393" y="252" on="0"/>
        <pt x="408" y="234" on="1"/>
        <pt x="429" y="210" on="0"/>
        <pt x="496" y="165" on="0"/>
        <pt x="586" y="131" on="0"/>
        <pt x="697" y="110" on="0"/>
        <pt x="763" y="110" on="1"/>
        <pt x="830" y="110" on="0"/>
        <pt x="937" y="131" on="0"/>
        <pt x="1016" y="161" on="0"/>
        <pt x="1068" y="194" on="0"/>
        <pt x="1080" y="206" on="1"/>
        <pt x="1086" y="212" on="0"/>
        <pt x="1109" y="242" on="0"/>
        <pt x="1136" y="293" on="0"/>
        <pt x="1164" y="366" on="0"/>
        <pt x="1175" y="416" on="1"/>
      </contour>
    </TTGlyph>
    <TTGlyph name="Ccedilla" xMin="120" yMin="-393" xMax="1317" yMax="1472">
      <component glyphName="C" x="2" y="0" flags="0x1004"/>
      <component glyphName="cedilla" x="439" y="0" flags="0x1004"/>
    </TTGlyph>
    <TTGlyph name="D" xMin="192" yMin="0" xMax="1324" yMax="1441">
      <contour>
        <pt x="192" y="0" on="1"/>
        <pt x="192" y="1441" on="1"/>
        <pt x="660" y="1441" on="1"/>
        <pt x="762" y="1441" on="0"/>
        <pt x="918" y="1408" on="0"/>
        <pt x="1034" y="1362" on="0"/>
        <pt x="1110" y="1311" on="0"/>
        <pt x="1132" y="1292" on="1"/>
        <pt x="1161" y="1266" on="0"/>
        <pt x="1229" y="1179" on="0"/>
        <pt x="1286" y="1044" on="0"/>
        <pt x="1324" y="855" on="0"/>
        <pt x="1324" y="727" on="1"/>
        <pt x="1324" y="589" on="0"/>
        <pt x="1285" y="390" on="0"/>
        <pt x="1226" y="250" on="0"/>
        <pt x="1157" y="164" on="0"/>
        <pt x="1128" y="140" on="1"/>
        <pt x="1107" y="122" on="0"/>
        <pt x="1030" y="74" on="0"/>
        <pt x="917" y="31" on="0"/>
        <pt x="764" y="0" on="0"/>
        <pt x="666" y="0" on="1"/>
      </contour>
      <contour>
        <pt x="366" y="1297" on="1"/>
        <pt x="366" y="145" on="1"/>
        <pt x="663" y="145" on="1"/>
        <pt x="745" y="145" on="0"/>
        <pt x="869" y="169" on="0"/>
        <pt x="959" y="205" on="0"/>
        <pt x="1016" y="247" on="0"/>
        <pt x="1032" y="266" on="1"/>
        <pt x="1048" y="285" on="0"/>
        <pt x="1087" y="351" on="0"/>
        <pt x="1121" y="459" on="0"/>
        <pt x="1145" y="615" on="0"/>
        <pt x="1145" y="723" on="1"/>
        <pt x="1145" y="827" on="0"/>
        <pt x="1123" y="980" on="0"/>
        <pt x="1091" y="1088" on="0"/>
        <pt x="1054" y="1156" on="0"/>
        <pt x="1039" y="1175" on="1"/>
        <pt x="1024" y="1194" on="0"/>
        <pt x="964" y="1237" on="0"/>
        <pt x="869" y="1273" on="0"/>
        <pt x="735" y="1297" on="0"/>
        <pt x="645" y="1297" on="1"/>
      </contour>
    </TTGlyph>
    <TTGlyph name="Delta" xMin="62" yMin="0" xMax="1540" yMax="1438">
      <contour>
        <pt x="62" y="111" on="1"/>
        <pt x="711" y="1438" on="1"/>
        <pt x="897" y="1438" on="1"/>
        <pt x="1540" y="111" on="1"/>
        <pt x="1540" y="0" on="1"/>
        <pt x="62" y="0" on="1"/>
      </contour>
      <contour>
        <pt x="1348" y="123" on="1"/>
        <pt x="977" y="925" on="1"/>
        <pt x="801" y="1289" on="1"/>
        <pt x="791" y="1289" on="1"/>
        <pt x="635" y="968" on="1"/>
        <pt x="242" y="123" on="1"/>
      </contour>
    </TTGlyph>
    <TTGlyph name="E" xMin="192" yMin="0" xMax="1055" yMax="1441">
      <contour>
        <pt x="192" y="1441" on="1"/>
        <pt x="1052" y="1441" on="1"/>
        <pt x="1030" y="1299" on="1"/>
        <pt x="366" y="1299" on="1"/>
        <pt x="366" y="824" on="1"/>
        <pt x="976" y="824" on="1"/>
        <pt x="976" y="686" on="1"/>
        <pt x="366" y="686" on="1"/>
        <pt x="366" y="143" on="1"/>
        <pt x="1032" y="143" on="1"/>
        <pt x="1055" y="0" on="1"/>
        <pt x="192" y="0" on="1"/>
      </contour>
    </TTGlyph>
    <TTGlyph name="Eacute" xMin="192" yMin="0" xMax="1055" yMax="2020">
      <component glyphName="E" x="0" y="0" flags="0x1204"/>
      <component glyphName="acute" x="189" y="430" flags="0x1004"/>
    </TTGlyph>
    <TTGlyph name="Ecircumflex" xMin="192" yMin="0" xMax="1055" yMax="1902">
      <component glyphName="E" x="0" y="0" flags="0x1204"/>
      <component glyphName="circumflex" x="328" y="430" flags="0x1004"/>
    </TTGlyph>
    <TTGlyph name="Edieresis" xMin="192" yMin="0" xMax="1055" yMax="1870">
      <component glyphName="E" x="0" y="0" flags="0x1204"/>
      <component glyphName="dieresis" x="299" y="430" flags="0x1004"/>
    </TTGlyph>
    <TTGlyph name="Egrave" xMin="192" yMin="0" xMax="1055" yMax="2020">
      <component glyphName="E" x="0" y="0" flags="0x1204"/>
      <component glyphName="grave" x="253" y="430" flags="0x1004"/>
    </TTGlyph>
    <TTGlyph name="Eth" xMin="64" yMin="0" xMax="1326" yMax="1441">
      <contour>
        <pt x="64" y="801" on="1"/>
        <pt x="194" y="801" on="1"/>
        <pt x="194" y="1441" on="1"/>
        <pt x="662" y="1441" on="1"/>
        <pt x="764" y="1441" on="0"/>
        <pt x="920" y="1408" on="0"/>
        <pt x="1036" y="1362" on="0"/>
        <pt x="1112" y="1311" on="0"/>
        <pt x="1134" y="1292" on="1"/>
        <pt x="1163" y="1266" on="0"/>
        <pt x="1231" y="1179" on="0"/>
        <pt x="1288" y="1044" on="0"/>
        <pt x="1326" y="855" on="0"/>
        <pt x="1326" y="727" on="1"/>
        <pt x="1326" y="589" on="0"/>
        <pt x="1287" y="390" on="0"/>
        <pt x="1228" y="250" on="0"/>
        <pt x="1159" y="164" on="0"/>
        <pt x="1130" y="140" on="1"/>
        <pt x="1109" y="122" on="0"/>
        <pt x="1032" y="74" on="0"/>
        <pt x="919" y="31" on="0"/>
        <pt x="766" y="0" on="0"/>
        <pt x="668" y="0" on="1"/>
        <pt x="194" y="0" on="1"/>
        <pt x="194" y="670" on="1"/>
        <pt x="64" y="670" on="1"/>
      </contour>
      <contour>
        <pt x="368" y="1297" on="1"/>
        <pt x="368" y="801" on="1"/>
        <pt x="623" y="801" on="1"/>
        <pt x="623" y="670" on="1"/>
        <pt x="368" y="670" on="1"/>
        <pt x="368" y="145" on="1"/>
        <pt x="665" y="145" on="1"/>
        <pt x="747" y="145" on="0"/>
        <pt x="871" y="169" on="0"/>
        <pt x="961" y="205" on="0"/>
        <pt x="1018" y="247" on="0"/>
        <pt x="1034" y="266" on="1"/>
        <pt x="1050" y="285" on="0"/>
        <pt x="1089" y="351" on="0"/>
        <pt x="1123" y="459" on="0"/>
        <pt x="1147" y="615" on="0"/>
        <pt x="1147" y="723" on="1"/>
        <pt x="1147" y="827" on="0"/>
        <pt x="1125" y="980" on="0"/>
        <pt x="1093" y="1088" on="0"/>
        <pt x="1056" y="1156" on="0"/>
        <pt x="1041" y="1175" on="1"/>
        <pt x="1026" y="1194" on="0"/>
        <pt x="966" y="1237" on="0"/>
        <pt x="871" y="1273" on="0"/>
        <pt x="737" y="1297" on="0"/>
        <pt x="647" y="1297" on="1"/>
      </contour>
    </TTGlyph>
    <TTGlyph name="Euro" xMin="85" yMin="-39" xMax="1319" yMax="1472">
      <contour>
        <pt x="352" y="767" on="1"/>
        <pt x="352" y="714" on="1"/>
        <pt x="352" y="691" on="0"/>
        <pt x="352" y="646" on="0"/>
        <pt x="354" y="626" on="1"/>
        <pt x="818" y="626" on="1"/>
        <pt x="818" y="515" on="1"/>
        <pt x="364" y="515" on="1"/>
        <pt x="372" y="454" on="0"/>
        <pt x="396" y="361" on="0"/>
        <pt x="423" y="293" on="0"/>
        <pt x="450" y="247" on="0"/>
        <pt x="462" y="234" on="1"/>
        <pt x="481" y="210" on="0"/>
        <pt x="545" y="165" on="0"/>
        <pt x="630" y="131" on="0"/>
        <pt x="735" y="110" on="0"/>
        <pt x="797" y="110" on="1"/>
        <pt x="860" y="110" on="0"/>
        <pt x="959" y="125" on="0"/>
        <pt x="1032" y="147" on="0"/>
        <pt x="1079" y="171" on="0"/>
        <pt x="1091" y="180" on="1"/>
        <pt x="1097" y="184" on="0"/>
        <pt x="1121" y="206" on="0"/>
        <pt x="1149" y="243" on="0"/>
        <pt x="1178" y="298" on="0"/>
        <pt x="1189" y="336" on="1"/>
        <pt x="1319" y="277" on="1"/>
        <pt x="1306" y="226" on="0"/>
        <pt x="1269" y="150" on="0"/>
        <pt x="1230" y="97" on="0"/>
        <pt x="1193" y="64" on="0"/>
        <pt x="1180" y="55" on="1"/>
        <pt x="1169" y="47" on="0"/>
        <pt x="1111" y="16" on="0"/>
        <pt x="1016" y="-15" on="0"/>
        <pt x="883" y="-39" on="0"/>
        <pt x="797" y="-39" on="1"/>
        <pt x="702" y="-39" on="0"/>
        <pt x="554" y="-5" on="0"/>
        <pt x="443" y="44" on="0"/>
        <pt x="370" y="98" on="0"/>
        <pt x="350" y="118" on="1"/>
        <pt x="295" y="171" on="0"/>
        <pt x="205" y="373" on="0"/>
        <pt x="185" y="515" on="1"/>
        <pt x="85" y="515" on="1"/>
        <pt x="85" y="626" on="1"/>
        <pt x="174" y="626" on="1"/>
        <pt x="172" y="644" on="0"/>
        <pt x="172" y="680" on="0"/>
        <pt x="172" y="699" on="1"/>
        <pt x="172" y="716" on="0"/>
        <pt x="172" y="750" on="0"/>
        <pt x="173" y="767" on="1"/>
        <pt x="85" y="767" on="1"/>
        <pt x="85" y="876" on="1"/>
        <pt x="181" y="876" on="1"/>
        <pt x="191" y="962" on="0"/>
        <pt x="227" y="1096" on="0"/>
        <pt x="270" y="1197" on="0"/>
        <pt x="315" y="1267" on="0"/>
        <pt x="334" y="1289" on="1"/>
        <pt x="356" y="1316" on="0"/>
        <pt x="436" y="1380" on="0"/>
        <pt x="551" y="1435" on="0"/>
        <pt x="703" y="1472" on="0"/>
        <pt x="798" y="1472" on="1"/>
        <pt x="888" y="1472" on="0"/>
        <pt x="1026" y="1445" on="0"/>
        <pt x="1125" y="1408" on="0"/>
        <pt x="1185" y="1370" on="0"/>
        <pt x="1196" y="1360" on="1"/>
        <pt x="1208" y="1349" on="0"/>
        <pt x="1241" y="1314" on="0"/>
        <pt x="1274" y="1264" on="0"/>
        <pt x="1304" y="1197" on="0"/>
        <pt x="1314" y="1155" on="1"/>
        <pt x="1178" y="1100" on="1"/>
        <pt x="1158" y="1169" on="0"/>
        <pt x="1095" y="1253" on="0"/>
        <pt x="1063" y="1269" on="1"/>
        <pt x="1056" y="1272" on="0"/>
        <pt x="1017" y="1290" on="0"/>
        <pt x="952" y="1308" on="0"/>
        <pt x="861" y="1322" on="0"/>
        <pt x="801" y="1322" on="1"/>
        <pt x="733" y="1322" on="0"/>
        <pt x="628" y="1299" on="0"/>
        <pt x="550" y="1265" on="0"/>
        <pt x="497" y="1226" on="0"/>
        <pt x="482" y="1211" on="1"/>
        <pt x="465" y="1195" on="0"/>
        <pt x="428" y="1140" on="0"/>
        <pt x="395" y="1058" on="0"/>
        <pt x="367" y="948" on="0"/>
        <pt x="360" y="876" on="1"/>
        <pt x="818" y="876" on="1"/>
        <pt x="818" y="767" on="1"/>
      </contour>
    </TTGlyph>
    <TTGlyph name="F" xMin="192" yMin="0" xMax="1021" yMax="1441">
      <contour>
        <pt x="192" y="1441" on="1"/>
        <pt x="1021" y="1441" on="1"/>
        <pt x="990" y="1295" on="1"/>
        <pt x="366" y="1295" on="1"/>
        <pt x="366" y="819" on="1"/>
        <pt x="914" y="819" on="1"/>
        <pt x="914" y="673" on="1"/>
        <pt x="366" y="673" on="1"/>
        <pt x="366" y="0" on="1"/>
        <pt x="192" y="0" on="1"/>
      </contour>
    </TTGlyph>
    <TTGlyph name="G" xMin="114" yMin="-39" xMax="1344" yMax="1473">
      <contour>
        <pt x="1344" y="0" on="1"/>
        <pt x="1220" y="0" on="1"/>
        <pt x="1191" y="118" on="1"/>
        <pt x="1158" y="88" on="0"/>
        <pt x="1078" y="33" on="0"/>
        <pt x="977" y="-11" on="0"/>
        <pt x="849" y="-38" on="0"/>
        <pt x="768" y="-39" on="1"/>
        <pt x="669" y="-39" on="0"/>
        <pt x="513" y="-4" on="0"/>
        <pt x="396" y="48" on="0"/>
        <pt x="315" y="107" on="0"/>
        <pt x="292" y="132" on="1"/>
        <pt x="268" y="157" on="0"/>
        <pt x="207" y="244" on="0"/>
        <pt x="152" y="379" on="0"/>
        <pt x="114" y="567" on="0"/>
        <pt x="114" y="692" on="1"/>
        <pt x="114" y="831" on="0"/>
        <pt x="155" y="1040" on="0"/>
        <pt x="216" y="1191" on="0"/>
        <pt x="286" y="1288" on="0"/>
        <pt x="315" y="1315" on="1"/>
        <pt x="339" y="1337" on="0"/>
        <pt x="418" y="1392" on="0"/>
        <pt x="534" y="1440" on="0"/>
        <pt x="687" y="1473" on="0"/>
        <pt x="784" y="1473" on="1"/>
        <pt x="872" y="1473" on="0"/>
        <pt x="1013" y="1444" on="0"/>
        <pt x="1117" y="1404" on="0"/>
        <pt x="1184" y="1363" on="0"/>
        <pt x="1198" y="1352" on="1"/>
        <pt x="1205" y="1346" on="0"/>
        <pt x="1234" y="1317" on="0"/>
        <pt x="1269" y="1264" on="0"/>
        <pt x="1307" y="1188" on="0"/>
        <pt x="1322" y="1136" on="1"/>
        <pt x="1192" y="1049" on="1"/>
        <pt x="1181" y="1090" on="0"/>
        <pt x="1154" y="1153" on="0"/>
        <pt x="1128" y="1197" on="0"/>
        <pt x="1106" y="1223" on="0"/>
        <pt x="1100" y="1228" on="1"/>
        <pt x="1088" y="1238" on="0"/>
        <pt x="1038" y="1271" on="0"/>
        <pt x="959" y="1303" on="0"/>
        <pt x="851" y="1326" on="0"/>
        <pt x="781" y="1326" on="1"/>
        <pt x="706" y="1326" on="0"/>
        <pt x="591" y="1302" on="0"/>
        <pt x="505" y="1268" on="0"/>
        <pt x="448" y="1229" on="0"/>
        <pt x="432" y="1214" on="1"/>
        <pt x="409" y="1193" on="0"/>
        <pt x="360" y="1114" on="0"/>
        <pt x="320" y="990" on="0"/>
        <pt x="293" y="815" on="0"/>
        <pt x="293" y="697" on="1"/>
        <pt x="293" y="587" on="0"/>
        <pt x="319" y="422" on="0"/>
        <pt x="360" y="305" on="0"/>
        <pt x="408" y="232" on="0"/>
        <pt x="430" y="213" on="1"/>
        <pt x="446" y="199" on="0"/>
        <pt x="502" y="162" on="0"/>
        <pt x="586" y="130" on="0"/>
        <pt x="699" y="108" on="0"/>
        <pt x="773" y="108" on="1"/>
        <pt x="857" y="108" on="0"/>
        <pt x="982" y="134" on="0"/>
        <pt x="1076" y="177" on="0"/>
        <pt x="1144" y="230" on="0"/>
        <pt x="1170" y="257" on="1"/>
        <pt x="1170" y="564" on="1"/>
        <pt x="733" y="564" on="1"/>
        <pt x="733" y="707" on="1"/>
        <pt x="1344" y="707" on="1"/>
      </contour>
    </TTGlyph>
    <TTGlyph name="H" xMin="192" yMin="0" xMax="1331" yMax="1441">
      <contour>
        <pt x="192" y="1441" on="1"/>
        <pt x="366" y="1441" on="1"/>
        <pt x="366" y="817" on="1"/>
        <pt x="1157" y="817" on="1"/>
        <pt x="1157" y="1441" on="1"/>
        <pt x="1331" y="1441" on="1"/>
        <pt x="1331" y="0" on="1"/>
        <pt x="1157" y="0" on="1"/>
        <pt x="1157" y="680" on="1"/>
        <pt x="366" y="680" on="1"/>
        <pt x="366" y="0" on="1"/>
        <pt x="192" y="0" on="1"/>
      </contour>
    </TTGlyph>
    <TTGlyph name="I" xMin="96" yMin="0" xMax="605" yMax="1441">
      <contour>
        <pt x="96" y="1441" on="1"/>
        <pt x="605" y="1441" on="1"/>
        <pt x="597" y="1340" on="1"/>
        <pt x="444" y="1340" on="1"/>
        <pt x="444" y="101" on="1"/>
        <pt x="599" y="101" on="1"/>
        <pt x="593" y="0" on="1"/>
        <pt x="103" y="0" on="1"/>
        <pt x="97" y="101" on="1"/>
        <pt x="270" y="101" on="1"/>
        <pt x="270" y="1340" on="1"/>
        <pt x="102" y="1340" on="1"/>
      </contour>
    </TTGlyph>
    <TTGlyph name="Iacute" xMin="96" yMin="0" xMax="605" yMax="2020">
      <component glyphName="I" x="0" y="0" flags="0x1204"/>
      <component glyphName="acute" x="-41" y="430" flags="0x1004"/>
    </TTGlyph>
    <TTGlyph name="Icircumflex" xMin="96" yMin="0" xMax="605" yMax="1902">
      <component glyphName="I" x="0" y="0" flags="0x1204"/>
      <component glyphName="circumflex" x="24" y="430" flags="0x1004"/>
    </TTGlyph>
    <TTGlyph name="Idieresis" xMin="60" yMin="0" xMax="664" yMax="1870">
      <component glyphName="I" x="0" y="0" flags="0x1204"/>
      <component glyphName="dieresis" x="16" y="430" flags="0x1004"/>
    </TTGlyph>
    <TTGlyph name="Igrave" xMin="96" yMin="0" xMax="605" yMax="2020">
      <component glyphName="I" x="0" y="0" flags="0x1204"/>
      <component glyphName="grave" x="21" y="430" flags="0x1004"/>
    </TTGlyph>
    <TTGlyph name="J" xMin="43" yMin="-58" xMax="635" yMax="1441">
      <contour>
        <pt x="461" y="1441" on="1"/>
        <pt x="635" y="1441" on="1"/>
        <pt x="635" y="332" on="1"/>
        <pt x="635" y="255" on="0"/>
        <pt x="618" y="144" on="0"/>
        <pt x="591" y="67" on="0"/>
        <pt x="554" y="19" on="0"/>
        <pt x="535" y="4" on="1"/>
        <pt x="510" y="-17" on="0"/>
        <pt x="401" y="-58" on="0"/>
        <pt x="317" y="-58" on="1"/>
        <pt x="251" y="-58" on="0"/>
        <pt x="148" y="-21" on="0"/>
        <pt x="79" y="37" on="0"/>
        <pt x="43" y="107" on="0"/>
        <pt x="43" y="139" on="1"/>
        <pt x="43" y="147" on="0"/>
        <pt x="44" y="172" on="0"/>
        <pt x="46" y="186" on="1"/>
        <pt x="47" y="201" on="0"/>
        <pt x="49" y="219" on="1"/>
        <pt x="191" y="249" on="1"/>
        <pt x="191" y="239" on="1"/>
        <pt x="191" y="231" on="0"/>
        <pt x="192" y="202" on="0"/>
        <pt x="192" y="173" on="1"/>
        <pt x="192" y="149" on="0"/>
        <pt x="213" y="118" on="0"/>
        <pt x="251" y="99" on="0"/>
        <pt x="302" y="92" on="0"/>
        <pt x="331" y="92" on="1"/>
        <pt x="365" y="92" on="0"/>
        <pt x="414" y="114" on="0"/>
        <pt x="446" y="177" on="0"/>
        <pt x="461" y="290" on="0"/>
        <pt x="461" y="380" on="1"/>
      </contour>
    </TTGlyph>
    <TTGlyph name="K" xMin="192" yMin="0" xMax="1251" yMax="1441">
      <contour>
        <pt x="192" y="1441" on="1"/>
        <pt x="366" y="1441" on="1"/>
        <pt x="366" y="725" on="1"/>
        <pt x="551" y="871" on="1"/>
        <pt x="1013" y="1441" on="1"/>
        <pt x="1225" y="1441" on="1"/>
        <pt x="710" y="820" on="1"/>
        <pt x="1251" y="0" on="1"/>
        <pt x="1055" y="0" on="1"/>
        <pt x="571" y="757" on="1"/>
        <pt x="366" y="594" on="1"/>
        <pt x="366" y="0" on="1"/>
        <pt x="192" y="0" on="1"/>
      </contour>
    </TTGlyph>
    <TTGlyph name="L" xMin="192" yMin="0" xMax="1001" yMax="1441">
      <contour>
        <pt x="192" y="0" on="1"/>
        <pt x="192" y="1441" on="1"/>
        <pt x="366" y="1441" on="1"/>
        <pt x="366" y="143" on="1"/>
        <pt x="1001" y="143" on="1"/>
        <pt x="1001" y="0" on="1"/>
      </contour>
    </TTGlyph>
    <TTGlyph name="Lslash" xMin="41" yMin="0" xMax="957" yMax="1441">
      <contour>
        <pt x="196" y="0" on="1"/>
        <pt x="196" y="564" on="1"/>
        <pt x="102" y="512" on="1"/>
        <pt x="41" y="621" on="1"/>
        <pt x="196" y="708" on="1"/>
        <pt x="196" y="1441" on="1"/>
        <pt x="370" y="1441" on="1"/>
        <pt x="370" y="805" on="1"/>
        <pt x="602" y="936" on="1"/>
        <pt x="667" y="829" on="1"/>
        <pt x="370" y="662" on="1"/>
        <pt x="370" y="143" on="1"/>
        <pt x="957" y="143" on="1"/>
        <pt x="957" y="0" on="1"/>
      </contour>
    </TTGlyph>
    <TTGlyph name="M" xMin="192" yMin="0" xMax="1549" yMax="1441">
      <contour>
        <pt x="1292" y="1441" on="1"/>
        <pt x="1549" y="1441" on="1"/>
        <pt x="1549" y="0" on="1"/>
        <pt x="1393" y="0" on="1"/>
        <pt x="1393" y="1284" on="1"/>
        <pt x="1355" y="1172" on="1"/>
        <pt x="956" y="63" on="1"/>
        <pt x="787" y="63" on="1"/>
        <pt x="387" y="1172" on="1"/>
        <pt x="348" y="1284" on="1"/>
        <pt x="348" y="0" on="1"/>
        <pt x="192" y="0" on="1"/>
        <pt x="192" y="1441" on="1"/>
        <pt x="451" y="1441" on="1"/>
        <pt x="872" y="253" on="1"/>
      </contour>
    </TTGlyph>
    <TTGlyph name="N" xMin="192" yMin="0" xMax="1369" yMax="1441">
      <contour>
        <pt x="192" y="1441" on="1"/>
        <pt x="409" y="1441" on="1"/>
        <pt x="1016" y="527" on="1"/>
        <pt x="1207" y="223" on="1"/>
        <pt x="1207" y="1441" on="1"/>
        <pt x="1369" y="1441" on="1"/>
        <pt x="1369" y="0" on="1"/>
        <pt x="1170" y="0" on="1"/>
        <pt x="535" y="963" on="1"/>
        <pt x="353" y="1250" on="1"/>
        <pt x="353" y="0" on="1"/>
        <pt x="192" y="0" on="1"/>
      </contour>
    </TTGlyph>
    <TTGlyph name="Ntilde" xMin="192" yMin="0" xMax="1369" yMax="1871">
      <component glyphName="N" x="0" y="0" flags="0x1204"/>
      <component glyphName="tilde" x="338" y="430" flags="0x1004"/>
    </TTGlyph>
    <TTGlyph name="O" xMin="121" yMin="-38" xMax="1420" yMax="1472">
      <contour>
        <pt x="772" y="1324" on="1"/>
        <pt x="696" y="1324" on="0"/>
        <pt x="574" y="1300" on="0"/>
        <pt x="482" y="1263" on="0"/>
        <pt x="419" y="1219" on="0"/>
        <pt x="403" y="1199" on="1"/>
        <pt x="386" y="1178" on="0"/>
        <pt x="350" y="1109" on="0"/>
        <pt x="320" y="997" on="0"/>
        <pt x="300" y="835" on="0"/>
        <pt x="300" y="721" on="1"/>
        <pt x="300" y="604" on="0"/>
        <pt x="320" y="438" on="0"/>
        <pt x="351" y="324" on="0"/>
        <pt x="387" y="254" on="0"/>
        <pt x="404" y="234" on="1"/>
        <pt x="420" y="214" on="0"/>
        <pt x="482" y="170" on="0"/>
        <pt x="574" y="134" on="0"/>
        <pt x="694" y="110" on="0"/>
        <pt x="769" y="110" on="1"/>
        <pt x="844" y="110" on="0"/>
        <pt x="966" y="134" on="0"/>
        <pt x="1058" y="171" on="0"/>
        <pt x="1120" y="215" on="0"/>
        <pt x="1137" y="236" on="1"/>
        <pt x="1153" y="257" on="0"/>
        <pt x="1190" y="327" on="0"/>
        <pt x="1221" y="443" on="0"/>
        <pt x="1241" y="611" on="0"/>
        <pt x="1241" y="729" on="1"/>
        <pt x="1241" y="841" on="0"/>
        <pt x="1221" y="1001" on="0"/>
        <pt x="1190" y="1112" on="0"/>
        <pt x="1154" y="1180" on="0"/>
        <pt x="1138" y="1200" on="1"/>
        <pt x="1122" y="1220" on="0"/>
        <pt x="1060" y="1264" on="0"/>
        <pt x="968" y="1300" on="0"/>
        <pt x="847" y="1324" on="0"/>
      </contour>
      <contour>
        <pt x="121" y="727" on="1"/>
        <pt x="121" y="857" on="0"/>
        <pt x="152" y="1048" on="0"/>
        <pt x="198" y="1183" on="0"/>
        <pt x="252" y="1269" on="0"/>
        <pt x="275" y="1295" on="1"/>
        <pt x="298" y="1320" on="0"/>
        <pt x="379" y="1382" on="0"/>
        <pt x="500" y="1436" on="0"/>
        <pt x="665" y="1472" on="0"/>
        <pt x="772" y="1472" on="1"/>
        <pt x="879" y="1472" on="0"/>
        <pt x="1043" y="1435" on="0"/>
        <pt x="1164" y="1381" on="0"/>
        <pt x="1245" y="1319" on="0"/>
        <pt x="1268" y="1294" on="1"/>
        <pt x="1291" y="1268" on="0"/>
        <pt x="1344" y="1183" on="0"/>
        <pt x="1390" y="1048" on="0"/>
        <pt x="1420" y="858" on="0"/>
        <pt x="1420" y="728" on="1"/>
        <pt x="1420" y="579" on="0"/>
        <pt x="1383" y="367" on="0"/>
        <pt x="1328" y="223" on="0"/>
        <pt x="1263" y="137" on="0"/>
        <pt x="1236" y="114" on="1"/>
        <pt x="1209" y="91" on="0"/>
        <pt x="1125" y="38" on="0"/>
        <pt x="1010" y="-8" on="0"/>
        <pt x="861" y="-38" on="0"/>
        <pt x="769" y="-38" on="1"/>
        <pt x="661" y="-38" on="0"/>
        <pt x="496" y="-2" on="0"/>
        <pt x="375" y="52" on="0"/>
        <pt x="295" y="114" on="0"/>
        <pt x="272" y="140" on="1"/>
        <pt x="249" y="166" on="0"/>
        <pt x="196" y="254" on="0"/>
        <pt x="151" y="394" on="0"/>
        <pt x="121" y="591" on="0"/>
      </contour>
    </TTGlyph>
    <TTGlyph name="OE" xMin="121" yMin="-41" xMax="1941" yMax="1472">
      <contour>
        <pt x="1079" y="1296" on="1"/>
        <pt x="1029" y="1303" on="0"/>
        <pt x="981" y="1309" on="1"/>
        <pt x="939" y="1314" on="0"/>
        <pt x="848" y="1323" on="0"/>
        <pt x="814" y="1323" on="1"/>
        <pt x="726" y="1323" on="0"/>
        <pt x="592" y="1302" on="0"/>
        <pt x="496" y="1271" on="0"/>
        <pt x="433" y="1232" on="0"/>
        <pt x="417" y="1214" on="1"/>
        <pt x="399" y="1193" on="0"/>
        <pt x="358" y="1122" on="0"/>
        <pt x="323" y="1008" on="0"/>
        <pt x="301" y="841" on="0"/>
        <pt x="301" y="724" on="1"/>
        <pt x="301" y="599" on="0"/>
        <pt x="323" y="425" on="0"/>
        <pt x="358" y="308" on="0"/>
        <pt x="399" y="239" on="0"/>
        <pt x="417" y="218" on="1"/>
        <pt x="434" y="200" on="0"/>
        <pt x="494" y="160" on="0"/>
        <pt x="587" y="128" on="0"/>
        <pt x="717" y="107" on="0"/>
        <pt x="805" y="107" on="1"/>
        <pt x="844" y="107" on="0"/>
        <pt x="939" y="116" on="0"/>
        <pt x="981" y="122" on="1"/>
        <pt x="1029" y="129" on="0"/>
        <pt x="1079" y="138" on="1"/>
      </contour>
      <contour>
        <pt x="776" y="1472" on="1"/>
        <pt x="823" y="1471" on="0"/>
        <pt x="929" y="1462" on="0"/>
        <pt x="975" y="1456" on="1"/>
        <pt x="1029" y="1449" on="0"/>
        <pt x="1081" y="1441" on="1"/>
        <pt x="1939" y="1441" on="1"/>
        <pt x="1915" y="1303" on="1"/>
        <pt x="1248" y="1303" on="1"/>
        <pt x="1248" y="822" on="1"/>
        <pt x="1862" y="822" on="1"/>
        <pt x="1862" y="686" on="1"/>
        <pt x="1248" y="686" on="1"/>
        <pt x="1248" y="141" on="1"/>
        <pt x="1917" y="141" on="1"/>
        <pt x="1941" y="1" on="1"/>
        <pt x="1087" y="1" on="1"/>
        <pt x="1032" y="-11" on="0"/>
        <pt x="977" y="-20" on="1"/>
        <pt x="929" y="-28" on="0"/>
        <pt x="818" y="-41" on="0"/>
        <pt x="768" y="-41" on="1"/>
        <pt x="663" y="-41" on="0"/>
        <pt x="505" y="-7" on="0"/>
        <pt x="391" y="42" on="0"/>
        <pt x="316" y="97" on="0"/>
        <pt x="294" y="117" on="1"/>
        <pt x="266" y="142" on="0"/>
        <pt x="205" y="230" on="0"/>
        <pt x="154" y="372" on="0"/>
        <pt x="121" y="577" on="0"/>
        <pt x="121" y="720" on="1"/>
        <pt x="121" y="852" on="0"/>
        <pt x="152" y="1046" on="0"/>
        <pt x="198" y="1183" on="0"/>
        <pt x="252" y="1270" on="0"/>
        <pt x="275" y="1296" on="1"/>
        <pt x="299" y="1323" on="0"/>
        <pt x="380" y="1384" on="0"/>
        <pt x="500" y="1437" on="0"/>
        <pt x="666" y="1472" on="0"/>
      </contour>
    </TTGlyph>
    <TTGlyph name="Oacute" xMin="121" yMin="-38" xMax="1420" yMax="2020">
      <component glyphName="O" x="0" y="0" flags="0x1204"/>
      <component glyphName="acute" x="377" y="430" flags="0x1004"/>
    </TTGlyph>
    <TTGlyph name="Ocircumflex" xMin="121" yMin="-38" xMax="1420" yMax="1902">
      <component glyphName="O" x="0" y="0" flags="0x1204"/>
      <component glyphName="circumflex" x="443" y="430" flags="0x1004"/>
    </TTGlyph>
    <TTGlyph name="Odieresis" xMin="121" yMin="-38" xMax="1420" yMax="1870">
      <component glyphName="O" x="0" y="0" flags="0x1204"/>
      <component glyphName="dieresis" x="424" y="430" flags="0x1004"/>
    </TTGlyph>
    <TTGlyph name="Ograve" xMin="121" yMin="-38" xMax="1420" yMax="2020">
      <component glyphName="O" x="0" y="0" flags="0x1204"/>
      <component glyphName="grave" x="440" y="430" flags="0x1004"/>
    </TTGlyph>
    <TTGlyph name="Oslash" xMin="121" yMin="-177" xMax="1420" yMax="1614">
      <component glyphName="O" x="0" y="0" flags="0x1004"/>
      <component glyphName="slash" x="417" y="0" flags="0x1004"/>
    </TTGlyph>
    <TTGlyph name="Otilde" xMin="121" yMin="-38" xMax="1420" yMax="1871">
      <component glyphName="O" x="0" y="0" flags="0x1204"/>
      <component glyphName="tilde" x="321" y="430" flags="0x1004"/>
    </TTGlyph>
    <TTGlyph name="P" xMin="192" yMin="0" xMax="1174" yMax="1441">
      <contour>
        <pt x="366" y="1297" on="1"/>
        <pt x="366" y="728" on="1"/>
        <pt x="549" y="728" on="1"/>
        <pt x="634" y="728" on="0"/>
        <pt x="755" y="736" on="0"/>
        <pt x="839" y="751" on="0"/>
        <pt x="893" y="774" on="0"/>
        <pt x="913" y="790" on="1"/>
        <pt x="928" y="802" on="0"/>
        <pt x="956" y="834" on="0"/>
        <pt x="978" y="883" on="0"/>
        <pt x="991" y="956" on="0"/>
        <pt x="991" y="1009" on="1"/>
        <pt x="991" y="1064" on="0"/>
        <pt x="977" y="1141" on="0"/>
        <pt x="953" y="1195" on="0"/>
        <pt x="922" y="1230" on="0"/>
        <pt x="905" y="1243" on="1"/>
        <pt x="891" y="1253" on="0"/>
        <pt x="853" y="1273" on="0"/>
        <pt x="793" y="1288" on="0"/>
        <pt x="706" y="1297" on="0"/>
        <pt x="642" y="1297" on="1"/>
      </contour>
      <contour>
        <pt x="192" y="1441" on="1"/>
        <pt x="562" y="1441" on="1"/>
        <pt x="667" y="1441" on="0"/>
        <pt x="823" y="1428" on="0"/>
        <pt x="940" y="1402" on="0"/>
        <pt x="1022" y="1362" on="0"/>
        <pt x="1052" y="1334" on="1"/>
        <pt x="1074" y="1314" on="0"/>
        <pt x="1117" y="1258" on="0"/>
        <pt x="1152" y="1180" on="0"/>
        <pt x="1174" y="1078" on="0"/>
        <pt x="1174" y="1012" on="1"/>
        <pt x="1174" y="946" on="0"/>
        <pt x="1152" y="844" on="0"/>
        <pt x="1116" y="768" on="0"/>
        <pt x="1072" y="713" on="0"/>
        <pt x="1050" y="694" on="1"/>
        <pt x="1026" y="673" on="0"/>
        <pt x="957" y="635" on="0"/>
        <pt x="857" y="605" on="0"/>
        <pt x="720" y="588" on="0"/>
        <pt x="629" y="588" on="1"/>
        <pt x="366" y="588" on="1"/>
        <pt x="366" y="0" on="1"/>
        <pt x="192" y="0" on="1"/>
      </contour>
    </TTGlyph>
    <TTGlyph name="Q" xMin="121" yMin="-262" xMax="1422" yMax="1472">
      <contour>
        <pt x="819" y="386" on="1"/>
        <pt x="842" y="359" on="0"/>
        <pt x="885" y="305" on="0"/>
        <pt x="929" y="248" on="0"/>
        <pt x="974" y="183" on="0"/>
        <pt x="1000" y="146" on="1"/>
        <pt x="1042" y="161" on="0"/>
        <pt x="1108" y="201" on="0"/>
        <pt x="1128" y="223" on="1"/>
        <pt x="1144" y="240" on="0"/>
        <pt x="1184" y="308" on="0"/>
        <pt x="1219" y="425" on="0"/>
        <pt x="1243" y="602" on="0"/>
        <pt x="1243" y="729" on="1"/>
        <pt x="1243" y="841" on="0"/>
        <pt x="1223" y="1001" on="0"/>
        <pt x="1192" y="1111" on="0"/>
        <pt x="1155" y="1179" on="0"/>
        <pt x="1139" y="1199" on="1"/>
        <pt x="1122" y="1219" on="0"/>
        <pt x="1060" y="1263" on="0"/>
        <pt x="968" y="1299" on="0"/>
        <pt x="847" y="1323" on="0"/>
        <pt x="772" y="1323" on="1"/>
        <pt x="696" y="1323" on="0"/>
        <pt x="574" y="1299" on="0"/>
        <pt x="482" y="1262" on="0"/>
        <pt x="420" y="1218" on="0"/>
        <pt x="404" y="1198" on="1"/>
        <pt x="387" y="1177" on="0"/>
        <pt x="351" y="1108" on="0"/>
        <pt x="321" y="996" on="0"/>
        <pt x="301" y="834" on="0"/>
        <pt x="301" y="721" on="1"/>
        <pt x="301" y="615" on="0"/>
        <pt x="319" y="454" on="0"/>
        <pt x="347" y="336" on="0"/>
        <pt x="379" y="258" on="0"/>
        <pt x="394" y="236" on="1"/>
        <pt x="407" y="215" on="0"/>
        <pt x="460" y="171" on="0"/>
        <pt x="559" y="136" on="0"/>
        <pt x="713" y="113" on="0"/>
        <pt x="826" y="113" on="1"/>
        <pt x="834" y="113" on="0"/>
        <pt x="850" y="113" on="0"/>
        <pt x="858" y="114" on="1"/>
        <pt x="815" y="176" on="0"/>
        <pt x="736" y="279" on="0"/>
        <pt x="690" y="329" on="1"/>
      </contour>
      <contour>
        <pt x="1138" y="-262" on="1"/>
        <pt x="1111" y="-235" on="0"/>
        <pt x="1064" y="-183" on="0"/>
        <pt x="1018" y="-126" on="0"/>
        <pt x="971" y="-62" on="0"/>
        <pt x="944" y="-23" on="1"/>
        <pt x="912" y="-30" on="0"/>
        <pt x="819" y="-39" on="0"/>
        <pt x="773" y="-39" on="1"/>
        <pt x="660" y="-39" on="0"/>
        <pt x="486" y="0" on="0"/>
        <pt x="360" y="60" on="0"/>
        <pt x="277" y="131" on="0"/>
        <pt x="254" y="163" on="1"/>
        <pt x="235" y="188" on="0"/>
        <pt x="189" y="272" on="0"/>
        <pt x="148" y="404" on="0"/>
        <pt x="121" y="593" on="0"/>
        <pt x="121" y="724" on="1"/>
        <pt x="121" y="862" on="0"/>
        <pt x="155" y="1062" on="0"/>
        <pt x="206" y="1200" on="0"/>
        <pt x="265" y="1285" on="0"/>
        <pt x="290" y="1309" on="1"/>
        <pt x="315" y="1333" on="0"/>
        <pt x="397" y="1389" on="0"/>
        <pt x="514" y="1439" on="0"/>
        <pt x="670" y="1472" on="0"/>
        <pt x="769" y="1472" on="1"/>
        <pt x="876" y="1472" on="0"/>
        <pt x="1041" y="1435" on="0"/>
        <pt x="1163" y="1381" on="0"/>
        <pt x="1244" y="1319" on="0"/>
        <pt x="1267" y="1294" on="1"/>
        <pt x="1291" y="1268" on="0"/>
        <pt x="1345" y="1182" on="0"/>
        <pt x="1391" y="1048" on="0"/>
        <pt x="1422" y="860" on="0"/>
        <pt x="1422" y="731" on="1"/>
        <pt x="1422" y="597" on="0"/>
        <pt x="1393" y="405" on="0"/>
        <pt x="1351" y="270" on="0"/>
        <pt x="1302" y="185" on="0"/>
        <pt x="1282" y="160" on="1"/>
        <pt x="1256" y="127" on="0"/>
        <pt x="1160" y="50" on="0"/>
        <pt x="1084" y="18" on="1"/>
        <pt x="1131" y="-48" on="0"/>
        <pt x="1214" y="-148" on="0"/>
        <pt x="1261" y="-192" on="1"/>
      </contour>
    </TTGlyph>
    <TTGlyph name="R" xMin="192" yMin="-41" xMax="1254" yMax="1441">
      <contour>
        <pt x="984" y="843" on="1"/>
        <pt x="1015" y="877" on="0"/>
        <pt x="1034" y="978" on="0"/>
        <pt x="1034" y="1047" on="1"/>
        <pt x="1034" y="1118" on="0"/>
        <pt x="1007" y="1215" on="0"/>
        <pt x="972" y="1244" on="1"/>
        <pt x="930" y="1279" on="0"/>
        <pt x="783" y="1299" on="0"/>
        <pt x="673" y="1299" on="1"/>
        <pt x="366" y="1299" on="1"/>
        <pt x="366" y="775" on="1"/>
        <pt x="643" y="775" on="1"/>
        <pt x="677" y="775" on="0"/>
        <pt x="741" y="775" on="0"/>
        <pt x="770" y="776" on="1"/>
        <pt x="847" y="778" on="0"/>
        <pt x="950" y="810" on="0"/>
      </contour>
      <contour>
        <pt x="192" y="1441" on="1"/>
        <pt x="637" y="1441" on="1"/>
        <pt x="684" y="1441" on="0"/>
        <pt x="772" y="1439" on="0"/>
        <pt x="814" y="1437" on="1"/>
        <pt x="899" y="1432" on="0"/>
        <pt x="1038" y="1395" on="0"/>
        <pt x="1087" y="1357" on="1"/>
        <pt x="1152" y="1308" on="0"/>
        <pt x="1212" y="1152" on="0"/>
        <pt x="1212" y="1048" on="1"/>
        <pt x="1212" y="933" on="0"/>
        <pt x="1160" y="776" on="0"/>
        <pt x="1099" y="728" on="1"/>
        <pt x="1052" y="693" on="0"/>
        <pt x="916" y="655" on="0"/>
        <pt x="825" y="649" on="1"/>
        <pt x="850" y="631" on="0"/>
        <pt x="876" y="605" on="1"/>
        <pt x="899" y="583" on="0"/>
        <pt x="951" y="521" on="0"/>
        <pt x="976" y="481" on="1"/>
        <pt x="1254" y="20" on="1"/>
        <pt x="1102" y="-41" on="1"/>
        <pt x="1034" y="72" on="0"/>
        <pt x="907" y="286" on="0"/>
        <pt x="795" y="466" on="0"/>
        <pt x="702" y="599" on="0"/>
        <pt x="669" y="632" on="1"/>
        <pt x="366" y="632" on="1"/>
        <pt x="366" y="0" on="1"/>
        <pt x="192" y="0" on="1"/>
      </contour>
    </TTGlyph>
    <TTGlyph name="S" xMin="106" yMin="-39" xMax="1115" yMax="1477">
      <contour>
        <pt x="106" y="158" on="1"/>
        <pt x="172" y="301" on="1"/>
        <pt x="187" y="263" on="0"/>
        <pt x="268" y="195" on="0"/>
        <pt x="384" y="143" on="0"/>
        <pt x="527" y="112" on="0"/>
        <pt x="605" y="112" on="1"/>
        <pt x="685" y="112" on="0"/>
        <pt x="802" y="143" on="0"/>
        <pt x="842" y="172" on="1"/>
        <pt x="890" y="208" on="0"/>
        <pt x="935" y="318" on="0"/>
        <pt x="935" y="390" on="1"/>
        <pt x="935" y="453" on="0"/>
        <pt x="906" y="542" on="0"/>
        <pt x="838" y="605" on="0"/>
        <pt x="729" y="650" on="0"/>
        <pt x="649" y="669" on="1"/>
        <pt x="586" y="684" on="0"/>
        <pt x="475" y="711" on="0"/>
        <pt x="378" y="741" on="0"/>
        <pt x="292" y="780" on="0"/>
        <pt x="253" y="808" on="1"/>
        <pt x="184" y="861" on="0"/>
        <pt x="121" y="1001" on="0"/>
        <pt x="121" y="1092" on="1"/>
        <pt x="121" y="1178" on="0"/>
        <pt x="173" y="1314" on="0"/>
        <pt x="222" y="1361" on="1"/>
        <pt x="285" y="1419" on="0"/>
        <pt x="385" y="1452" on="1"/>
        <pt x="459" y="1477" on="0"/>
        <pt x="612" y="1477" on="1"/>
        <pt x="730" y="1477" on="0"/>
        <pt x="790" y="1462" on="1"/>
        <pt x="866" y="1444" on="0"/>
        <pt x="971" y="1386" on="0"/>
        <pt x="1033" y="1334" on="0"/>
        <pt x="1045" y="1320" on="1"/>
        <pt x="987" y="1168" on="1"/>
        <pt x="976" y="1184" on="0"/>
        <pt x="919" y="1242" on="0"/>
        <pt x="871" y="1268" on="1"/>
        <pt x="840" y="1284" on="0"/>
        <pt x="756" y="1311" on="1"/>
        <pt x="715" y="1325" on="0"/>
        <pt x="602" y="1325" on="1"/>
        <pt x="493" y="1325" on="0"/>
        <pt x="440" y="1308" on="1"/>
        <pt x="374" y="1288" on="0"/>
        <pt x="337" y="1241" on="1"/>
        <pt x="295" y="1188" on="0"/>
        <pt x="295" y="1096" on="1"/>
        <pt x="295" y="1037" on="0"/>
        <pt x="340" y="959" on="0"/>
        <pt x="424" y="905" on="0"/>
        <pt x="543" y="869" on="0"/>
        <pt x="617" y="852" on="1"/>
        <pt x="690" y="834" on="0"/>
        <pt x="820" y="799" on="0"/>
        <pt x="931" y="753" on="0"/>
        <pt x="1019" y="691" on="0"/>
        <pt x="1082" y="602" on="0"/>
        <pt x="1115" y="480" on="0"/>
        <pt x="1115" y="398" on="1"/>
        <pt x="1115" y="277" on="0"/>
        <pt x="1031" y="99" on="0"/>
        <pt x="943" y="43" on="1"/>
        <pt x="814" y="-39" on="0"/>
        <pt x="588" y="-39" on="1"/>
        <pt x="496" y="-39" on="0"/>
        <pt x="339" y="-9" on="0"/>
        <pt x="215" y="43" on="0"/>
        <pt x="128" y="116" on="0"/>
      </contour>
    </TTGlyph>
    <TTGlyph name="Scaron" xMin="106" yMin="-39" xMax="1115" yMax="1902">
      <component glyphName="S" x="0" y="0" flags="0x1204"/>
      <component glyphName="caron" x="277" y="430" flags="0x1004"/>
    </TTGlyph>
    <TTGlyph name="T" xMin="38" yMin="-1" xMax="1106" yMax="1441">
      <contour>
        <pt x="38" y="1441" on="1"/>
        <pt x="1106" y="1441" on="1"/>
        <pt x="1106" y="1297" on="1"/>
        <pt x="658" y="1297" on="1"/>
        <pt x="658" y="-1" on="1"/>
        <pt x="485" y="-1" on="1"/>
        <pt x="485" y="1297" on="1"/>
        <pt x="38" y="1297" on="1"/>
      </contour>
    </TTGlyph>
    <TTGlyph name="Thorn" xMin="191" yMin="0" xMax="1173" yMax="1441">
      <contour>
        <pt x="365" y="1087" on="1"/>
        <pt x="365" y="518" on="1"/>
        <pt x="548" y="518" on="1"/>
        <pt x="633" y="518" on="0"/>
        <pt x="754" y="526" on="0"/>
        <pt x="838" y="541" on="0"/>
        <pt x="892" y="564" on="0"/>
        <pt x="912" y="580" on="1"/>
        <pt x="927" y="592" on="0"/>
        <pt x="955" y="623" on="0"/>
        <pt x="977" y="673" on="0"/>
        <pt x="990" y="745" on="0"/>
        <pt x="990" y="799" on="1"/>
        <pt x="990" y="854" on="0"/>
        <pt x="976" y="931" on="0"/>
        <pt x="952" y="985" on="0"/>
        <pt x="921" y="1020" on="0"/>
        <pt x="904" y="1033" on="1"/>
        <pt x="890" y="1043" on="0"/>
        <pt x="852" y="1063" on="0"/>
        <pt x="792" y="1078" on="0"/>
        <pt x="705" y="1087" on="0"/>
        <pt x="641" y="1087" on="1"/>
      </contour>
      <contour>
        <pt x="191" y="1441" on="1"/>
        <pt x="365" y="1441" on="1"/>
        <pt x="365" y="1231" on="1"/>
        <pt x="561" y="1231" on="1"/>
        <pt x="666" y="1231" on="0"/>
        <pt x="822" y="1218" on="0"/>
        <pt x="939" y="1192" on="0"/>
        <pt x="1021" y="1152" on="0"/>
        <pt x="1051" y="1124" on="1"/>
        <pt x="1073" y="1104" on="0"/>
        <pt x="1116" y="1048" on="0"/>
        <pt x="1151" y="970" on="0"/>
        <pt x="1173" y="868" on="0"/>
        <pt x="1173" y="802" on="1"/>
        <pt x="1173" y="736" on="0"/>
        <pt x="1151" y="634" on="0"/>
        <pt x="1115" y="558" on="0"/>
        <pt x="1071" y="503" on="0"/>
        <pt x="1049" y="484" on="1"/>
        <pt x="1025" y="463" on="0"/>
        <pt x="956" y="425" on="0"/>
        <pt x="856" y="395" on="0"/>
        <pt x="719" y="378" on="0"/>
        <pt x="628" y="378" on="1"/>
        <pt x="365" y="378" on="1"/>
        <pt x="365" y="0" on="1"/>
        <pt x="191" y="0" on="1"/>
      </contour>
    </TTGlyph>
    <TTGlyph name="U" xMin="176" yMin="-48" xMax="1335" yMax="1441">
      <contour>
        <pt x="1161" y="1441" on="1"/>
        <pt x="1335" y="1441" on="1"/>
        <pt x="1335" y="688" on="1"/>
        <pt x="1335" y="547" on="0"/>
        <pt x="1308" y="341" on="0"/>
        <pt x="1266" y="197" on="0"/>
        <pt x="1214" y="110" on="0"/>
        <pt x="1188" y="87" on="1"/>
        <pt x="1169" y="70" on="0"/>
        <pt x="1098" y="24" on="0"/>
        <pt x="991" y="-18" on="0"/>
        <pt x="847" y="-48" on="0"/>
        <pt x="755" y="-48" on="1"/>
        <pt x="663" y="-48" on="0"/>
        <pt x="517" y="-18" on="0"/>
        <pt x="407" y="24" on="0"/>
        <pt x="334" y="70" on="0"/>
        <pt x="315" y="87" on="1"/>
        <pt x="288" y="111" on="0"/>
        <pt x="238" y="198" on="0"/>
        <pt x="199" y="339" on="0"/>
        <pt x="176" y="540" on="0"/>
        <pt x="176" y="679" on="1"/>
        <pt x="176" y="1441" on="1"/>
        <pt x="350" y="1441" on="1"/>
        <pt x="350" y="683" on="1"/>
        <pt x="350" y="576" on="0"/>
        <pt x="364" y="416" on="0"/>
        <pt x="386" y="303" on="0"/>
        <pt x="413" y="233" on="0"/>
        <pt x="425" y="216" on="1"/>
        <pt x="437" y="199" on="0"/>
        <pt x="487" y="158" on="0"/>
        <pt x="568" y="123" on="0"/>
        <pt x="682" y="99" on="0"/>
        <pt x="759" y="99" on="1"/>
        <pt x="833" y="99" on="0"/>
        <pt x="946" y="121" on="0"/>
        <pt x="1027" y="156" on="0"/>
        <pt x="1078" y="197" on="0"/>
        <pt x="1090" y="216" on="1"/>
        <pt x="1097" y="227" on="0"/>
        <pt x="1122" y="281" on="0"/>
        <pt x="1144" y="376" on="0"/>
        <pt x="1161" y="520" on="0"/>
        <pt x="1161" y="621" on="1"/>
      </contour>
    </TTGlyph>
    <TTGlyph name="Uacute" xMin="176" yMin="-48" xMax="1335" yMax="2020">
      <component glyphName="U" x="0" y="0" flags="0x1204"/>
      <component glyphName="acute" x="362" y="430" flags="0x1004"/>
    </TTGlyph>
    <TTGlyph name="Ucircumflex" xMin="176" yMin="-48" xMax="1335" yMax="1902">
      <component glyphName="U" x="0" y="0" flags="0x1204"/>
      <component glyphName="circumflex" x="428" y="430" flags="0x1004"/>
    </TTGlyph>
    <TTGlyph name="Udieresis" xMin="176" yMin="-48" xMax="1335" yMax="1870">
      <component glyphName="U" x="0" y="0" flags="0x1204"/>
      <component glyphName="dieresis" x="409" y="430" flags="0x1004"/>
    </TTGlyph>
    <TTGlyph name="Ugrave" xMin="176" yMin="-48" xMax="1335" yMax="2020">
      <component glyphName="U" x="0" y="0" flags="0x1204"/>
      <component glyphName="grave" x="425" y="430" flags="0x1004"/>
    </TTGlyph>
    <TTGlyph name="V" xMin="21" yMin="0" xMax="1200" yMax="1441">
      <contour>
        <pt x="537" y="0" on="1"/>
        <pt x="519" y="48" on="0"/>
        <pt x="460" y="202" on="0"/>
        <pt x="376" y="430" on="0"/>
        <pt x="264" y="741" on="0"/>
        <pt x="193" y="945" on="1"/>
        <pt x="21" y="1441" on="1"/>
        <pt x="195" y="1441" on="1"/>
        <pt x="349" y="995" on="1"/>
        <pt x="360" y="963" on="0"/>
        <pt x="404" y="835" on="0"/>
        <pt x="458" y="676" on="0"/>
        <pt x="516" y="502" on="0"/>
        <pt x="568" y="345" on="0"/>
        <pt x="607" y="219" on="0"/>
        <pt x="614" y="189" on="1"/>
        <pt x="619" y="212" on="0"/>
        <pt x="644" y="295" on="0"/>
        <pt x="678" y="402" on="0"/>
        <pt x="719" y="526" on="0"/>
        <pt x="762" y="654" on="0"/>
        <pt x="804" y="778" on="0"/>
        <pt x="840" y="886" on="0"/>
        <pt x="869" y="971" on="0"/>
        <pt x="877" y="995" on="1"/>
        <pt x="1026" y="1441" on="1"/>
        <pt x="1200" y="1441" on="1"/>
        <pt x="998" y="849" on="1"/>
        <pt x="932" y="657" on="0"/>
        <pt x="831" y="370" on="0"/>
        <pt x="758" y="166" on="0"/>
        <pt x="709" y="36" on="0"/>
        <pt x="696" y="0" on="1"/>
      </contour>
    </TTGlyph>
    <TTGlyph name="W" xMin="38" yMin="0" xMax="1752" yMax="1441">
      <contour>
        <pt x="573" y="476" on="1"/>
        <pt x="757" y="1251" on="1"/>
        <pt x="809" y="1441" on="1"/>
        <pt x="979" y="1441" on="1"/>
        <pt x="1030" y="1251" on="1"/>
        <pt x="1214" y="474" on="1"/>
        <pt x="1272" y="193" on="1"/>
        <pt x="1333" y="476" on="1"/>
        <pt x="1588" y="1441" on="1"/>
        <pt x="1752" y="1441" on="1"/>
        <pt x="1360" y="0" on="1"/>
        <pt x="1187" y="0" on="1"/>
        <pt x="950" y="987" on="1"/>
        <pt x="894" y="1258" on="1"/>
        <pt x="839" y="987" on="1"/>
        <pt x="601" y="0" on="1"/>
        <pt x="429" y="0" on="1"/>
        <pt x="38" y="1441" on="1"/>
        <pt x="203" y="1441" on="1"/>
        <pt x="455" y="478" on="1"/>
        <pt x="517" y="194" on="1"/>
      </contour>
    </TTGlyph>
    <TTGlyph name="X" xMin="46" yMin="0" xMax="1152" yMax="1441">
      <contour>
        <pt x="350" y="973" on="1"/>
        <pt x="59" y="1441" on="1"/>
        <pt x="257" y="1441" on="1"/>
        <pt x="278" y="1405" on="0"/>
        <pt x="329" y="1319" on="0"/>
        <pt x="385" y="1225" on="0"/>
        <pt x="442" y="1130" on="0"/>
        <pt x="468" y="1085" on="1"/>
        <pt x="530" y="980" on="0"/>
        <pt x="594" y="871" on="1"/>
        <pt x="927" y="1441" on="1"/>
        <pt x="1121" y="1441" on="1"/>
        <pt x="837" y="975" on="1"/>
        <pt x="691" y="747" on="1"/>
        <pt x="848" y="500" on="1"/>
        <pt x="1152" y="0" on="1"/>
        <pt x="953" y="0" on="1"/>
        <pt x="594" y="614" on="1"/>
        <pt x="243" y="0" on="1"/>
        <pt x="46" y="0" on="1"/>
        <pt x="346" y="498" on="1"/>
        <pt x="499" y="745" on="1"/>
      </contour>
    </TTGlyph>
    <TTGlyph name="Y" xMin="-4" yMin="0" xMax="1152" yMax="1441">
      <contour>
        <pt x="483" y="599" on="1"/>
        <pt x="384" y="764" on="0"/>
        <pt x="292" y="921" on="1"/>
        <pt x="253" y="988" on="0"/>
        <pt x="170" y="1130" on="0"/>
        <pt x="92" y="1267" on="0"/>
        <pt x="22" y="1391" on="0"/>
        <pt x="-4" y="1441" on="1"/>
        <pt x="182" y="1441" on="1"/>
        <pt x="199" y="1409" on="0"/>
        <pt x="244" y="1327" on="0"/>
        <pt x="295" y="1235" on="0"/>
        <pt x="348" y="1138" on="0"/>
        <pt x="374" y="1093" on="1"/>
        <pt x="434" y="987" on="0"/>
        <pt x="499" y="872" on="1"/>
        <pt x="572" y="740" on="1"/>
        <pt x="644" y="872" on="1"/>
        <pt x="708" y="987" on="0"/>
        <pt x="769" y="1093" on="1"/>
        <pt x="794" y="1138" on="0"/>
        <pt x="849" y="1235" on="0"/>
        <pt x="901" y="1327" on="0"/>
        <pt x="947" y="1409" on="0"/>
        <pt x="964" y="1441" on="1"/>
        <pt x="1152" y="1441" on="1"/>
        <pt x="1125" y="1392" on="0"/>
        <pt x="1054" y="1267" on="0"/>
        <pt x="974" y="1131" on="0"/>
        <pt x="891" y="989" on="0"/>
        <pt x="851" y="923" on="1"/>
        <pt x="758" y="767" on="0"/>
        <pt x="657" y="602" on="1"/>
        <pt x="657" y="0" on="1"/>
        <pt x="483" y="0" on="1"/>
      </contour>
    </TTGlyph>
    <TTGlyph name="Yacute" xMin="-4" yMin="0" xMax="1152" yMax="2020">
      <component glyphName="Y" x="0" y="0" flags="0x1204"/>
      <component glyphName="acute" x="180" y="430" flags="0x1004"/>
    </TTGlyph>
    <TTGlyph name="Ydieresis" xMin="-4" yMin="0" xMax="1152" yMax="1870">
      <component glyphName="Y" x="0" y="0" flags="0x1204"/>
      <component glyphName="dieresis" x="224" y="430" flags="0x1004"/>
    </TTGlyph>
    <TTGlyph name="Z" xMin="48" yMin="0" xMax="1095" yMax="1441">
      <contour>
        <pt x="152" y="1441" on="1"/>
        <pt x="1049" y="1441" on="1"/>
        <pt x="1070" y="1275" on="1"/>
        <pt x="1050" y="1249" on="0"/>
        <pt x="980" y="1152" on="0"/>
        <pt x="888" y="1021" on="0"/>
        <pt x="778" y="865" on="0"/>
        <pt x="661" y="697" on="0"/>
        <pt x="540" y="523" on="0"/>
        <pt x="425" y="357" on="0"/>
        <pt x="320" y="205" on="0"/>
        <pt x="277" y="144" on="1"/>
        <pt x="1095" y="144" on="1"/>
        <pt x="1095" y="0" on="1"/>
        <pt x="88" y="0" on="1"/>
        <pt x="48" y="102" on="1"/>
        <pt x="112" y="188" on="0"/>
        <pt x="267" y="401" on="0"/>
        <pt x="430" y="630" on="0"/>
        <pt x="594" y="861" on="0"/>
        <pt x="739" y="1069" on="0"/>
        <pt x="859" y="1241" on="0"/>
        <pt x="897" y="1297" on="1"/>
        <pt x="152" y="1297" on="1"/>
      </contour>
    </TTGlyph>
    <TTGlyph name="Zcaron" xMin="48" yMin="0" xMax="1095" yMax="1902">
      <component glyphName="Z" x="0" y="0" flags="0x1204"/>
      <component glyphName="caron" x="269" y="430" flags="0x1004"/>
    </TTGlyph>
    <TTGlyph name="a" xMin="99" yMin="-25" xMax="992" yMax="1035">
      <contour>
        <pt x="262" y="750" on="1"/>
        <pt x="134" y="798" on="1"/>
        <pt x="143" y="844" on="0"/>
        <pt x="169" y="907" on="0"/>
        <pt x="205" y="950" on="0"/>
        <pt x="251" y="979" on="0"/>
        <pt x="279" y="992" on="1"/>
        <pt x="320" y="1011" on="0"/>
        <pt x="445" y="1035" on="0"/>
        <pt x="539" y="1035" on="1"/>
        <pt x="631" y="1035" on="0"/>
        <pt x="758" y="1011" on="0"/>
        <pt x="839" y="976" on="0"/>
        <pt x="881" y="937" on="0"/>
        <pt x="889" y="922" on="1"/>
        <pt x="896" y="908" on="0"/>
        <pt x="911" y="863" on="0"/>
        <pt x="923" y="788" on="0"/>
        <pt x="931" y="674" on="0"/>
        <pt x="931" y="591" on="1"/>
        <pt x="931" y="211" on="1"/>
        <pt x="931" y="172" on="0"/>
        <pt x="935" y="127" on="0"/>
        <pt x="947" y="105" on="0"/>
        <pt x="971" y="99" on="0"/>
        <pt x="992" y="99" on="1"/>
        <pt x="992" y="-15" on="1"/>
        <pt x="972" y="-21" on="0"/>
        <pt x="940" y="-25" on="0"/>
        <pt x="922" y="-25" on="1"/>
        <pt x="883" y="-20" on="0"/>
        <pt x="834" y="11" on="0"/>
        <pt x="808" y="52" on="0"/>
        <pt x="799" y="98" on="0"/>
        <pt x="799" y="118" on="1"/>
        <pt x="786" y="101" on="0"/>
        <pt x="731" y="53" on="0"/>
        <pt x="646" y="8" on="0"/>
        <pt x="527" y="-23" on="0"/>
        <pt x="450" y="-23" on="1"/>
        <pt x="384" y="-23" on="0"/>
        <pt x="284" y="-4" on="0"/>
        <pt x="213" y="25" on="0"/>
        <pt x="168" y="59" on="0"/>
        <pt x="157" y="73" on="1"/>
        <pt x="149" y="83" on="0"/>
        <pt x="129" y="119" on="0"/>
        <pt x="111" y="171" on="0"/>
        <pt x="99" y="239" on="0"/>
        <pt x="99" y="282" on="1"/>
        <pt x="99" y="333" on="0"/>
        <pt x="111" y="403" on="0"/>
        <pt x="128" y="452" on="0"/>
        <pt x="148" y="482" on="0"/>
        <pt x="156" y="492" on="1"/>
        <pt x="169" y="508" on="0"/>
        <pt x="222" y="547" on="0"/>
        <pt x="312" y="582" on="0"/>
        <pt x="443" y="609" on="0"/>
        <pt x="534" y="613" on="1"/>
        <pt x="579" y="615" on="0"/>
        <pt x="648" y="615" on="0"/>
        <pt x="705" y="617" on="0"/>
        <pt x="754" y="621" on="0"/>
        <pt x="778" y="627" on="1"/>
        <pt x="778" y="703" on="0"/>
        <pt x="770" y="796" on="0"/>
        <pt x="756" y="847" on="0"/>
        <pt x="738" y="867" on="0"/>
        <pt x="728" y="872" on="1"/>
        <pt x="722" y="875" on="0"/>
        <pt x="699" y="887" on="0"/>
        <pt x="657" y="900" on="0"/>
        <pt x="590" y="909" on="0"/>
        <pt x="541" y="909" on="1"/>
        <pt x="473" y="909" on="0"/>
        <pt x="391" y="899" on="0"/>
        <pt x="368" y="893" on="1"/>
        <pt x="342" y="886" on="0"/>
        <pt x="331" y="878" on="1"/>
        <pt x="316" y="869" on="0"/>
        <pt x="303" y="851" on="1"/>
        <pt x="292" y="836" on="0"/>
        <pt x="268" y="787" on="0"/>
      </contour>
      <contour>
        <pt x="778" y="295" on="1"/>
        <pt x="778" y="515" on="1"/>
        <pt x="760" y="509" on="0"/>
        <pt x="721" y="504" on="0"/>
        <pt x="669" y="500" on="0"/>
        <pt x="596" y="498" on="0"/>
        <pt x="545" y="495" on="1"/>
        <pt x="479" y="490" on="0"/>
        <pt x="388" y="473" on="0"/>
        <pt x="328" y="452" on="0"/>
        <pt x="294" y="429" on="0"/>
        <pt x="285" y="418" on="1"/>
        <pt x="273" y="404" on="0"/>
        <pt x="256" y="339" on="0"/>
        <pt x="256" y="285" on="1"/>
        <pt x="256" y="235" on="0"/>
        <pt x="271" y="171" on="0"/>
        <pt x="279" y="159" on="1"/>
        <pt x="285" y="149" on="0"/>
        <pt x="307" y="128" on="0"/>
        <pt x="352" y="110" on="0"/>
        <pt x="427" y="99" on="0"/>
        <pt x="487" y="99" on="1"/>
        <pt x="557" y="99" on="0"/>
        <pt x="665" y="131" on="0"/>
        <pt x="739" y="185" on="0"/>
        <pt x="778" y="256" on="0"/>
      </contour>
    </TTGlyph>
    <TTGlyph name="aacute" xMin="99" yMin="-25" xMax="992" yMax="1590">
      <component glyphName="a" x="0" y="0" flags="0x1204"/>
      <component glyphName="acute" x="162" y="0" flags="0x1004"/>
    </TTGlyph>
    <TTGlyph name="acircumflex" xMin="99" yMin="-25" xMax="992" yMax="1472">
      <component glyphName="a" x="0" y="0" flags="0x1204"/>
      <component glyphName="circumflex" x="229" y="0" flags="0x1004"/>
    </TTGlyph>
    <TTGlyph name="acute" xMin="187" yMin="1180" xMax="599" yMax="1590">
      <contour>
        <pt x="187" y="1212" on="1"/>
        <pt x="426" y="1590" on="1"/>
        <pt x="599" y="1516" on="1"/>
        <pt x="281" y="1180" on="1"/>
      </contour>
    </TTGlyph>
    <TTGlyph name="adieresis" xMin="99" yMin="-25" xMax="992" yMax="1440">
      <component glyphName="a" x="0" y="0" flags="0x1204"/>
      <component glyphName="dieresis" x="209" y="0" flags="0x1004"/>
    </TTGlyph>
    <TTGlyph name="ae" xMin="99" yMin="-25" xMax="1623" yMax="1035">
      <contour>
        <pt x="262" y="750" on="1"/>
        <pt x="134" y="798" on="1"/>
        <pt x="143" y="844" on="0"/>
        <pt x="169" y="907" on="0"/>
        <pt x="205" y="950" on="0"/>
        <pt x="251" y="979" on="0"/>
        <pt x="279" y="992" on="1"/>
        <pt x="320" y="1011" on="0"/>
        <pt x="445" y="1035" on="0"/>
        <pt x="539" y="1035" on="1"/>
        <pt x="626" y="1035" on="0"/>
        <pt x="746" y="1006" on="0"/>
        <pt x="822" y="965" on="0"/>
        <pt x="862" y="919" on="0"/>
        <pt x="869" y="902" on="1"/>
        <pt x="871" y="896" on="1"/>
        <pt x="872" y="897" on="1"/>
        <pt x="888" y="918" on="0"/>
        <pt x="942" y="966" on="0"/>
        <pt x="1026" y="1007" on="0"/>
        <pt x="1141" y="1034" on="0"/>
        <pt x="1218" y="1034" on="1"/>
        <pt x="1297" y="1034" on="0"/>
        <pt x="1409" y="1007" on="0"/>
        <pt x="1485" y="966" on="0"/>
        <pt x="1532" y="919" on="0"/>
        <pt x="1546" y="898" on="1"/>
        <pt x="1557" y="883" on="0"/>
        <pt x="1583" y="834" on="0"/>
        <pt x="1607" y="760" on="0"/>
        <pt x="1623" y="658" on="0"/>
        <pt x="1623" y="591" on="1"/>
        <pt x="1623" y="586" on="0"/>
        <pt x="1622" y="555" on="0"/>
        <pt x="1622" y="520" on="0"/>
        <pt x="1621" y="487" on="0"/>
        <pt x="1621" y="480" on="1"/>
        <pt x="934" y="480" on="1"/>
        <pt x="934" y="369" on="0"/>
        <pt x="972" y="231" on="0"/>
        <pt x="995" y="193" on="1"/>
        <pt x="1022" y="148" on="0"/>
        <pt x="1057" y="129" on="1"/>
        <pt x="1071" y="120" on="0"/>
        <pt x="1094" y="113" on="1"/>
        <pt x="1114" y="107" on="0"/>
        <pt x="1178" y="97" on="0"/>
        <pt x="1226" y="97" on="1"/>
        <pt x="1272" y="97" on="0"/>
        <pt x="1336" y="107" on="0"/>
        <pt x="1380" y="122" on="0"/>
        <pt x="1407" y="137" on="0"/>
        <pt x="1415" y="143" on="1"/>
        <pt x="1442" y="161" on="0"/>
        <pt x="1476" y="236" on="0"/>
        <pt x="1489" y="307" on="1"/>
        <pt x="1613" y="273" on="1"/>
        <pt x="1605" y="225" on="0"/>
        <pt x="1585" y="160" on="0"/>
        <pt x="1565" y="119" on="0"/>
        <pt x="1546" y="97" on="0"/>
        <pt x="1540" y="90" on="1"/>
        <pt x="1525" y="71" on="0"/>
        <pt x="1474" y="31" on="0"/>
        <pt x="1398" y="-3" on="0"/>
        <pt x="1292" y="-25" on="0"/>
        <pt x="1222" y="-25" on="1"/>
        <pt x="1165" y="-25" on="0"/>
        <pt x="1054" y="-8" on="0"/>
        <pt x="956" y="32" on="0"/>
        <pt x="880" y="98" on="0"/>
        <pt x="858" y="147" on="1"/>
        <pt x="807" y="69" on="0"/>
        <pt x="602" y="-25" on="0"/>
        <pt x="450" y="-25" on="1"/>
        <pt x="384" y="-25" on="0"/>
        <pt x="284" y="-5" on="0"/>
        <pt x="213" y="25" on="0"/>
        <pt x="168" y="59" on="0"/>
        <pt x="157" y="73" on="1"/>
        <pt x="149" y="83" on="0"/>
        <pt x="129" y="119" on="0"/>
        <pt x="111" y="171" on="0"/>
        <pt x="99" y="239" on="0"/>
        <pt x="99" y="282" on="1"/>
        <pt x="99" y="333" on="0"/>
        <pt x="111" y="403" on="0"/>
        <pt x="128" y="452" on="0"/>
        <pt x="148" y="482" on="0"/>
        <pt x="156" y="492" on="1"/>
        <pt x="169" y="508" on="0"/>
        <pt x="222" y="547" on="0"/>
        <pt x="312" y="582" on="0"/>
        <pt x="443" y="609" on="0"/>
        <pt x="534" y="613" on="1"/>
        <pt x="579" y="615" on="0"/>
        <pt x="648" y="615" on="0"/>
        <pt x="705" y="617" on="0"/>
        <pt x="754" y="621" on="0"/>
        <pt x="778" y="627" on="1"/>
        <pt x="778" y="703" on="0"/>
        <pt x="770" y="796" on="0"/>
        <pt x="756" y="847" on="0"/>
        <pt x="738" y="867" on="0"/>
        <pt x="728" y="872" on="1"/>
        <pt x="722" y="875" on="0"/>
        <pt x="699" y="887" on="0"/>
        <pt x="657" y="900" on="0"/>
        <pt x="590" y="909" on="0"/>
        <pt x="541" y="909" on="1"/>
        <pt x="473" y="909" on="0"/>
        <pt x="391" y="899" on="0"/>
        <pt x="368" y="893" on="1"/>
        <pt x="342" y="886" on="0"/>
        <pt x="331" y="878" on="1"/>
        <pt x="316" y="869" on="0"/>
        <pt x="303" y="851" on="1"/>
        <pt x="292" y="836" on="0"/>
        <pt x="268" y="787" on="0"/>
      </contour>
      <contour>
        <pt x="778" y="295" on="1"/>
        <pt x="778" y="505" on="1"/>
        <pt x="778" y="515" on="1"/>
        <pt x="760" y="509" on="0"/>
        <pt x="721" y="504" on="0"/>
        <pt x="669" y="500" on="0"/>
        <pt x="596" y="498" on="0"/>
        <pt x="545" y="495" on="1"/>
        <pt x="479" y="490" on="0"/>
        <pt x="388" y="473" on="0"/>
        <pt x="328" y="452" on="0"/>
        <pt x="294" y="429" on="0"/>
        <pt x="285" y="418" on="1"/>
        <pt x="273" y="404" on="0"/>
        <pt x="256" y="339" on="0"/>
        <pt x="256" y="285" on="1"/>
        <pt x="256" y="235" on="0"/>
        <pt x="271" y="171" on="0"/>
        <pt x="279" y="159" on="1"/>
        <pt x="285" y="149" on="0"/>
        <pt x="307" y="128" on="0"/>
        <pt x="352" y="110" on="0"/>
        <pt x="427" y="99" on="0"/>
        <pt x="487" y="99" on="1"/>
        <pt x="557" y="99" on="0"/>
        <pt x="665" y="131" on="0"/>
        <pt x="739" y="185" on="0"/>
        <pt x="778" y="256" on="0"/>
      </contour>
      <contour>
        <pt x="936" y="594" on="1"/>
        <pt x="1389" y="594" on="1"/>
        <pt x="1468" y="588" on="1"/>
        <pt x="1464" y="659" on="0"/>
        <pt x="1446" y="757" on="0"/>
        <pt x="1423" y="821" on="0"/>
        <pt x="1398" y="855" on="0"/>
        <pt x="1387" y="863" on="1"/>
        <pt x="1377" y="870" on="0"/>
        <pt x="1348" y="887" on="0"/>
        <pt x="1306" y="902" on="0"/>
        <pt x="1250" y="911" on="0"/>
        <pt x="1214" y="911" on="1"/>
        <pt x="1166" y="911" on="0"/>
        <pt x="1095" y="898" on="0"/>
        <pt x="1045" y="878" on="0"/>
        <pt x="1014" y="856" on="0"/>
        <pt x="1005" y="846" on="1"/>
        <pt x="996" y="836" on="0"/>
        <pt x="974" y="801" on="0"/>
        <pt x="954" y="741" on="0"/>
        <pt x="938" y="655" on="0"/>
      </contour>
    </TTGlyph>
    <TTGlyph name="agrave" xMin="99" yMin="-25" xMax="992" yMax="1590">
      <component glyphName="a" x="0" y="0" flags="0x1204"/>
      <component glyphName="grave" x="226" y="0" flags="0x1004"/>
    </TTGlyph>
    <TTGlyph name="ampersand" xMin="88" yMin="-21" xMax="1422" yMax="1472">
      <contour>
        <pt x="487" y="765" on="1"/>
        <pt x="424" y="742" on="0"/>
        <pt x="340" y="691" on="0"/>
        <pt x="290" y="617" on="0"/>
        <pt x="270" y="513" on="0"/>
        <pt x="270" y="438" on="1"/>
        <pt x="270" y="349" on="0"/>
        <pt x="289" y="224" on="0"/>
        <pt x="324" y="188" on="1"/>
        <pt x="344" y="168" on="0"/>
        <pt x="402" y="143" on="0"/>
        <pt x="479" y="129" on="0"/>
        <pt x="573" y="124" on="0"/>
        <pt x="630" y="124" on="1"/>
        <pt x="716" y="124" on="0"/>
        <pt x="827" y="132" on="0"/>
        <pt x="860" y="137" on="1"/>
        <pt x="899" y="143" on="0"/>
        <pt x="920" y="151" on="1"/>
        <pt x="939" y="163" on="0"/>
        <pt x="957" y="181" on="1"/>
        <pt x="971" y="197" on="0"/>
        <pt x="1000" y="248" on="0"/>
        <pt x="1006" y="285" on="1"/>
      </contour>
      <contour>
        <pt x="933" y="1124" on="1"/>
        <pt x="917" y="1164" on="0"/>
        <pt x="902" y="1198" on="1"/>
        <pt x="889" y="1227" on="0"/>
        <pt x="860" y="1282" on="0"/>
        <pt x="848" y="1293" on="1"/>
        <pt x="822" y="1314" on="0"/>
        <pt x="734" y="1331" on="0"/>
        <pt x="669" y="1332" on="1"/>
        <pt x="612" y="1332" on="0"/>
        <pt x="523" y="1306" on="0"/>
        <pt x="496" y="1268" on="1"/>
        <pt x="478" y="1244" on="0"/>
        <pt x="460" y="1175" on="0"/>
        <pt x="460" y="1125" on="1"/>
        <pt x="460" y="1076" on="0"/>
        <pt x="500" y="964" on="0"/>
        <pt x="554" y="911" on="1"/>
        <pt x="1052" y="429" on="1"/>
        <pt x="1065" y="496" on="0"/>
        <pt x="1074" y="610" on="0"/>
        <pt x="1079" y="653" on="1"/>
        <pt x="1212" y="622" on="1"/>
        <pt x="1209" y="584" on="0"/>
        <pt x="1201" y="505" on="0"/>
        <pt x="1191" y="429" on="0"/>
        <pt x="1178" y="358" on="0"/>
        <pt x="1170" y="330" on="1"/>
        <pt x="1422" y="113" on="1"/>
        <pt x="1337" y="3" on="1"/>
        <pt x="1330" y="11" on="0"/>
        <pt x="1305" y="34" on="1"/>
        <pt x="1283" y="53" on="0"/>
        <pt x="1197" y="126" on="0"/>
        <pt x="1121" y="188" on="1"/>
        <pt x="1110" y="146" on="0"/>
        <pt x="1067" y="86" on="0"/>
        <pt x="1046" y="66" on="1"/>
        <pt x="1021" y="43" on="0"/>
        <pt x="993" y="29" on="1"/>
        <pt x="964" y="15" on="0"/>
        <pt x="913" y="4" on="1"/>
        <pt x="869" y="-6" on="0"/>
        <pt x="726" y="-21" on="0"/>
        <pt x="620" y="-21" on="1"/>
        <pt x="548" y="-21" on="0"/>
        <pt x="417" y="-12" on="0"/>
        <pt x="304" y="12" on="0"/>
        <pt x="211" y="56" on="0"/>
        <pt x="177" y="92" on="1"/>
        <pt x="129" y="143" on="0"/>
        <pt x="88" y="304" on="0"/>
        <pt x="88" y="416" on="1"/>
        <pt x="88" y="527" on="0"/>
        <pt x="141" y="673" on="0"/>
        <pt x="229" y="772" on="0"/>
        <pt x="346" y="837" on="0"/>
        <pt x="410" y="865" on="1"/>
        <pt x="378" y="901" on="0"/>
        <pt x="332" y="963" on="0"/>
        <pt x="302" y="1024" on="0"/>
        <pt x="288" y="1090" on="0"/>
        <pt x="288" y="1131" on="1"/>
        <pt x="288" y="1299" on="0"/>
        <pt x="381" y="1385" on="1"/>
        <pt x="475" y="1472" on="0"/>
        <pt x="667" y="1472" on="1"/>
        <pt x="764" y="1472" on="0"/>
        <pt x="908" y="1446" on="0"/>
        <pt x="954" y="1404" on="1"/>
        <pt x="976" y="1387" on="0"/>
        <pt x="1016" y="1314" on="0"/>
        <pt x="1032" y="1277" on="1"/>
        <pt x="1050" y="1233" on="0"/>
        <pt x="1066" y="1184" on="1"/>
      </contour>
    </TTGlyph>
    <TTGlyph name="approxequal" xMin="147" yMin="237" xMax="1309" yMax="858">
      <contour>
        <pt x="1309" y="787" on="1"/>
        <pt x="1282" y="742" on="0"/>
        <pt x="1219" y="662" on="0"/>
        <pt x="1142" y="604" on="0"/>
        <pt x="1049" y="570" on="0"/>
        <pt x="993" y="570" on="1"/>
        <pt x="957" y="570" on="0"/>
        <pt x="894" y="582" on="0"/>
        <pt x="832" y="605" on="0"/>
        <pt x="766" y="637" on="0"/>
        <pt x="726" y="658" on="1"/>
        <pt x="726" y="657" on="1"/>
        <pt x="693" y="671" on="0"/>
        <pt x="632" y="704" on="0"/>
        <pt x="571" y="731" on="0"/>
        <pt x="506" y="749" on="0"/>
        <pt x="469" y="749" on="1"/>
        <pt x="427" y="749" on="0"/>
        <pt x="357" y="720" on="0"/>
        <pt x="297" y="670" on="0"/>
        <pt x="245" y="606" on="0"/>
        <pt x="221" y="572" on="1"/>
        <pt x="147" y="637" on="1"/>
        <pt x="206" y="740" on="0"/>
        <pt x="380" y="858" on="0"/>
        <pt x="486" y="858" on="1"/>
        <pt x="527" y="858" on="0"/>
        <pt x="602" y="838" on="0"/>
        <pt x="674" y="806" on="0"/>
        <pt x="745" y="767" on="0"/>
        <pt x="784" y="748" on="1"/>
        <pt x="810" y="735" on="0"/>
        <pt x="859" y="710" on="0"/>
        <pt x="909" y="691" on="0"/>
        <pt x="963" y="679" on="0"/>
        <pt x="995" y="679" on="1"/>
        <pt x="1032" y="679" on="0"/>
        <pt x="1097" y="699" on="0"/>
        <pt x="1155" y="742" on="0"/>
        <pt x="1209" y="808" on="0"/>
        <pt x="1237" y="853" on="1"/>
      </contour>
      <contour>
        <pt x="1309" y="454" on="1"/>
        <pt x="1282" y="409" on="0"/>
        <pt x="1219" y="329" on="0"/>
        <pt x="1143" y="271" on="0"/>
        <pt x="1050" y="237" on="0"/>
        <pt x="993" y="237" on="1"/>
        <pt x="954" y="237" on="0"/>
        <pt x="885" y="251" on="0"/>
        <pt x="816" y="278" on="0"/>
        <pt x="742" y="316" on="0"/>
        <pt x="699" y="339" on="1"/>
        <pt x="646" y="367" on="0"/>
        <pt x="530" y="415" on="0"/>
        <pt x="469" y="415" on="1"/>
        <pt x="425" y="415" on="0"/>
        <pt x="355" y="386" on="0"/>
        <pt x="296" y="338" on="0"/>
        <pt x="245" y="275" on="0"/>
        <pt x="221" y="241" on="1"/>
        <pt x="147" y="303" on="1"/>
        <pt x="206" y="407" on="0"/>
        <pt x="380" y="524" on="0"/>
        <pt x="484" y="524" on="1"/>
        <pt x="518" y="524" on="0"/>
        <pt x="586" y="507" on="0"/>
        <pt x="661" y="477" on="0"/>
        <pt x="745" y="435" on="0"/>
        <pt x="793" y="409" on="1"/>
        <pt x="818" y="396" on="0"/>
        <pt x="864" y="373" on="0"/>
        <pt x="913" y="356" on="0"/>
        <pt x="967" y="346" on="0"/>
        <pt x="999" y="346" on="1"/>
        <pt x="1036" y="346" on="0"/>
        <pt x="1099" y="367" on="0"/>
        <pt x="1156" y="410" on="0"/>
        <pt x="1209" y="476" on="0"/>
        <pt x="1237" y="521" on="1"/>
      </contour>
    </TTGlyph>
    <TTGlyph name="aring" xMin="99" yMin="-25" xMax="992" yMax="1471">
      <component glyphName="a" x="0" y="0" flags="0x1204"/>
      <component glyphName="ring" x="269" y="0" flags="0x1004"/>
    </TTGlyph>
    <TTGlyph name="asciicircum" xMin="102" yMin="575" xMax="1044" yMax="1452">
      <contour>
        <pt x="494" y="1452" on="1"/>
        <pt x="653" y="1452" on="1"/>
        <pt x="1044" y="596" on="1"/>
        <pt x="850" y="582" on="1"/>
        <pt x="659" y="1022" on="1"/>
        <pt x="573" y="1225" on="1"/>
        <pt x="489" y="1020" on="1"/>
        <pt x="293" y="575" on="1"/>
        <pt x="102" y="596" on="1"/>
      </contour>
    </TTGlyph>
    <TTGlyph name="asciitilde" xMin="116" yMin="466" xMax="1030" yMax="791">
      <contour>
        <pt x="116" y="547" on="1"/>
        <pt x="125" y="585" on="0"/>
        <pt x="159" y="671" on="0"/>
        <pt x="217" y="743" on="0"/>
        <pt x="300" y="791" on="0"/>
        <pt x="358" y="791" on="1"/>
        <pt x="397" y="791" on="0"/>
        <pt x="477" y="765" on="0"/>
        <pt x="556" y="727" on="0"/>
        <pt x="631" y="682" on="0"/>
        <pt x="701" y="644" on="0"/>
        <pt x="762" y="618" on="0"/>
        <pt x="787" y="618" on="1"/>
        <pt x="817" y="618" on="0"/>
        <pt x="858" y="638" on="0"/>
        <pt x="887" y="673" on="0"/>
        <pt x="908" y="721" on="0"/>
        <pt x="919" y="748" on="1"/>
        <pt x="1030" y="692" on="1"/>
        <pt x="1023" y="654" on="0"/>
        <pt x="988" y="574" on="0"/>
        <pt x="928" y="508" on="0"/>
        <pt x="841" y="466" on="0"/>
        <pt x="782" y="466" on="1"/>
        <pt x="746" y="466" on="0"/>
        <pt x="669" y="490" on="0"/>
        <pt x="590" y="526" on="0"/>
        <pt x="514" y="569" on="0"/>
        <pt x="444" y="605" on="0"/>
        <pt x="385" y="629" on="0"/>
        <pt x="364" y="629" on="1"/>
        <pt x="338" y="629" on="0"/>
        <pt x="298" y="609" on="0"/>
        <pt x="265" y="573" on="0"/>
        <pt x="239" y="524" on="0"/>
        <pt x="227" y="494" on="1"/>
      </contour>
    </TTGlyph>
    <TTGlyph name="asterisk" xMin="121" yMin="701" xMax="862" yMax="1447">
      <contour>
        <pt x="797" y="825" on="1"/>
        <pt x="539" y="997" on="1"/>
        <pt x="561" y="701" on="1"/>
        <pt x="428" y="701" on="1"/>
        <pt x="449" y="997" on="1"/>
        <pt x="186" y="825" on="1"/>
        <pt x="122" y="937" on="1"/>
        <pt x="418" y="1076" on="1"/>
        <pt x="121" y="1204" on="1"/>
        <pt x="186" y="1323" on="1"/>
        <pt x="449" y="1151" on="1"/>
        <pt x="428" y="1447" on="1"/>
        <pt x="561" y="1447" on="1"/>
        <pt x="539" y="1151" on="1"/>
        <pt x="797" y="1323" on="1"/>
        <pt x="862" y="1203" on="1"/>
        <pt x="575" y="1076" on="1"/>
        <pt x="862" y="945" on="1"/>
      </contour>
    </TTGlyph>
    <TTGlyph name="at" xMin="86" yMin="-179" xMax="1674" yMax="1379">
      <contour>
        <pt x="815" y="281" on="1"/>
        <pt x="863" y="281" on="0"/>
        <pt x="940" y="333" on="0"/>
        <pt x="999" y="419" on="0"/>
        <pt x="1042" y="531" on="0"/>
        <pt x="1056" y="591" on="1"/>
        <pt x="1063" y="623" on="0"/>
        <pt x="1082" y="715" on="0"/>
        <pt x="1091" y="757" on="1"/>
        <pt x="1102" y="806" on="0"/>
        <pt x="1112" y="858" on="1"/>
        <pt x="1113" y="858" on="0"/>
        <pt x="1073" y="870" on="0"/>
        <pt x="1013" y="885" on="0"/>
        <pt x="944" y="897" on="0"/>
        <pt x="917" y="897" on="1"/>
        <pt x="840" y="897" on="0"/>
        <pt x="733" y="831" on="0"/>
        <pt x="667" y="722" on="0"/>
        <pt x="637" y="580" on="0"/>
        <pt x="637" y="504" on="1"/>
        <pt x="637" y="461" on="0"/>
        <pt x="661" y="380" on="0"/>
        <pt x="706" y="318" on="0"/>
        <pt x="772" y="281" on="0"/>
      </contour>
      <contour>
        <pt x="1206" y="492" on="1"/>
        <pt x="1201" y="465" on="0"/>
        <pt x="1204" y="394" on="0"/>
        <pt x="1226" y="332" on="0"/>
        <pt x="1273" y="289" on="0"/>
        <pt x="1313" y="289" on="1"/>
        <pt x="1365" y="289" on="0"/>
        <pt x="1447" y="367" on="0"/>
        <pt x="1503" y="489" on="0"/>
        <pt x="1532" y="636" on="0"/>
        <pt x="1532" y="705" on="1"/>
        <pt x="1532" y="837" on="0"/>
        <pt x="1430" y="1036" on="0"/>
        <pt x="1263" y="1171" on="0"/>
        <pt x="1048" y="1239" on="0"/>
        <pt x="934" y="1239" on="1"/>
        <pt x="845" y="1239" on="0"/>
        <pt x="671" y="1194" on="0"/>
        <pt x="515" y="1109" on="0"/>
        <pt x="382" y="987" on="0"/>
        <pt x="285" y="834" on="0"/>
        <pt x="231" y="652" on="0"/>
        <pt x="231" y="550" on="1"/>
        <pt x="231" y="428" on="0"/>
        <pt x="303" y="214" on="0"/>
        <pt x="456" y="53" on="0"/>
        <pt x="691" y="-40" on="0"/>
        <pt x="855" y="-40" on="1"/>
        <pt x="947" y="-40" on="0"/>
        <pt x="1114" y="1" on="0"/>
        <pt x="1186" y="27" on="1"/>
        <pt x="1241" y="-96" on="1"/>
        <pt x="1150" y="-133" on="0"/>
        <pt x="946" y="-179" on="0"/>
        <pt x="834" y="-179" on="1"/>
        <pt x="747" y="-179" on="0"/>
        <pt x="569" y="-143" on="0"/>
        <pt x="403" y="-69" on="0"/>
        <pt x="257" y="46" on="0"/>
        <pt x="149" y="205" on="0"/>
        <pt x="86" y="409" on="0"/>
        <pt x="86" y="536" on="1"/>
        <pt x="86" y="663" on="0"/>
        <pt x="153" y="886" on="0"/>
        <pt x="271" y="1074" on="0"/>
        <pt x="433" y="1222" on="0"/>
        <pt x="624" y="1325" on="0"/>
        <pt x="835" y="1379" on="0"/>
        <pt x="944" y="1379" on="1"/>
        <pt x="1034" y="1379" on="0"/>
        <pt x="1213" y="1342" on="0"/>
        <pt x="1375" y="1269" on="0"/>
        <pt x="1514" y="1159" on="0"/>
        <pt x="1616" y="1012" on="0"/>
        <pt x="1674" y="829" on="0"/>
        <pt x="1674" y="720" on="1"/>
        <pt x="1674" y="608" on="0"/>
        <pt x="1615" y="405" on="0"/>
        <pt x="1513" y="252" on="0"/>
        <pt x="1373" y="161" on="0"/>
        <pt x="1292" y="161" on="1"/>
        <pt x="1250" y="161" on="0"/>
        <pt x="1172" y="192" on="0"/>
        <pt x="1112" y="256" on="0"/>
        <pt x="1076" y="354" on="0"/>
        <pt x="1076" y="422" on="1"/>
        <pt x="1055" y="360" on="0"/>
        <pt x="999" y="261" on="0"/>
        <pt x="927" y="191" on="0"/>
        <pt x="836" y="153" on="0"/>
        <pt x="778" y="153" on="1"/>
        <pt x="702" y="153" on="0"/>
        <pt x="586" y="211" on="0"/>
        <pt x="507" y="314" on="0"/>
        <pt x="467" y="457" on="0"/>
        <pt x="467" y="542" on="1"/>
        <pt x="467" y="641" on="0"/>
        <pt x="532" y="818" on="0"/>
        <pt x="648" y="951" on="0"/>
        <pt x="807" y="1028" on="0"/>
        <pt x="901" y="1028" on="1"/>
        <pt x="973" y="1028" on="0"/>
        <pt x="1096" y="977" on="0"/>
        <pt x="1144" y="932" on="1"/>
        <pt x="1161" y="970" on="0"/>
        <pt x="1192" y="996" on="0"/>
        <pt x="1209" y="996" on="1"/>
        <pt x="1221" y="996" on="0"/>
        <pt x="1248" y="994" on="0"/>
        <pt x="1259" y="992" on="1"/>
        <pt x="1272" y="990" on="0"/>
        <pt x="1286" y="989" on="1"/>
      </contour>
    </TTGlyph>
    <TTGlyph name="atilde" xMin="99" yMin="-25" xMax="992" yMax="1441">
      <component glyphName="a" x="0" y="0" flags="0x1204"/>
      <component glyphName="tilde" x="113" y="0" flags="0x1004"/>
    </TTGlyph>
    <TTGlyph name="b" xMin="158" yMin="-23" xMax="1047" yMax="1441">
      <contour>
        <pt x="609" y="908" on="1"/>
        <pt x="549" y="908" on="0"/>
        <pt x="468" y="893" on="0"/>
        <pt x="414" y="872" on="0"/>
        <pt x="382" y="845" on="0"/>
        <pt x="373" y="833" on="1"/>
        <pt x="363" y="820" on="0"/>
        <pt x="341" y="779" on="0"/>
        <pt x="323" y="706" on="0"/>
        <pt x="311" y="595" on="0"/>
        <pt x="311" y="512" on="1"/>
        <pt x="311" y="432" on="0"/>
        <pt x="322" y="315" on="0"/>
        <pt x="337" y="235" on="0"/>
        <pt x="355" y="188" on="0"/>
        <pt x="363" y="179" on="1"/>
        <pt x="374" y="164" on="0"/>
        <pt x="409" y="136" on="0"/>
        <pt x="465" y="114" on="0"/>
        <pt x="548" y="100" on="0"/>
        <pt x="608" y="100" on="1"/>
        <pt x="665" y="100" on="0"/>
        <pt x="744" y="114" on="0"/>
        <pt x="796" y="137" on="0"/>
        <pt x="826" y="164" on="0"/>
        <pt x="834" y="176" on="1"/>
        <pt x="843" y="188" on="0"/>
        <pt x="863" y="229" on="0"/>
        <pt x="880" y="302" on="0"/>
        <pt x="891" y="414" on="0"/>
        <pt x="891" y="498" on="1"/>
        <pt x="891" y="585" on="0"/>
        <pt x="880" y="702" on="0"/>
        <pt x="863" y="778" on="0"/>
        <pt x="844" y="821" on="0"/>
        <pt x="836" y="834" on="1"/>
        <pt x="828" y="847" on="0"/>
        <pt x="798" y="873" on="0"/>
        <pt x="746" y="894" on="0"/>
        <pt x="667" y="908" on="0"/>
      </contour>
      <contour>
        <pt x="158" y="1441" on="1"/>
        <pt x="312" y="1441" on="1"/>
        <pt x="312" y="844" on="1"/>
        <pt x="330" y="874" on="0"/>
        <pt x="379" y="940" on="0"/>
        <pt x="456" y="995" on="0"/>
        <pt x="567" y="1031" on="0"/>
        <pt x="646" y="1031" on="1"/>
        <pt x="715" y="1031" on="0"/>
        <pt x="818" y="1009" on="0"/>
        <pt x="890" y="977" on="0"/>
        <pt x="936" y="943" on="0"/>
        <pt x="949" y="930" on="1"/>
        <pt x="966" y="913" on="0"/>
        <pt x="1001" y="854" on="0"/>
        <pt x="1029" y="755" on="0"/>
        <pt x="1047" y="610" on="0"/>
        <pt x="1047" y="506" on="1"/>
        <pt x="1047" y="410" on="0"/>
        <pt x="1032" y="279" on="0"/>
        <pt x="1011" y="192" on="0"/>
        <pt x="987" y="140" on="0"/>
        <pt x="977" y="123" on="1"/>
        <pt x="964" y="100" on="0"/>
        <pt x="913" y="48" on="0"/>
        <pt x="833" y="5" on="0"/>
        <pt x="720" y="-23" on="0"/>
        <pt x="645" y="-23" on="1"/>
        <pt x="555" y="-23" on="0"/>
        <pt x="431" y="19" on="0"/>
        <pt x="350" y="78" on="0"/>
        <pt x="306" y="139" on="0"/>
        <pt x="296" y="157" on="1"/>
        <pt x="277" y="0" on="1"/>
        <pt x="158" y="0" on="1"/>
      </contour>
    </TTGlyph>
    <TTGlyph name="backslash" xMin="100" yMin="-121" xMax="577" yMax="1509">
      <contour>
        <pt x="100" y="1479" on="1"/>
        <pt x="206" y="1509" on="1"/>
        <pt x="577" y="-92" on="1"/>
        <pt x="468" y="-121" on="1"/>
      </contour>
    </TTGlyph>
    <TTGlyph name="bar" xMin="162" yMin="-301" xMax="338" yMax="1536">
      <contour>
        <pt x="162" y="1536" on="1"/>
        <pt x="338" y="1536" on="1"/>
        <pt x="338" y="-301" on="1"/>
        <pt x="162" y="-301" on="1"/>
      </contour>
    </TTGlyph>
    <TTGlyph name="braceleft" xMin="60" yMin="-250" xMax="503" yMax="1528">
      <contour>
        <pt x="210" y="639" on="1"/>
        <pt x="246" y="616" on="0"/>
        <pt x="303" y="565" on="0"/>
        <pt x="326" y="532" on="1"/>
        <pt x="330" y="522" on="0"/>
        <pt x="338" y="474" on="0"/>
        <pt x="343" y="403" on="0"/>
        <pt x="347" y="315" on="0"/>
        <pt x="349" y="264" on="1"/>
        <pt x="352" y="171" on="0"/>
        <pt x="364" y="19" on="0"/>
        <pt x="396" y="-90" on="0"/>
        <pt x="454" y="-150" on="0"/>
        <pt x="503" y="-150" on="1"/>
        <pt x="478" y="-250" on="1"/>
        <pt x="398" y="-250" on="0"/>
        <pt x="299" y="-202" on="0"/>
        <pt x="241" y="-102" on="0"/>
        <pt x="215" y="52" on="0"/>
        <pt x="208" y="157" on="1"/>
        <pt x="203" y="242" on="0"/>
        <pt x="190" y="420" on="0"/>
        <pt x="173" y="508" on="1"/>
        <pt x="150" y="531" on="0"/>
        <pt x="94" y="568" on="0"/>
        <pt x="60" y="581" on="1"/>
        <pt x="60" y="697" on="1"/>
        <pt x="94" y="710" on="0"/>
        <pt x="150" y="747" on="0"/>
        <pt x="173" y="770" on="1"/>
        <pt x="190" y="858" on="0"/>
        <pt x="203" y="1036" on="0"/>
        <pt x="208" y="1121" on="1"/>
        <pt x="215" y="1226" on="0"/>
        <pt x="241" y="1380" on="0"/>
        <pt x="299" y="1480" on="0"/>
        <pt x="398" y="1528" on="0"/>
        <pt x="478" y="1528" on="1"/>
        <pt x="503" y="1428" on="1"/>
        <pt x="454" y="1428" on="0"/>
        <pt x="396" y="1368" on="0"/>
        <pt x="364" y="1259" on="0"/>
        <pt x="352" y="1107" on="0"/>
        <pt x="349" y="1014" on="1"/>
        <pt x="347" y="963" on="0"/>
        <pt x="343" y="875" on="0"/>
        <pt x="338" y="804" on="0"/>
        <pt x="330" y="756" on="0"/>
        <pt x="326" y="746" on="1"/>
        <pt x="303" y="713" on="0"/>
        <pt x="246" y="662" on="0"/>
      </contour>
    </TTGlyph>
    <TTGlyph name="braceright" xMin="71" yMin="-250" xMax="514" yMax="1528">
      <contour>
        <pt x="364" y="639" on="1"/>
        <pt x="328" y="662" on="0"/>
        <pt x="271" y="713" on="0"/>
        <pt x="248" y="746" on="1"/>
        <pt x="243" y="756" on="0"/>
        <pt x="236" y="804" on="0"/>
        <pt x="231" y="875" on="0"/>
        <pt x="226" y="963" on="0"/>
        <pt x="225" y="1014" on="1"/>
        <pt x="222" y="1107" on="0"/>
        <pt x="210" y="1259" on="0"/>
        <pt x="178" y="1368" on="0"/>
        <pt x="120" y="1428" on="0"/>
        <pt x="71" y="1428" on="1"/>
        <pt x="96" y="1528" on="1"/>
        <pt x="175" y="1528" on="0"/>
        <pt x="275" y="1480" on="0"/>
        <pt x="333" y="1380" on="0"/>
        <pt x="359" y="1226" on="0"/>
        <pt x="366" y="1121" on="1"/>
        <pt x="371" y="1036" on="0"/>
        <pt x="384" y="858" on="0"/>
        <pt x="401" y="770" on="1"/>
        <pt x="424" y="747" on="0"/>
        <pt x="480" y="710" on="0"/>
        <pt x="514" y="697" on="1"/>
        <pt x="514" y="581" on="1"/>
        <pt x="480" y="568" on="0"/>
        <pt x="424" y="531" on="0"/>
        <pt x="401" y="508" on="1"/>
        <pt x="384" y="420" on="0"/>
        <pt x="371" y="242" on="0"/>
        <pt x="366" y="157" on="1"/>
        <pt x="359" y="52" on="0"/>
        <pt x="333" y="-102" on="0"/>
        <pt x="275" y="-202" on="0"/>
        <pt x="175" y="-250" on="0"/>
        <pt x="96" y="-250" on="1"/>
        <pt x="71" y="-150" on="1"/>
        <pt x="120" y="-150" on="0"/>
        <pt x="178" y="-90" on="0"/>
        <pt x="210" y="19" on="0"/>
        <pt x="222" y="171" on="0"/>
        <pt x="225" y="264" on="1"/>
        <pt x="226" y="315" on="0"/>
        <pt x="231" y="403" on="0"/>
        <pt x="236" y="474" on="0"/>
        <pt x="243" y="522" on="0"/>
        <pt x="248" y="532" on="1"/>
        <pt x="271" y="565" on="0"/>
        <pt x="328" y="616" on="0"/>
      </contour>
    </TTGlyph>
    <TTGlyph name="bracketleft" xMin="164" yMin="-218" xMax="552" yMax="1519">
      <contour>
        <pt x="164" y="1519" on="1"/>
        <pt x="552" y="1519" on="1"/>
        <pt x="552" y="1412" on="1"/>
        <pt x="307" y="1412" on="1"/>
        <pt x="325" y="1195" on="1"/>
        <pt x="325" y="138" on="1"/>
        <pt x="307" y="-113" on="1"/>
        <pt x="552" y="-113" on="1"/>
        <pt x="552" y="-218" on="1"/>
        <pt x="164" y="-218" on="1"/>
      </contour>
    </TTGlyph>
    <TTGlyph name="bracketright" xMin="68" yMin="-218" xMax="455" yMax="1520">
      <contour>
        <pt x="68" y="1520" on="1"/>
        <pt x="455" y="1520" on="1"/>
        <pt x="455" y="-218" on="1"/>
        <pt x="68" y="-218" on="1"/>
        <pt x="68" y="-113" on="1"/>
        <pt x="312" y="-113" on="1"/>
        <pt x="295" y="149" on="1"/>
        <pt x="295" y="1185" on="1"/>
        <pt x="312" y="1413" on="1"/>
        <pt x="68" y="1413" on="1"/>
      </contour>
    </TTGlyph>
    <TTGlyph name="breve" xMin="154" yMin="1198" xMax="844" yMax="1509">
      <contour>
        <pt x="262" y="1509" on="1"/>
        <pt x="270" y="1467" on="0"/>
        <pt x="314" y="1396" on="0"/>
        <pt x="377" y="1344" on="0"/>
        <pt x="456" y="1315" on="0"/>
        <pt x="498" y="1315" on="1"/>
        <pt x="541" y="1315" on="0"/>
        <pt x="619" y="1344" on="0"/>
        <pt x="682" y="1396" on="0"/>
        <pt x="725" y="1467" on="0"/>
        <pt x="733" y="1509" on="1"/>
        <pt x="844" y="1509" on="1"/>
        <pt x="837" y="1444" on="0"/>
        <pt x="776" y="1330" on="0"/>
        <pt x="683" y="1246" on="0"/>
        <pt x="564" y="1198" on="0"/>
        <pt x="498" y="1198" on="1"/>
        <pt x="433" y="1198" on="0"/>
        <pt x="314" y="1246" on="0"/>
        <pt x="221" y="1330" on="0"/>
        <pt x="161" y="1444" on="0"/>
        <pt x="154" y="1509" on="1"/>
      </contour>
    </TTGlyph>
    <TTGlyph name="brokenbar" xMin="168" yMin="-162" xMax="377" yMax="1530">
      <contour>
        <pt x="168" y="766" on="1"/>
        <pt x="168" y="1530" on="1"/>
        <pt x="377" y="1530" on="1"/>
        <pt x="377" y="766" on="1"/>
      </contour>
      <contour>
        <pt x="168" y="-162" on="1"/>
        <pt x="168" y="600" on="1"/>
        <pt x="377" y="600" on="1"/>
        <pt x="377" y="-162" on="1"/>
      </contour>
    </TTGlyph>
    <TTGlyph name="bullet" xMin="103" yMin="302" xMax="752" yMax="922">
      <contour>
        <pt x="103" y="616" on="1"/>
        <pt x="103" y="677" on="0"/>
        <pt x="154" y="788" on="0"/>
        <pt x="241" y="872" on="0"/>
        <pt x="357" y="922" on="0"/>
        <pt x="423" y="922" on="1"/>
        <pt x="491" y="922" on="0"/>
        <pt x="611" y="871" on="0"/>
        <pt x="700" y="785" on="0"/>
        <pt x="752" y="671" on="0"/>
        <pt x="752" y="608" on="1"/>
        <pt x="752" y="543" on="0"/>
        <pt x="701" y="431" on="0"/>
        <pt x="613" y="349" on="0"/>
        <pt x="497" y="302" on="0"/>
        <pt x="432" y="302" on="1"/>
        <pt x="363" y="302" on="0"/>
        <pt x="242" y="353" on="0"/>
        <pt x="154" y="439" on="0"/>
        <pt x="103" y="553" on="0"/>
      </contour>
    </TTGlyph>
    <TTGlyph name="c" xMin="109" yMin="-23" xMax="974" yMax="1035">
      <contour>
        <pt x="974" y="269" on="1"/>
        <pt x="969" y="223" on="0"/>
        <pt x="952" y="158" on="0"/>
        <pt x="929" y="112" on="0"/>
        <pt x="905" y="83" on="0"/>
        <pt x="895" y="73" on="1"/>
        <pt x="883" y="61" on="0"/>
        <pt x="836" y="28" on="0"/>
        <pt x="759" y="-2" on="0"/>
        <pt x="650" y="-23" on="0"/>
        <pt x="575" y="-23" on="1"/>
        <pt x="497" y="-23" on="0"/>
        <pt x="377" y="2" on="0"/>
        <pt x="288" y="39" on="0"/>
        <pt x="230" y="82" on="0"/>
        <pt x="214" y="100" on="1"/>
        <pt x="198" y="118" on="0"/>
        <pt x="161" y="178" on="0"/>
        <pt x="130" y="274" on="0"/>
        <pt x="109" y="412" on="0"/>
        <pt x="109" y="509" on="1"/>
        <pt x="109" y="604" on="0"/>
        <pt x="130" y="740" on="0"/>
        <pt x="162" y="834" on="0"/>
        <pt x="199" y="893" on="0"/>
        <pt x="215" y="911" on="1"/>
        <pt x="231" y="929" on="0"/>
        <pt x="289" y="972" on="0"/>
        <pt x="378" y="1010" on="0"/>
        <pt x="498" y="1035" on="0"/>
        <pt x="576" y="1035" on="1"/>
        <pt x="649" y="1035" on="0"/>
        <pt x="756" y="1013" on="0"/>
        <pt x="831" y="983" on="0"/>
        <pt x="877" y="950" on="0"/>
        <pt x="889" y="938" on="1"/>
        <pt x="899" y="928" on="0"/>
        <pt x="922" y="898" on="0"/>
        <pt x="944" y="852" on="0"/>
        <pt x="963" y="786" on="0"/>
        <pt x="968" y="739" on="1"/>
        <pt x="842" y="704" on="1"/>
        <pt x="836" y="740" on="0"/>
        <pt x="824" y="789" on="0"/>
        <pt x="812" y="821" on="0"/>
        <pt x="800" y="840" on="0"/>
        <pt x="795" y="846" on="1"/>
        <pt x="785" y="857" on="0"/>
        <pt x="751" y="880" on="0"/>
        <pt x="698" y="898" on="0"/>
        <pt x="623" y="910" on="0"/>
        <pt x="572" y="910" on="1"/>
        <pt x="510" y="910" on="0"/>
        <pt x="425" y="895" on="0"/>
        <pt x="368" y="872" on="0"/>
        <pt x="334" y="844" on="0"/>
        <pt x="324" y="831" on="1"/>
        <pt x="314" y="818" on="0"/>
        <pt x="293" y="777" on="0"/>
        <pt x="276" y="705" on="0"/>
        <pt x="265" y="592" on="0"/>
        <pt x="265" y="507" on="1"/>
        <pt x="265" y="419" on="0"/>
        <pt x="277" y="303" on="0"/>
        <pt x="295" y="229" on="0"/>
        <pt x="317" y="188" on="0"/>
        <pt x="328" y="175" on="1"/>
        <pt x="338" y="161" on="0"/>
        <pt x="373" y="134" on="0"/>
        <pt x="431" y="111" on="0"/>
        <pt x="516" y="97" on="0"/>
        <pt x="577" y="97" on="1"/>
        <pt x="629" y="97" on="0"/>
        <pt x="705" y="109" on="0"/>
        <pt x="759" y="128" on="0"/>
        <pt x="793" y="151" on="0"/>
        <pt x="804" y="162" on="1"/>
        <pt x="810" y="168" on="0"/>
        <pt x="822" y="187" on="0"/>
        <pt x="834" y="219" on="0"/>
        <pt x="847" y="268" on="0"/>
        <pt x="853" y="304" on="1"/>
      </contour>
    </TTGlyph>
    <TTGlyph name="caron" xMin="76" yMin="1135" xMax="577" yMax="1472">
      <contour>
        <pt x="432" y="1472" on="1"/>
        <pt x="577" y="1472" on="1"/>
        <pt x="398" y="1135" on="1"/>
        <pt x="254" y="1135" on="1"/>
        <pt x="76" y="1472" on="1"/>
        <pt x="221" y="1472" on="1"/>
        <pt x="329" y="1195" on="1"/>
      </contour>
    </TTGlyph>
    <TTGlyph name="ccedilla" xMin="112" yMin="-393" xMax="977" yMax="1035">
      <component glyphName="c" x="3" y="0" flags="0x1004"/>
      <component glyphName="cedilla" x="254" y="0" flags="0x1004"/>
    </TTGlyph>
    <TTGlyph name="cedilla" xMin="104" yMin="-393" xMax="459" yMax="-1">
      <contour>
        <pt x="459" y="-236" on="1"/>
        <pt x="459" y="-270" on="0"/>
        <pt x="435" y="-328" on="0"/>
        <pt x="391" y="-370" on="0"/>
        <pt x="329" y="-393" on="0"/>
        <pt x="290" y="-393" on="1"/>
        <pt x="248" y="-393" on="0"/>
        <pt x="189" y="-382" on="0"/>
        <pt x="147" y="-364" on="0"/>
        <pt x="117" y="-340" on="0"/>
        <pt x="104" y="-327" on="1"/>
        <pt x="134" y="-268" on="1"/>
        <pt x="162" y="-291" on="0"/>
        <pt x="227" y="-310" on="0"/>
        <pt x="272" y="-310" on="1"/>
        <pt x="320" y="-310" on="0"/>
        <pt x="350" y="-274" on="0"/>
        <pt x="350" y="-247" on="1"/>
        <pt x="350" y="-212" on="0"/>
        <pt x="317" y="-184" on="0"/>
        <pt x="285" y="-184" on="1"/>
        <pt x="233" y="-184" on="1"/>
        <pt x="183" y="-123" on="1"/>
        <pt x="217" y="-1" on="1"/>
        <pt x="315" y="-1" on="1"/>
        <pt x="279" y="-120" on="1"/>
        <pt x="306" y="-120" on="0"/>
        <pt x="369" y="-127" on="0"/>
        <pt x="423" y="-151" on="0"/>
        <pt x="459" y="-197" on="0"/>
      </contour>
    </TTGlyph>
    <TTGlyph name="cent" xMin="80" yMin="-376" xMax="945" yMax="1328">
      <contour>
        <pt x="511" y="-376" on="1"/>
        <pt x="511" y="-22" on="1"/>
        <pt x="441" y="-19" on="0"/>
        <pt x="333" y="6" on="0"/>
        <pt x="253" y="42" on="0"/>
        <pt x="200" y="83" on="0"/>
        <pt x="185" y="100" on="1"/>
        <pt x="169" y="118" on="0"/>
        <pt x="132" y="178" on="0"/>
        <pt x="101" y="274" on="0"/>
        <pt x="80" y="412" on="0"/>
        <pt x="80" y="509" on="1"/>
        <pt x="80" y="604" on="0"/>
        <pt x="101" y="740" on="0"/>
        <pt x="133" y="834" on="0"/>
        <pt x="170" y="893" on="0"/>
        <pt x="186" y="911" on="1"/>
        <pt x="201" y="928" on="0"/>
        <pt x="254" y="968" on="0"/>
        <pt x="334" y="1004" on="0"/>
        <pt x="442" y="1031" on="0"/>
        <pt x="511" y="1034" on="1"/>
        <pt x="511" y="1316" on="1"/>
        <pt x="600" y="1328" on="1"/>
        <pt x="600" y="1033" on="1"/>
        <pt x="659" y="1029" on="0"/>
        <pt x="747" y="1006" on="0"/>
        <pt x="810" y="978" on="0"/>
        <pt x="849" y="948" on="0"/>
        <pt x="860" y="938" on="1"/>
        <pt x="870" y="928" on="0"/>
        <pt x="893" y="898" on="0"/>
        <pt x="915" y="852" on="0"/>
        <pt x="934" y="786" on="0"/>
        <pt x="939" y="739" on="1"/>
        <pt x="813" y="704" on="1"/>
        <pt x="807" y="740" on="0"/>
        <pt x="795" y="789" on="0"/>
        <pt x="783" y="821" on="0"/>
        <pt x="771" y="840" on="0"/>
        <pt x="766" y="846" on="1"/>
        <pt x="749" y="864" on="0"/>
        <pt x="673" y="902" on="0"/>
        <pt x="600" y="908" on="1"/>
        <pt x="600" y="98" on="1"/>
        <pt x="676" y="104" on="0"/>
        <pt x="757" y="142" on="0"/>
        <pt x="775" y="162" on="1"/>
        <pt x="781" y="168" on="0"/>
        <pt x="793" y="187" on="0"/>
        <pt x="805" y="219" on="0"/>
        <pt x="818" y="268" on="0"/>
        <pt x="824" y="304" on="1"/>
        <pt x="945" y="269" on="1"/>
        <pt x="940" y="223" on="0"/>
        <pt x="923" y="158" on="0"/>
        <pt x="900" y="112" on="0"/>
        <pt x="876" y="83" on="0"/>
        <pt x="866" y="73" on="1"/>
        <pt x="855" y="62" on="0"/>
        <pt x="815" y="34" on="0"/>
        <pt x="750" y="6" on="0"/>
        <pt x="660" y="-17" on="0"/>
        <pt x="600" y="-21" on="1"/>
        <pt x="600" y="-364" on="1"/>
      </contour>
      <contour>
        <pt x="299" y="175" on="1"/>
        <pt x="309" y="163" on="0"/>
        <pt x="339" y="137" on="0"/>
        <pt x="389" y="115" on="0"/>
        <pt x="460" y="99" on="0"/>
        <pt x="511" y="97" on="1"/>
        <pt x="511" y="909" on="1"/>
        <pt x="458" y="907" on="0"/>
        <pt x="385" y="891" on="0"/>
        <pt x="334" y="869" on="0"/>
        <pt x="304" y="843" on="0"/>
        <pt x="295" y="831" on="1"/>
        <pt x="285" y="818" on="0"/>
        <pt x="264" y="777" on="0"/>
        <pt x="247" y="705" on="0"/>
        <pt x="236" y="592" on="0"/>
        <pt x="236" y="507" on="1"/>
        <pt x="236" y="419" on="0"/>
        <pt x="248" y="303" on="0"/>
        <pt x="266" y="229" on="0"/>
        <pt x="288" y="188" on="0"/>
      </contour>
    </TTGlyph>
    <TTGlyph name="circumflex" xMin="76" yMin="1135" xMax="577" yMax="1472">
      <contour>
        <pt x="432" y="1135" on="1"/>
        <pt x="329" y="1412" on="1"/>
        <pt x="221" y="1135" on="1"/>
        <pt x="76" y="1135" on="1"/>
        <pt x="254" y="1472" on="1"/>
        <pt x="398" y="1472" on="1"/>
        <pt x="577" y="1135" on="1"/>
      </contour>
    </TTGlyph>
    <TTGlyph name="colon" xMin="142" yMin="242" xMax="353" yMax="932">
      <contour>
        <pt x="142" y="463" on="1"/>
        <pt x="353" y="463" on="1"/>
        <pt x="353" y="242" on="1"/>
        <pt x="142" y="242" on="1"/>
      </contour>
      <contour>
        <pt x="142" y="932" on="1"/>
        <pt x="353" y="932" on="1"/>
        <pt x="353" y="711" on="1"/>
        <pt x="142" y="711" on="1"/>
      </contour>
    </TTGlyph>
    <TTGlyph name="comma" xMin="142" yMin="-235" xMax="328" yMax="185">
      <contour>
        <pt x="148" y="185" on="1"/>
        <pt x="328" y="185" on="1"/>
        <pt x="328" y="-6" on="1"/>
        <pt x="328" y="-52" on="0"/>
        <pt x="295" y="-128" on="0"/>
        <pt x="249" y="-186" on="0"/>
        <pt x="200" y="-225" on="0"/>
        <pt x="185" y="-235" on="1"/>
        <pt x="142" y="-174" on="1"/>
        <pt x="152" y="-162" on="0"/>
        <pt x="181" y="-128" on="0"/>
        <pt x="208" y="-86" on="0"/>
        <pt x="227" y="-38" on="0"/>
        <pt x="227" y="-11" on="1"/>
        <pt x="148" y="-11" on="1"/>
      </contour>
    </TTGlyph>
    <TTGlyph name="copyright" xMin="95" yMin="0" xMax="1364" yMax="1269">
      <contour>
        <pt x="962" y="859" on="1"/>
        <pt x="909" y="904" on="0"/>
        <pt x="795" y="947" on="0"/>
        <pt x="740" y="947" on="1"/>
        <pt x="684" y="947" on="0"/>
        <pt x="582" y="904" on="0"/>
        <pt x="505" y="822" on="0"/>
        <pt x="460" y="702" on="0"/>
        <pt x="460" y="625" on="1"/>
        <pt x="460" y="551" on="0"/>
        <pt x="505" y="432" on="0"/>
        <pt x="583" y="348" on="0"/>
        <pt x="687" y="303" on="0"/>
        <pt x="746" y="303" on="1"/>
        <pt x="807" y="303" on="0"/>
        <pt x="936" y="355" on="0"/>
        <pt x="998" y="412" on="1"/>
        <pt x="1049" y="354" on="1"/>
        <pt x="983" y="279" on="0"/>
        <pt x="823" y="209" on="0"/>
        <pt x="741" y="209" on="1"/>
        <pt x="663" y="209" on="0"/>
        <pt x="517" y="269" on="0"/>
        <pt x="403" y="380" on="0"/>
        <pt x="335" y="536" on="0"/>
        <pt x="335" y="633" on="1"/>
        <pt x="335" y="729" on="0"/>
        <pt x="403" y="880" on="0"/>
        <pt x="516" y="984" on="0"/>
        <pt x="660" y="1039" on="0"/>
        <pt x="736" y="1039" on="1"/>
        <pt x="814" y="1039" on="0"/>
        <pt x="963" y="981" on="0"/>
        <pt x="1024" y="921" on="1"/>
      </contour>
      <contour>
        <pt x="1364" y="638" on="1"/>
        <pt x="1364" y="550" on="0"/>
        <pt x="1318" y="386" on="0"/>
        <pt x="1235" y="244" on="0"/>
        <pt x="1119" y="128" on="0"/>
        <pt x="977" y="45" on="0"/>
        <pt x="815" y="0" on="0"/>
        <pt x="727" y="0" on="1"/>
        <pt x="596" y="0" on="0"/>
        <pt x="366" y="100" on="0"/>
        <pt x="194" y="272" on="0"/>
        <pt x="95" y="502" on="0"/>
        <pt x="95" y="633" on="1"/>
        <pt x="95" y="766" on="0"/>
        <pt x="194" y="998" on="0"/>
        <pt x="366" y="1170" on="0"/>
        <pt x="596" y="1269" on="0"/>
        <pt x="727" y="1269" on="1"/>
        <pt x="815" y="1269" on="0"/>
        <pt x="977" y="1224" on="0"/>
        <pt x="1119" y="1142" on="0"/>
        <pt x="1235" y="1027" on="0"/>
        <pt x="1318" y="887" on="0"/>
        <pt x="1364" y="725" on="0"/>
      </contour>
      <contour>
        <pt x="1247" y="633" on="1"/>
        <pt x="1247" y="745" on="0"/>
        <pt x="1166" y="942" on="0"/>
        <pt x="1025" y="1089" on="0"/>
        <pt x="835" y="1173" on="0"/>
        <pt x="727" y="1173" on="1"/>
        <pt x="620" y="1173" on="0"/>
        <pt x="430" y="1089" on="0"/>
        <pt x="289" y="942" on="0"/>
        <pt x="207" y="745" on="0"/>
        <pt x="207" y="633" on="1"/>
        <pt x="207" y="522" on="0"/>
        <pt x="289" y="327" on="0"/>
        <pt x="430" y="180" on="0"/>
        <pt x="620" y="95" on="0"/>
        <pt x="727" y="95" on="1"/>
        <pt x="835" y="95" on="0"/>
        <pt x="1025" y="180" on="0"/>
        <pt x="1166" y="327" on="0"/>
        <pt x="1247" y="522" on="0"/>
      </contour>
    </TTGlyph>
    <TTGlyph name="currency" xMin="150" yMin="344" xMax="1092" yMax="1284">
      <contour>
        <pt x="621" y="1217" on="1"/>
        <pt x="697" y="1217" on="0"/>
        <pt x="815" y="1185" on="0"/>
        <pt x="857" y="1157" on="1"/>
        <pt x="872" y="1173" on="0"/>
        <pt x="915" y="1217" on="0"/>
        <pt x="935" y="1237" on="1"/>
        <pt x="982" y="1284" on="1"/>
        <pt x="1092" y="1176" on="1"/>
        <pt x="966" y="1047" on="1"/>
        <pt x="995" y="990" on="0"/>
        <pt x="1023" y="859" on="0"/>
        <pt x="1023" y="793" on="1"/>
        <pt x="1023" y="734" on="0"/>
        <pt x="1001" y="620" on="0"/>
        <pt x="978" y="567" on="1"/>
        <pt x="1092" y="451" on="1"/>
        <pt x="982" y="344" on="1"/>
        <pt x="882" y="444" on="1"/>
        <pt x="837" y="410" on="0"/>
        <pt x="708" y="375" on="0"/>
        <pt x="621" y="375" on="1"/>
        <pt x="534" y="375" on="0"/>
        <pt x="405" y="410" on="0"/>
        <pt x="360" y="444" on="1"/>
        <pt x="260" y="344" on="1"/>
        <pt x="150" y="451" on="1"/>
        <pt x="264" y="567" on="1"/>
        <pt x="241" y="620" on="0"/>
        <pt x="219" y="734" on="0"/>
        <pt x="219" y="793" on="1"/>
        <pt x="219" y="859" on="0"/>
        <pt x="247" y="990" on="0"/>
        <pt x="276" y="1047" on="1"/>
        <pt x="150" y="1176" on="1"/>
        <pt x="260" y="1284" on="1"/>
        <pt x="307" y="1237" on="1"/>
        <pt x="327" y="1217" on="0"/>
        <pt x="369" y="1173" on="0"/>
        <pt x="385" y="1157" on="1"/>
        <pt x="427" y="1185" on="0"/>
        <pt x="545" y="1217" on="0"/>
      </contour>
      <contour>
        <pt x="621" y="500" on="1"/>
        <pt x="711" y="500" on="0"/>
        <pt x="809" y="549" on="0"/>
        <pt x="836" y="596" on="1"/>
        <pt x="850" y="620" on="0"/>
        <pt x="866" y="672" on="0"/>
        <pt x="874" y="724" on="0"/>
        <pt x="876" y="773" on="0"/>
        <pt x="876" y="793" on="1"/>
        <pt x="876" y="817" on="0"/>
        <pt x="875" y="874" on="0"/>
        <pt x="864" y="935" on="0"/>
        <pt x="841" y="994" on="0"/>
        <pt x="820" y="1020" on="1"/>
        <pt x="791" y="1055" on="0"/>
        <pt x="696" y="1092" on="0"/>
        <pt x="621" y="1092" on="1"/>
        <pt x="546" y="1092" on="0"/>
        <pt x="451" y="1055" on="0"/>
        <pt x="422" y="1020" on="1"/>
        <pt x="401" y="994" on="0"/>
        <pt x="378" y="935" on="0"/>
        <pt x="367" y="874" on="0"/>
        <pt x="366" y="817" on="0"/>
        <pt x="366" y="793" on="1"/>
        <pt x="366" y="773" on="0"/>
        <pt x="368" y="724" on="0"/>
        <pt x="376" y="672" on="0"/>
        <pt x="392" y="620" on="0"/>
        <pt x="406" y="596" on="1"/>
        <pt x="433" y="549" on="0"/>
        <pt x="531" y="500" on="0"/>
      </contour>
    </TTGlyph>
    <TTGlyph name="d" xMin="114" yMin="-23" xMax="1005" yMax="1441">
      <contour>
        <pt x="556" y="909" on="1"/>
        <pt x="497" y="909" on="0"/>
        <pt x="417" y="893" on="0"/>
        <pt x="364" y="869" on="0"/>
        <pt x="334" y="840" on="0"/>
        <pt x="325" y="827" on="1"/>
        <pt x="316" y="814" on="0"/>
        <pt x="297" y="770" on="0"/>
        <pt x="281" y="694" on="0"/>
        <pt x="270" y="579" on="0"/>
        <pt x="270" y="495" on="1"/>
        <pt x="270" y="411" on="0"/>
        <pt x="281" y="301" on="0"/>
        <pt x="298" y="231" on="0"/>
        <pt x="317" y="192" on="0"/>
        <pt x="326" y="180" on="1"/>
        <pt x="335" y="168" on="0"/>
        <pt x="364" y="140" on="0"/>
        <pt x="416" y="117" on="0"/>
        <pt x="495" y="102" on="0"/>
        <pt x="553" y="102" on="1"/>
        <pt x="611" y="102" on="0"/>
        <pt x="692" y="117" on="0"/>
        <pt x="746" y="140" on="0"/>
        <pt x="777" y="167" on="0"/>
        <pt x="787" y="180" on="1"/>
        <pt x="797" y="192" on="0"/>
        <pt x="819" y="233" on="0"/>
        <pt x="838" y="306" on="0"/>
        <pt x="851" y="419" on="0"/>
        <pt x="851" y="505" on="1"/>
        <pt x="851" y="579" on="0"/>
        <pt x="842" y="685" on="0"/>
        <pt x="830" y="757" on="0"/>
        <pt x="817" y="798" on="0"/>
        <pt x="813" y="806" on="1"/>
        <pt x="781" y="863" on="0"/>
        <pt x="654" y="909" on="0"/>
      </contour>
      <contour>
        <pt x="851" y="1441" on="1"/>
        <pt x="1005" y="1441" on="1"/>
        <pt x="1005" y="0" on="1"/>
        <pt x="883" y="0" on="1"/>
        <pt x="865" y="166" on="1"/>
        <pt x="852" y="143" on="0"/>
        <pt x="808" y="79" on="0"/>
        <pt x="730" y="19" on="0"/>
        <pt x="608" y="-23" on="0"/>
        <pt x="518" y="-23" on="1"/>
        <pt x="441" y="-23" on="0"/>
        <pt x="328" y="6" on="0"/>
        <pt x="247" y="50" on="0"/>
        <pt x="196" y="102" on="0"/>
        <pt x="183" y="125" on="1"/>
        <pt x="173" y="142" on="0"/>
        <pt x="149" y="193" on="0"/>
        <pt x="128" y="278" on="0"/>
        <pt x="114" y="409" on="0"/>
        <pt x="114" y="505" on="1"/>
        <pt x="114" y="608" on="0"/>
        <pt x="133" y="753" on="0"/>
        <pt x="162" y="852" on="0"/>
        <pt x="198" y="911" on="0"/>
        <pt x="215" y="929" on="1"/>
        <pt x="228" y="942" on="0"/>
        <pt x="275" y="978" on="0"/>
        <pt x="348" y="1011" on="0"/>
        <pt x="451" y="1033" on="0"/>
        <pt x="520" y="1033" on="1"/>
        <pt x="596" y="1033" on="0"/>
        <pt x="709" y="1004" on="0"/>
        <pt x="788" y="956" on="0"/>
        <pt x="837" y="892" on="0"/>
        <pt x="851" y="857" on="1"/>
      </contour>
    </TTGlyph>
    <TTGlyph name="dagger" xMin="71" yMin="-232" xMax="818" yMax="1428">
      <contour>
        <pt x="364" y="1428" on="1"/>
        <pt x="531" y="1428" on="1"/>
        <pt x="531" y="997" on="1"/>
        <pt x="818" y="997" on="1"/>
        <pt x="818" y="873" on="1"/>
        <pt x="531" y="873" on="1"/>
        <pt x="531" y="-232" on="1"/>
        <pt x="364" y="-232" on="1"/>
        <pt x="364" y="873" on="1"/>
        <pt x="71" y="873" on="1"/>
        <pt x="71" y="997" on="1"/>
        <pt x="364" y="997" on="1"/>
      </contour>
    </TTGlyph>
    <TTGlyph name="daggerdbl" xMin="108" yMin="-236" xMax="851" yMax="1429">
      <contour>
        <pt x="400" y="1429" on="1"/>
        <pt x="556" y="1429" on="1"/>
        <pt x="556" y="1014" on="1"/>
        <pt x="851" y="1014" on="1"/>
        <pt x="851" y="889" on="1"/>
        <pt x="556" y="889" on="1"/>
        <pt x="556" y="307" on="1"/>
        <pt x="851" y="307" on="1"/>
        <pt x="851" y="184" on="1"/>
        <pt x="556" y="184" on="1"/>
        <pt x="556" y="-236" on="1"/>
        <pt x="400" y="-236" on="1"/>
        <pt x="400" y="184" on="1"/>
        <pt x="108" y="184" on="1"/>
        <pt x="108" y="307" on="1"/>
        <pt x="400" y="307" on="1"/>
        <pt x="400" y="889" on="1"/>
        <pt x="108" y="889" on="1"/>
        <pt x="108" y="1014" on="1"/>
        <pt x="400" y="1014" on="1"/>
      </contour>
    </TTGlyph>
    <TTGlyph name="degree" xMin="102" yMin="1011" xMax="532" yMax="1427">
      <contour>
        <pt x="318" y="1011" on="1"/>
        <pt x="264" y="1011" on="0"/>
        <pt x="183" y="1047" on="0"/>
        <pt x="129" y="1105" on="0"/>
        <pt x="102" y="1180" on="0"/>
        <pt x="102" y="1219" on="1"/>
        <pt x="102" y="1258" on="0"/>
        <pt x="129" y="1333" on="0"/>
        <pt x="183" y="1391" on="0"/>
        <pt x="264" y="1427" on="0"/>
        <pt x="318" y="1427" on="1"/>
        <pt x="372" y="1427" on="0"/>
        <pt x="452" y="1391" on="0"/>
        <pt x="505" y="1333" on="0"/>
        <pt x="532" y="1258" on="0"/>
        <pt x="532" y="1219" on="1"/>
        <pt x="532" y="1180" on="0"/>
        <pt x="505" y="1105" on="0"/>
        <pt x="452" y="1047" on="0"/>
        <pt x="372" y="1011" on="0"/>
      </contour>
      <contour>
        <pt x="318" y="1329" on="1"/>
        <pt x="292" y="1329" on="0"/>
        <pt x="253" y="1310" on="0"/>
        <pt x="228" y="1279" on="0"/>
        <pt x="215" y="1240" on="0"/>
        <pt x="215" y="1219" on="1"/>
        <pt x="215" y="1198" on="0"/>
        <pt x="228" y="1159" on="0"/>
        <pt x="253" y="1128" on="0"/>
        <pt x="292" y="1109" on="0"/>
        <pt x="318" y="1109" on="1"/>
        <pt x="343" y="1109" on="0"/>
        <pt x="381" y="1128" on="0"/>
        <pt x="406" y="1159" on="0"/>
        <pt x="419" y="1198" on="0"/>
        <pt x="419" y="1219" on="1"/>
        <pt x="419" y="1240" on="0"/>
        <pt x="406" y="1279" on="0"/>
        <pt x="381" y="1310" on="0"/>
        <pt x="343" y="1329" on="0"/>
      </contour>
    </TTGlyph>
    <TTGlyph name="dieresis" xMin="44" yMin="1246" xMax="648" yMax="1440">
      <contour>
        <pt x="136" y="1440" on="1"/>
        <pt x="166" y="1440" on="0"/>
        <pt x="203" y="1427" on="0"/>
        <pt x="223" y="1402" on="0"/>
        <pt x="230" y="1365" on="0"/>
        <pt x="230" y="1341" on="1"/>
        <pt x="230" y="1293" on="0"/>
        <pt x="193" y="1246" on="0"/>
        <pt x="136" y="1246" on="1"/>
        <pt x="85" y="1246" on="0"/>
        <pt x="44" y="1293" on="0"/>
        <pt x="44" y="1341" on="1"/>
        <pt x="44" y="1390" on="0"/>
        <pt x="82" y="1440" on="0"/>
      </contour>
      <contour>
        <pt x="554" y="1440" on="1"/>
        <pt x="584" y="1440" on="0"/>
        <pt x="621" y="1427" on="0"/>
        <pt x="641" y="1402" on="0"/>
        <pt x="648" y="1365" on="0"/>
        <pt x="648" y="1341" on="1"/>
        <pt x="648" y="1293" on="0"/>
        <pt x="611" y="1246" on="0"/>
        <pt x="554" y="1246" on="1"/>
        <pt x="503" y="1246" on="0"/>
        <pt x="462" y="1293" on="0"/>
        <pt x="462" y="1341" on="1"/>
        <pt x="462" y="1390" on="0"/>
        <pt x="500" y="1440" on="0"/>
      </contour>
    </TTGlyph>
    <TTGlyph name="divide" xMin="128" yMin="283" xMax="881" yMax="973">
      <component glyphName="colon" x="258" y="41" flags="0x1004"/>
      <component glyphName="minus" x="-25" y="0" flags="0x1004"/>
    </TTGlyph>
    <TTGlyph name="dollar" xMin="104" yMin="-156" xMax="1002" yMax="1537">
      <contour>
        <pt x="429" y="-156" on="1"/>
        <pt x="444" y="7" on="1"/>
        <pt x="388" y="16" on="0"/>
        <pt x="293" y="49" on="0"/>
        <pt x="219" y="85" on="0"/>
        <pt x="168" y="116" on="0"/>
        <pt x="157" y="123" on="1"/>
        <pt x="157" y="268" on="1"/>
        <pt x="166" y="260" on="0"/>
        <pt x="221" y="226" on="0"/>
        <pt x="302" y="187" on="0"/>
        <pt x="403" y="151" on="0"/>
        <pt x="457" y="141" on="1"/>
        <pt x="505" y="647" on="1"/>
        <pt x="346" y="702" on="1"/>
        <pt x="284" y="727" on="0"/>
        <pt x="193" y="785" on="0"/>
        <pt x="133" y="860" on="0"/>
        <pt x="104" y="958" on="0"/>
        <pt x="104" y="1024" on="1"/>
        <pt x="104" y="1120" on="0"/>
        <pt x="162" y="1251" on="0"/>
        <pt x="270" y="1332" on="0"/>
        <pt x="424" y="1368" on="0"/>
        <pt x="521" y="1368" on="1"/>
        <pt x="535" y="1368" on="0"/>
        <pt x="560" y="1367" on="0"/>
        <pt x="573" y="1366" on="1"/>
        <pt x="590" y="1537" on="1"/>
        <pt x="696" y="1537" on="1"/>
        <pt x="678" y="1352" on="1"/>
        <pt x="726" y="1343" on="0"/>
        <pt x="807" y="1317" on="0"/>
        <pt x="868" y="1292" on="0"/>
        <pt x="910" y="1272" on="0"/>
        <pt x="919" y="1268" on="1"/>
        <pt x="919" y="1126" on="1"/>
        <pt x="911" y="1132" on="0"/>
        <pt x="866" y="1155" on="0"/>
        <pt x="800" y="1182" on="0"/>
        <pt x="715" y="1210" on="0"/>
        <pt x="666" y="1220" on="1"/>
        <pt x="620" y="745" on="1"/>
        <pt x="738" y="705" on="1"/>
        <pt x="806" y="682" on="0"/>
        <pt x="906" y="629" on="0"/>
        <pt x="971" y="551" on="0"/>
        <pt x="1002" y="442" on="0"/>
        <pt x="1002" y="363" on="1"/>
        <pt x="1002" y="279" on="0"/>
        <pt x="952" y="144" on="0"/>
        <pt x="843" y="50" on="0"/>
        <pt x="671" y="-1" on="0"/>
        <pt x="550" y="-1" on="1"/>
        <pt x="535" y="-156" on="1"/>
      </contour>
      <contour>
        <pt x="514" y="1236" on="1"/>
        <pt x="449" y="1236" on="0"/>
        <pt x="350" y="1217" on="0"/>
        <pt x="284" y="1171" on="0"/>
        <pt x="250" y="1092" on="0"/>
        <pt x="250" y="1031" on="1"/>
        <pt x="250" y="981" on="0"/>
        <pt x="270" y="914" on="0"/>
        <pt x="316" y="866" on="0"/>
        <pt x="390" y="828" on="0"/>
        <pt x="444" y="806" on="1"/>
        <pt x="518" y="780" on="1"/>
        <pt x="561" y="1234" on="1"/>
        <pt x="549" y="1235" on="0"/>
        <pt x="526" y="1236" on="0"/>
      </contour>
      <contour>
        <pt x="854" y="361" on="1"/>
        <pt x="854" y="419" on="0"/>
        <pt x="830" y="495" on="0"/>
        <pt x="778" y="547" on="0"/>
        <pt x="696" y="584" on="0"/>
        <pt x="639" y="602" on="1"/>
        <pt x="608" y="612" on="1"/>
        <pt x="562" y="132" on="1"/>
        <pt x="644" y="133" on="0"/>
        <pt x="756" y="167" on="0"/>
        <pt x="825" y="227" on="0"/>
        <pt x="854" y="310" on="0"/>
      </contour>
    </TTGlyph>
    <TTGlyph name="dotaccent" xMin="149" yMin="1185" xMax="335" yMax="1370">
      <contour>
        <pt x="241" y="1370" on="1"/>
        <pt x="271" y="1370" on="0"/>
        <pt x="308" y="1357" on="0"/>
        <pt x="328" y="1332" on="0"/>
        <pt x="335" y="1295" on="0"/>
        <pt x="335" y="1271" on="1"/>
        <pt x="335" y="1223" on="0"/>
        <pt x="298" y="1185" on="0"/>
        <pt x="241" y="1185" on="1"/>
        <pt x="190" y="1185" on="0"/>
        <pt x="149" y="1223" on="0"/>
        <pt x="149" y="1271" on="1"/>
        <pt x="149" y="1320" on="0"/>
        <pt x="187" y="1370" on="0"/>
      </contour>
    </TTGlyph>
    <TTGlyph name="dotlessi" xMin="158" yMin="0" xMax="312" yMax="1011">
      <contour>
        <pt x="158" y="0" on="1"/>
        <pt x="158" y="1011" on="1"/>
        <pt x="312" y="1011" on="1"/>
        <pt x="312" y="0" on="1"/>
      </contour>
    </TTGlyph>
    <TTGlyph name="e" xMin="110" yMin="-23" xMax="989" yMax="1034">
      <contour>
        <pt x="601" y="594" on="1"/>
        <pt x="755" y="594" on="1"/>
        <pt x="834" y="588" on="1"/>
        <pt x="830" y="659" on="0"/>
        <pt x="812" y="757" on="0"/>
        <pt x="789" y="821" on="0"/>
        <pt x="764" y="855" on="0"/>
        <pt x="753" y="863" on="1"/>
        <pt x="731" y="878" on="0"/>
        <pt x="637" y="911" on="0"/>
        <pt x="556" y="911" on="1"/>
        <pt x="505" y="911" on="0"/>
        <pt x="431" y="898" on="0"/>
        <pt x="379" y="878" on="0"/>
        <pt x="346" y="856" on="0"/>
        <pt x="337" y="846" on="1"/>
        <pt x="328" y="836" on="0"/>
        <pt x="306" y="801" on="0"/>
        <pt x="286" y="741" on="0"/>
        <pt x="270" y="655" on="0"/>
        <pt x="268" y="594" on="1"/>
      </contour>
      <contour>
        <pt x="979" y="273" on="1"/>
        <pt x="971" y="225" on="0"/>
        <pt x="951" y="160" on="0"/>
        <pt x="931" y="119" on="0"/>
        <pt x="912" y="97" on="0"/>
        <pt x="906" y="90" on="1"/>
        <pt x="890" y="71" on="0"/>
        <pt x="835" y="31" on="0"/>
        <pt x="753" y="-2" on="0"/>
        <pt x="639" y="-23" on="0"/>
        <pt x="564" y="-23" on="1"/>
        <pt x="486" y="-23" on="0"/>
        <pt x="371" y="-2" on="0"/>
        <pt x="290" y="31" on="0"/>
        <pt x="238" y="71" on="0"/>
        <pt x="222" y="89" on="1"/>
        <pt x="207" y="107" on="0"/>
        <pt x="168" y="168" on="0"/>
        <pt x="133" y="266" on="0"/>
        <pt x="110" y="407" on="0"/>
        <pt x="110" y="505" on="1"/>
        <pt x="110" y="604" on="0"/>
        <pt x="134" y="744" on="0"/>
        <pt x="169" y="840" on="0"/>
        <pt x="208" y="899" on="0"/>
        <pt x="224" y="917" on="1"/>
        <pt x="239" y="935" on="0"/>
        <pt x="293" y="976" on="0"/>
        <pt x="374" y="1011" on="0"/>
        <pt x="486" y="1034" on="0"/>
        <pt x="560" y="1034" on="1"/>
        <pt x="643" y="1034" on="0"/>
        <pt x="763" y="1007" on="0"/>
        <pt x="846" y="966" on="0"/>
        <pt x="897" y="919" on="0"/>
        <pt x="912" y="898" on="1"/>
        <pt x="923" y="883" on="0"/>
        <pt x="949" y="834" on="0"/>
        <pt x="973" y="760" on="0"/>
        <pt x="989" y="658" on="0"/>
        <pt x="989" y="591" on="1"/>
        <pt x="989" y="586" on="0"/>
        <pt x="988" y="555" on="0"/>
        <pt x="988" y="520" on="0"/>
        <pt x="987" y="487" on="0"/>
        <pt x="987" y="480" on="1"/>
        <pt x="266" y="480" on="1"/>
        <pt x="266" y="369" on="0"/>
        <pt x="304" y="231" on="0"/>
        <pt x="327" y="193" on="1"/>
        <pt x="354" y="148" on="0"/>
        <pt x="389" y="129" on="1"/>
        <pt x="403" y="120" on="0"/>
        <pt x="428" y="113" on="1"/>
        <pt x="449" y="107" on="0"/>
        <pt x="517" y="97" on="0"/>
        <pt x="568" y="97" on="1"/>
        <pt x="618" y="97" on="0"/>
        <pt x="691" y="107" on="0"/>
        <pt x="741" y="122" on="0"/>
        <pt x="772" y="137" on="0"/>
        <pt x="781" y="143" on="1"/>
        <pt x="808" y="161" on="0"/>
        <pt x="842" y="236" on="0"/>
        <pt x="855" y="307" on="1"/>
      </contour>
    </TTGlyph>
    <TTGlyph name="eacute" xMin="110" yMin="-23" xMax="989" yMax="1590">
      <component glyphName="e" x="0" y="0" flags="0x1204"/>
      <component glyphName="acute" x="154" y="0" flags="0x1004"/>
    </TTGlyph>
    <TTGlyph name="ecircumflex" xMin="110" yMin="-23" xMax="989" yMax="1472">
      <component glyphName="e" x="0" y="0" flags="0x1204"/>
      <component glyphName="circumflex" x="221" y="0" flags="0x1004"/>
    </TTGlyph>
    <TTGlyph name="edieresis" xMin="110" yMin="-23" xMax="989" yMax="1440">
      <component glyphName="e" x="0" y="0" flags="0x1204"/>
      <component glyphName="dieresis" x="201" y="0" flags="0x1004"/>
    </TTGlyph>
    <TTGlyph name="egrave" xMin="110" yMin="-23" xMax="989" yMax="1590">
      <component glyphName="e" x="0" y="0" flags="0x1204"/>
      <component glyphName="grave" x="218" y="0" flags="0x1004"/>
    </TTGlyph>
    <TTGlyph name="eight" xMin="120" yMin="-33" xMax="1016" yMax="1350">
      <contour>
        <pt x="695" y="709" on="1"/>
        <pt x="1016" y="596" on="0"/>
        <pt x="1016" y="336" on="1"/>
        <pt x="1016" y="142" on="0"/>
        <pt x="884" y="50" on="1"/>
        <pt x="824" y="8" on="0"/>
        <pt x="655" y="-33" on="0"/>
        <pt x="557" y="-33" on="1"/>
        <pt x="464" y="-33" on="0"/>
        <pt x="300" y="8" on="0"/>
        <pt x="243" y="50" on="1"/>
        <pt x="179" y="97" on="0"/>
        <pt x="120" y="238" on="0"/>
        <pt x="120" y="335" on="1"/>
        <pt x="120" y="460" on="0"/>
        <pt x="284" y="646" on="0"/>
        <pt x="442" y="703" on="1"/>
        <pt x="389" y="730" on="0"/>
        <pt x="292" y="795" on="0"/>
        <pt x="218" y="875" on="0"/>
        <pt x="173" y="973" on="0"/>
        <pt x="173" y="1035" on="1"/>
        <pt x="173" y="1116" on="0"/>
        <pt x="227" y="1243" on="0"/>
        <pt x="287" y="1284" on="1"/>
        <pt x="338" y="1319" on="0"/>
        <pt x="486" y="1350" on="0"/>
        <pt x="575" y="1350" on="1"/>
        <pt x="660" y="1350" on="0"/>
        <pt x="806" y="1318" on="0"/>
        <pt x="856" y="1283" on="1"/>
        <pt x="915" y="1242" on="0"/>
        <pt x="966" y="1119" on="0"/>
        <pt x="966" y="1041" on="1"/>
        <pt x="966" y="979" on="0"/>
        <pt x="920" y="881" on="0"/>
        <pt x="843" y="801" on="0"/>
        <pt x="746" y="736" on="0"/>
      </contour>
      <contour>
        <pt x="567" y="635" on="1"/>
        <pt x="510" y="614" on="0"/>
        <pt x="407" y="561" on="0"/>
        <pt x="328" y="490" on="0"/>
        <pt x="282" y="400" on="0"/>
        <pt x="282" y="343" on="1"/>
        <pt x="282" y="274" on="0"/>
        <pt x="312" y="181" on="0"/>
        <pt x="350" y="152" on="1"/>
        <pt x="388" y="122" on="0"/>
        <pt x="504" y="96" on="0"/>
        <pt x="567" y="96" on="1"/>
        <pt x="630" y="96" on="0"/>
        <pt x="744" y="123" on="0"/>
        <pt x="782" y="154" on="1"/>
        <pt x="820" y="184" on="0"/>
        <pt x="854" y="278" on="0"/>
        <pt x="854" y="345" on="1"/>
        <pt x="854" y="404" on="0"/>
        <pt x="809" y="494" on="0"/>
        <pt x="731" y="563" on="0"/>
        <pt x="626" y="615" on="0"/>
      </contour>
      <contour>
        <pt x="570" y="1229" on="1"/>
        <pt x="514" y="1229" on="0"/>
        <pt x="414" y="1209" on="0"/>
        <pt x="382" y="1183" on="1"/>
        <pt x="350" y="1158" on="0"/>
        <pt x="324" y="1081" on="0"/>
        <pt x="324" y="1030" on="1"/>
        <pt x="324" y="983" on="0"/>
        <pt x="359" y="907" on="0"/>
        <pt x="423" y="846" on="0"/>
        <pt x="513" y="798" on="0"/>
        <pt x="569" y="777" on="1"/>
        <pt x="625" y="798" on="0"/>
        <pt x="715" y="848" on="0"/>
        <pt x="779" y="909" on="0"/>
        <pt x="814" y="984" on="0"/>
        <pt x="814" y="1032" on="1"/>
        <pt x="814" y="1083" on="0"/>
        <pt x="788" y="1160" on="0"/>
        <pt x="756" y="1185" on="1"/>
        <pt x="724" y="1210" on="0"/>
        <pt x="624" y="1229" on="0"/>
      </contour>
    </TTGlyph>
    <TTGlyph name="ellipsis" xMin="141" yMin="0" xMax="1648" yMax="221">
      <contour>
        <pt x="141" y="221" on="1"/>
        <pt x="352" y="221" on="1"/>
        <pt x="352" y="0" on="1"/>
        <pt x="141" y="0" on="1"/>
      </contour>
      <contour>
        <pt x="789" y="221" on="1"/>
        <pt x="1000" y="221" on="1"/>
        <pt x="1000" y="0" on="1"/>
        <pt x="789" y="0" on="1"/>
      </contour>
      <contour>
        <pt x="1437" y="221" on="1"/>
        <pt x="1648" y="221" on="1"/>
        <pt x="1648" y="0" on="1"/>
        <pt x="1437" y="0" on="1"/>
      </contour>
    </TTGlyph>
    <TTGlyph name="emdash" xMin="123" yMin="575" xMax="1037" yMax="684">
      <contour>
        <pt x="123" y="575" on="1"/>
        <pt x="123" y="684" on="1"/>
        <pt x="1037" y="684" on="1"/>
        <pt x="1037" y="575" on="1"/>
      </contour>
    </TTGlyph>
    <TTGlyph name="endash" xMin="123" yMin="575" xMax="852" yMax="684">
      <contour>
        <pt x="123" y="575" on="1"/>
        <pt x="123" y="684" on="1"/>
        <pt x="852" y="684" on="1"/>
        <pt x="852" y="575" on="1"/>
      </contour>
    </TTGlyph>
    <TTGlyph name="equal" xMin="153" yMin="446" xMax="886" yMax="807">
      <contour>
        <pt x="153" y="446" on="1"/>
        <pt x="153" y="557" on="1"/>
        <pt x="886" y="557" on="1"/>
        <pt x="886" y="446" on="1"/>
      </contour>
      <contour>
        <pt x="153" y="698" on="1"/>
        <pt x="153" y="807" on="1"/>
        <pt x="886" y="807" on="1"/>
        <pt x="886" y="698" on="1"/>
      </contour>
    </TTGlyph>
    <TTGlyph name="eth" xMin="87" yMin="-32" xMax="997" yMax="1354">
      <contour>
        <pt x="154" y="1226" on="1"/>
        <pt x="183" y="1244" on="0"/>
        <pt x="253" y="1289" on="0"/>
        <pt x="338" y="1328" on="0"/>
        <pt x="443" y="1354" on="0"/>
        <pt x="507" y="1354" on="1"/>
        <pt x="561" y="1354" on="0"/>
        <pt x="651" y="1335" on="0"/>
        <pt x="725" y="1306" on="0"/>
        <pt x="780" y="1272" on="0"/>
        <pt x="799" y="1258" on="1"/>
        <pt x="913" y="1346" on="1"/>
        <pt x="984" y="1246" on="1"/>
        <pt x="878" y="1169" on="1"/>
        <pt x="896" y="1139" on="0"/>
        <pt x="937" y="1043" on="0"/>
        <pt x="973" y="903" on="0"/>
        <pt x="997" y="718" on="0"/>
        <pt x="997" y="599" on="1"/>
        <pt x="997" y="522" on="0"/>
        <pt x="983" y="393" on="0"/>
        <pt x="959" y="288" on="0"/>
        <pt x="929" y="206" on="0"/>
        <pt x="913" y="175" on="1"/>
        <pt x="876" y="102" on="0"/>
        <pt x="830" y="61" on="1"/>
        <pt x="799" y="34" on="0"/>
        <pt x="756" y="14" on="1"/>
        <pt x="719" y="-3" on="0"/>
        <pt x="610" y="-32" on="0"/>
        <pt x="536" y="-32" on="1"/>
        <pt x="446" y="-32" on="0"/>
        <pt x="320" y="7" on="0"/>
        <pt x="278" y="31" on="1"/>
        <pt x="230" y="59" on="0"/>
        <pt x="198" y="95" on="1"/>
        <pt x="167" y="134" on="0"/>
        <pt x="142" y="184" on="1"/>
        <pt x="121" y="227" on="0"/>
        <pt x="87" y="350" on="0"/>
        <pt x="87" y="428" on="1"/>
        <pt x="87" y="528" on="0"/>
        <pt x="132" y="668" on="0"/>
        <pt x="160" y="713" on="1"/>
        <pt x="192" y="765" on="0"/>
        <pt x="233" y="799" on="1"/>
        <pt x="258" y="818" on="0"/>
        <pt x="295" y="834" on="1"/>
        <pt x="327" y="847" on="0"/>
        <pt x="424" y="869" on="0"/>
        <pt x="493" y="869" on="1"/>
        <pt x="584" y="869" on="0"/>
        <pt x="759" y="797" on="0"/>
        <pt x="826" y="721" on="1"/>
        <pt x="826" y="795" on="0"/>
        <pt x="811" y="911" on="0"/>
        <pt x="789" y="999" on="0"/>
        <pt x="764" y="1060" on="0"/>
        <pt x="754" y="1079" on="1"/>
        <pt x="642" y="997" on="1"/>
        <pt x="579" y="1088" on="1"/>
        <pt x="677" y="1164" on="1"/>
        <pt x="648" y="1183" on="0"/>
        <pt x="561" y="1214" on="0"/>
        <pt x="501" y="1214" on="1"/>
        <pt x="435" y="1214" on="0"/>
        <pt x="332" y="1183" on="0"/>
        <pt x="297" y="1164" on="1"/>
        <pt x="256" y="1142" on="0"/>
        <pt x="224" y="1114" on="1"/>
      </contour>
      <contour>
        <pt x="534" y="99" on="1"/>
        <pt x="587" y="99" on="0"/>
        <pt x="662" y="118" on="0"/>
        <pt x="686" y="130" on="1"/>
        <pt x="714" y="143" on="0"/>
        <pt x="732" y="161" on="1"/>
        <pt x="758" y="184" on="0"/>
        <pt x="778" y="231" on="1"/>
        <pt x="795" y="271" on="0"/>
        <pt x="825" y="406" on="0"/>
        <pt x="825" y="511" on="1"/>
        <pt x="807" y="563" on="0"/>
        <pt x="743" y="647" on="0"/>
        <pt x="661" y="706" on="0"/>
        <pt x="565" y="738" on="0"/>
        <pt x="514" y="738" on="1"/>
        <pt x="466" y="738" on="0"/>
        <pt x="395" y="718" on="0"/>
        <pt x="371" y="707" on="1"/>
        <pt x="343" y="693" on="0"/>
        <pt x="323" y="676" on="1"/>
        <pt x="303" y="657" on="0"/>
        <pt x="287" y="624" on="1"/>
        <pt x="273" y="595" on="0"/>
        <pt x="251" y="499" on="0"/>
        <pt x="251" y="427" on="1"/>
        <pt x="251" y="355" on="0"/>
        <pt x="266" y="265" on="0"/>
        <pt x="275" y="239" on="1"/>
        <pt x="286" y="208" on="0"/>
        <pt x="299" y="193" on="1"/>
        <pt x="318" y="166" on="0"/>
        <pt x="351" y="146" on="1"/>
        <pt x="379" y="128" on="0"/>
        <pt x="468" y="99" on="0"/>
      </contour>
    </TTGlyph>
    <TTGlyph name="exclam" xMin="143" yMin="0" xMax="354" yMax="1366">
      <contour>
        <pt x="207" y="335" on="1"/>
        <pt x="202" y="435" on="0"/>
        <pt x="192" y="646" on="0"/>
        <pt x="182" y="859" on="0"/>
        <pt x="172" y="1070" on="0"/>
        <pt x="167" y="1171" on="1"/>
        <pt x="167" y="1366" on="1"/>
        <pt x="329" y="1366" on="1"/>
        <pt x="329" y="1171" on="1"/>
        <pt x="325" y="1070" on="0"/>
        <pt x="315" y="859" on="0"/>
        <pt x="304" y="646" on="0"/>
        <pt x="294" y="435" on="0"/>
        <pt x="290" y="335" on="1"/>
      </contour>
      <contour>
        <pt x="143" y="221" on="1"/>
        <pt x="354" y="221" on="1"/>
        <pt x="354" y="0" on="1"/>
        <pt x="143" y="0" on="1"/>
      </contour>
    </TTGlyph>
    <TTGlyph name="exclamdown" xMin="143" yMin="0" xMax="354" yMax="1366">
      <component glyphName="exclam" x="0" y="1366" scalex="1.0" scaley="-1.0" flags="0x1004"/>
    </TTGlyph>
    <TTGlyph name="f" xMin="66" yMin="0" xMax="722" yMax="1458">
      <contour>
        <pt x="630" y="899" on="1"/>
        <pt x="411" y="899" on="1"/>
        <pt x="411" y="0" on="1"/>
        <pt x="258" y="0" on="1"/>
        <pt x="258" y="899" on="1"/>
        <pt x="66" y="899" on="1"/>
        <pt x="66" y="1011" on="1"/>
        <pt x="258" y="1011" on="1"/>
        <pt x="258" y="1135" on="1"/>
        <pt x="258" y="1208" on="0"/>
        <pt x="270" y="1300" on="0"/>
        <pt x="287" y="1356" on="0"/>
        <pt x="306" y="1383" on="0"/>
        <pt x="313" y="1390" on="1"/>
        <pt x="318" y="1395" on="0"/>
        <pt x="345" y="1417" on="0"/>
        <pt x="393" y="1440" on="0"/>
        <pt x="466" y="1458" on="0"/>
        <pt x="519" y="1458" on="1"/>
        <pt x="555" y="1458" on="0"/>
        <pt x="606" y="1448" on="0"/>
        <pt x="623" y="1442" on="1"/>
        <pt x="642" y="1435" on="0"/>
        <pt x="654" y="1426" on="1"/>
        <pt x="667" y="1416" on="0"/>
        <pt x="680" y="1403" on="1"/>
        <pt x="691" y="1391" on="0"/>
        <pt x="714" y="1356" on="0"/>
        <pt x="722" y="1331" on="1"/>
        <pt x="640" y="1261" on="1"/>
        <pt x="631" y="1277" on="0"/>
        <pt x="613" y="1300" on="0"/>
        <pt x="605" y="1307" on="1"/>
        <pt x="596" y="1315" on="0"/>
        <pt x="589" y="1320" on="1"/>
        <pt x="582" y="1323" on="0"/>
        <pt x="572" y="1326" on="1"/>
        <pt x="564" y="1328" on="0"/>
        <pt x="538" y="1332" on="0"/>
        <pt x="521" y="1332" on="1"/>
        <pt x="489" y="1332" on="0"/>
        <pt x="452" y="1322" on="0"/>
        <pt x="443" y="1316" on="1"/>
        <pt x="432" y="1309" on="0"/>
        <pt x="429" y="1301" on="1"/>
        <pt x="424" y="1298" on="0"/>
        <pt x="420" y="1279" on="1"/>
        <pt x="416" y="1262" on="0"/>
        <pt x="411" y="1190" on="0"/>
        <pt x="411" y="1122" on="1"/>
        <pt x="411" y="1011" on="1"/>
        <pt x="630" y="1011" on="1"/>
      </contour>
    </TTGlyph>
    <TTGlyph name="fi" xMin="66" yMin="0" xMax="971" yMax="1458">
      <contour>
        <pt x="801" y="0" on="1"/>
        <pt x="801" y="899" on="1"/>
        <pt x="411" y="899" on="1"/>
        <pt x="411" y="0" on="1"/>
        <pt x="258" y="0" on="1"/>
        <pt x="258" y="899" on="1"/>
        <pt x="66" y="899" on="1"/>
        <pt x="66" y="1011" on="1"/>
        <pt x="258" y="1011" on="1"/>
        <pt x="258" y="1135" on="1"/>
        <pt x="258" y="1202" on="0"/>
        <pt x="268" y="1293" on="0"/>
        <pt x="283" y="1351" on="0"/>
        <pt x="300" y="1383" on="0"/>
        <pt x="307" y="1390" on="1"/>
        <pt x="312" y="1395" on="0"/>
        <pt x="340" y="1417" on="0"/>
        <pt x="391" y="1440" on="0"/>
        <pt x="466" y="1458" on="0"/>
        <pt x="519" y="1458" on="1"/>
        <pt x="555" y="1458" on="0"/>
        <pt x="606" y="1448" on="0"/>
        <pt x="623" y="1442" on="1"/>
        <pt x="642" y="1435" on="0"/>
        <pt x="654" y="1426" on="1"/>
        <pt x="667" y="1416" on="0"/>
        <pt x="680" y="1403" on="1"/>
        <pt x="691" y="1391" on="0"/>
        <pt x="714" y="1356" on="0"/>
        <pt x="722" y="1331" on="1"/>
        <pt x="640" y="1261" on="1"/>
        <pt x="631" y="1277" on="0"/>
        <pt x="613" y="1300" on="0"/>
        <pt x="605" y="1307" on="1"/>
        <pt x="596" y="1315" on="0"/>
        <pt x="589" y="1320" on="1"/>
        <pt x="582" y="1323" on="0"/>
        <pt x="572" y="1326" on="1"/>
        <pt x="564" y="1328" on="0"/>
        <pt x="538" y="1332" on="0"/>
        <pt x="521" y="1332" on="1"/>
        <pt x="489" y="1332" on="0"/>
        <pt x="452" y="1322" on="0"/>
        <pt x="443" y="1316" on="1"/>
        <pt x="432" y="1309" on="0"/>
        <pt x="429" y="1301" on="1"/>
        <pt x="424" y="1298" on="0"/>
        <pt x="420" y="1279" on="1"/>
        <pt x="416" y="1262" on="0"/>
        <pt x="411" y="1190" on="0"/>
        <pt x="411" y="1122" on="1"/>
        <pt x="411" y="1011" on="1"/>
        <pt x="955" y="1011" on="1"/>
        <pt x="955" y="0" on="1"/>
      </contour>
      <contour>
        <pt x="877" y="1370" on="1"/>
        <pt x="907" y="1370" on="0"/>
        <pt x="944" y="1357" on="0"/>
        <pt x="964" y="1332" on="0"/>
        <pt x="971" y="1295" on="0"/>
        <pt x="971" y="1271" on="1"/>
        <pt x="971" y="1223" on="0"/>
        <pt x="934" y="1185" on="0"/>
        <pt x="877" y="1185" on="1"/>
        <pt x="826" y="1185" on="0"/>
        <pt x="785" y="1223" on="0"/>
        <pt x="785" y="1271" on="1"/>
        <pt x="785" y="1320" on="0"/>
        <pt x="823" y="1370" on="0"/>
      </contour>
    </TTGlyph>
    <TTGlyph name="five" xMin="121" yMin="-25" xMax="991" yMax="1304">
      <contour>
        <pt x="146" y="625" on="1"/>
        <pt x="150" y="674" on="0"/>
        <pt x="159" y="799" on="0"/>
        <pt x="169" y="935" on="0"/>
        <pt x="178" y="1071" on="0"/>
        <pt x="186" y="1190" on="0"/>
        <pt x="192" y="1281" on="0"/>
        <pt x="194" y="1304" on="1"/>
        <pt x="884" y="1304" on="1"/>
        <pt x="884" y="1161" on="1"/>
        <pt x="318" y="1161" on="1"/>
        <pt x="287" y="751" on="1"/>
        <pt x="303" y="764" on="0"/>
        <pt x="360" y="795" on="0"/>
        <pt x="433" y="822" on="0"/>
        <pt x="521" y="841" on="0"/>
        <pt x="568" y="841" on="1"/>
        <pt x="664" y="841" on="0"/>
        <pt x="822" y="794" on="0"/>
        <pt x="877" y="744" on="1"/>
        <pt x="991" y="640" on="0"/>
        <pt x="991" y="420" on="1"/>
        <pt x="991" y="195" on="0"/>
        <pt x="863" y="81" on="1"/>
        <pt x="801" y="26" on="0"/>
        <pt x="630" y="-25" on="0"/>
        <pt x="534" y="-25" on="1"/>
        <pt x="434" y="-25" on="0"/>
        <pt x="279" y="20" on="0"/>
        <pt x="226" y="58" on="1"/>
        <pt x="183" y="89" on="0"/>
        <pt x="133" y="165" on="0"/>
        <pt x="121" y="200" on="1"/>
        <pt x="217" y="287" on="1"/>
        <pt x="222" y="276" on="0"/>
        <pt x="239" y="243" on="0"/>
        <pt x="266" y="207" on="0"/>
        <pt x="304" y="170" on="0"/>
        <pt x="330" y="154" on="1"/>
        <pt x="366" y="132" on="0"/>
        <pt x="469" y="107" on="0"/>
        <pt x="532" y="107" on="1"/>
        <pt x="600" y="107" on="0"/>
        <pt x="717" y="140" on="0"/>
        <pt x="757" y="178" on="1"/>
        <pt x="796" y="216" on="0"/>
        <pt x="832" y="333" on="0"/>
        <pt x="832" y="412" on="1"/>
        <pt x="832" y="492" on="0"/>
        <pt x="802" y="608" on="0"/>
        <pt x="764" y="645" on="1"/>
        <pt x="729" y="680" on="0"/>
        <pt x="618" y="712" on="0"/>
        <pt x="546" y="712" on="1"/>
        <pt x="497" y="712" on="0"/>
        <pt x="411" y="689" on="0"/>
        <pt x="341" y="653" on="0"/>
        <pt x="291" y="609" on="0"/>
        <pt x="278" y="588" on="1"/>
      </contour>
    </TTGlyph>
    <TTGlyph name="fl" xMin="66" yMin="0" xMax="1117" yMax="1458">
      <component glyphName="f" x="0" y="0" flags="0x1004"/>
      <component glyphName="l" x="799" y="0" flags="0x1004"/>
    </TTGlyph>
    <TTGlyph name="florin" xMin="-226" yMin="-477" xMax="859" yMax="1548">
      <contour>
        <pt x="280" y="-125" on="1"/>
        <pt x="262" y="-224" on="0"/>
        <pt x="218" y="-358" on="0"/>
        <pt x="135" y="-441" on="0"/>
        <pt x="1" y="-477" on="0"/>
        <pt x="-105" y="-477" on="1"/>
        <pt x="-136" y="-477" on="0"/>
        <pt x="-195" y="-469" on="0"/>
        <pt x="-226" y="-461" on="1"/>
        <pt x="-204" y="-330" on="1"/>
        <pt x="-175" y="-336" on="0"/>
        <pt x="-114" y="-344" on="0"/>
        <pt x="-85" y="-344" on="1"/>
        <pt x="-25" y="-344" on="0"/>
        <pt x="46" y="-318" on="0"/>
        <pt x="86" y="-267" on="0"/>
        <pt x="107" y="-190" on="0"/>
        <pt x="116" y="-139" on="1"/>
        <pt x="292" y="860" on="1"/>
        <pt x="81" y="860" on="1"/>
        <pt x="104" y="993" on="1"/>
        <pt x="315" y="993" on="1"/>
        <pt x="353" y="1204" on="1"/>
        <pt x="370" y="1300" on="0"/>
        <pt x="417" y="1432" on="0"/>
        <pt x="500" y="1513" on="0"/>
        <pt x="632" y="1548" on="0"/>
        <pt x="734" y="1548" on="1"/>
        <pt x="765" y="1548" on="0"/>
        <pt x="828" y="1546" on="0"/>
        <pt x="859" y="1544" on="1"/>
        <pt x="837" y="1409" on="1"/>
        <pt x="808" y="1411" on="0"/>
        <pt x="747" y="1415" on="0"/>
        <pt x="718" y="1415" on="1"/>
        <pt x="656" y="1415" on="0"/>
        <pt x="585" y="1393" on="0"/>
        <pt x="545" y="1345" on="0"/>
        <pt x="526" y="1271" on="0"/>
        <pt x="517" y="1219" on="1"/>
        <pt x="478" y="993" on="1"/>
        <pt x="763" y="993" on="1"/>
        <pt x="738" y="860" on="1"/>
        <pt x="456" y="860" on="1"/>
      </contour>
    </TTGlyph>
    <TTGlyph name="four" xMin="60" yMin="-1" xMax="959" yMax="1310">
      <contour>
        <pt x="623" y="1114" on="1"/>
        <pt x="188" y="405" on="1"/>
        <pt x="623" y="405" on="1"/>
      </contour>
      <contour>
        <pt x="597" y="1310" on="1"/>
        <pt x="775" y="1290" on="1"/>
        <pt x="775" y="407" on="1"/>
        <pt x="959" y="407" on="1"/>
        <pt x="959" y="279" on="1"/>
        <pt x="775" y="279" on="1"/>
        <pt x="775" y="-1" on="1"/>
        <pt x="623" y="-1" on="1"/>
        <pt x="623" y="279" on="1"/>
        <pt x="74" y="279" on="1"/>
        <pt x="60" y="446" on="1"/>
      </contour>
    </TTGlyph>
    <TTGlyph name="foursuperior" xMin="64" yMin="300" xMax="757" yMax="1310">
      <contour>
        <pt x="498" y="1159" on="1"/>
        <pt x="163" y="613" on="1"/>
        <pt x="498" y="613" on="1"/>
      </contour>
      <contour>
        <pt x="478" y="1310" on="1"/>
        <pt x="615" y="1295" on="1"/>
        <pt x="615" y="615" on="1"/>
        <pt x="757" y="615" on="1"/>
        <pt x="757" y="516" on="1"/>
        <pt x="615" y="516" on="1"/>
        <pt x="615" y="300" on="1"/>
        <pt x="498" y="300" on="1"/>
        <pt x="498" y="516" on="1"/>
        <pt x="75" y="516" on="1"/>
        <pt x="64" y="645" on="1"/>
      </contour>
    </TTGlyph>
    <TTGlyph name="fraction" xMin="4" yMin="-17" xMax="719" yMax="1644">
      <contour>
        <pt x="615" y="1644" on="1"/>
        <pt x="719" y="1627" on="1"/>
        <pt x="107" y="-17" on="1"/>
        <pt x="4" y="1" on="1"/>
      </contour>
    </TTGlyph>
    <TTGlyph name="g" xMin="115" yMin="-402" xMax="1005" yMax="1034">
      <contour>
        <pt x="557" y="911" on="1"/>
        <pt x="499" y="911" on="0"/>
        <pt x="419" y="897" on="0"/>
        <pt x="366" y="875" on="0"/>
        <pt x="336" y="849" on="0"/>
        <pt x="327" y="837" on="1"/>
        <pt x="318" y="825" on="0"/>
        <pt x="299" y="785" on="0"/>
        <pt x="283" y="713" on="0"/>
        <pt x="272" y="602" on="0"/>
        <pt x="272" y="518" on="1"/>
        <pt x="272" y="434" on="0"/>
        <pt x="282" y="320" on="0"/>
        <pt x="299" y="246" on="0"/>
        <pt x="318" y="203" on="0"/>
        <pt x="327" y="190" on="1"/>
        <pt x="336" y="177" on="0"/>
        <pt x="366" y="150" on="0"/>
        <pt x="420" y="129" on="0"/>
        <pt x="501" y="115" on="0"/>
        <pt x="560" y="115" on="1"/>
        <pt x="619" y="115" on="0"/>
        <pt x="699" y="128" on="0"/>
        <pt x="752" y="149" on="0"/>
        <pt x="783" y="175" on="0"/>
        <pt x="792" y="187" on="1"/>
        <pt x="801" y="199" on="0"/>
        <pt x="822" y="239" on="0"/>
        <pt x="840" y="309" on="0"/>
        <pt x="852" y="416" on="0"/>
        <pt x="852" y="496" on="1"/>
        <pt x="852" y="580" on="0"/>
        <pt x="840" y="702" on="0"/>
        <pt x="822" y="784" on="0"/>
        <pt x="800" y="831" on="0"/>
        <pt x="790" y="842" on="1"/>
        <pt x="779" y="853" on="0"/>
        <pt x="747" y="878" on="0"/>
        <pt x="694" y="898" on="0"/>
        <pt x="615" y="911" on="0"/>
      </contour>
      <contour>
        <pt x="850" y="150" on="1"/>
        <pt x="829" y="116" on="0"/>
        <pt x="773" y="57" on="0"/>
        <pt x="694" y="13" on="0"/>
        <pt x="588" y="-12" on="0"/>
        <pt x="516" y="-12" on="1"/>
        <pt x="444" y="-12" on="0"/>
        <pt x="336" y="13" on="0"/>
        <pt x="260" y="50" on="0"/>
        <pt x="212" y="93" on="0"/>
        <pt x="199" y="111" on="1"/>
        <pt x="185" y="129" on="0"/>
        <pt x="156" y="186" on="0"/>
        <pt x="131" y="278" on="0"/>
        <pt x="115" y="412" on="0"/>
        <pt x="115" y="507" on="1"/>
        <pt x="115" y="607" on="0"/>
        <pt x="131" y="745" on="0"/>
        <pt x="157" y="838" on="0"/>
        <pt x="186" y="893" on="0"/>
        <pt x="200" y="911" on="1"/>
        <pt x="213" y="929" on="0"/>
        <pt x="263" y="972" on="0"/>
        <pt x="341" y="1009" on="0"/>
        <pt x="449" y="1034" on="0"/>
        <pt x="522" y="1034" on="1"/>
        <pt x="611" y="1034" on="0"/>
        <pt x="732" y="991" on="0"/>
        <pt x="812" y="933" on="0"/>
        <pt x="856" y="870" on="0"/>
        <pt x="868" y="851" on="1"/>
        <pt x="887" y="1011" on="1"/>
        <pt x="1005" y="1011" on="1"/>
        <pt x="1005" y="62" on="1"/>
        <pt x="1005" y="-23" on="0"/>
        <pt x="982" y="-147" on="0"/>
        <pt x="949" y="-233" on="0"/>
        <pt x="912" y="-286" on="0"/>
        <pt x="898" y="-300" on="1"/>
        <pt x="883" y="-314" on="0"/>
        <pt x="831" y="-350" on="0"/>
        <pt x="750" y="-381" on="0"/>
        <pt x="637" y="-402" on="0"/>
        <pt x="562" y="-402" on="1"/>
        <pt x="491" y="-402" on="0"/>
        <pt x="385" y="-385" on="0"/>
        <pt x="310" y="-362" on="0"/>
        <pt x="264" y="-339" on="0"/>
        <pt x="254" y="-332" on="1"/>
        <pt x="244" y="-326" on="0"/>
        <pt x="216" y="-299" on="0"/>
        <pt x="189" y="-256" on="0"/>
        <pt x="166" y="-193" on="0"/>
        <pt x="162" y="-150" on="1"/>
        <pt x="249" y="-103" on="1"/>
        <pt x="269" y="-147" on="0"/>
        <pt x="301" y="-198" on="0"/>
        <pt x="313" y="-212" on="1"/>
        <pt x="327" y="-229" on="0"/>
        <pt x="339" y="-235" on="1"/>
        <pt x="353" y="-247" on="0"/>
        <pt x="382" y="-257" on="1"/>
        <pt x="407" y="-265" on="0"/>
        <pt x="492" y="-279" on="0"/>
        <pt x="561" y="-279" on="1"/>
        <pt x="613" y="-279" on="0"/>
        <pt x="693" y="-265" on="0"/>
        <pt x="752" y="-244" on="0"/>
        <pt x="789" y="-219" on="0"/>
        <pt x="798" y="-207" on="1"/>
        <pt x="804" y="-199" on="0"/>
        <pt x="823" y="-170" on="0"/>
        <pt x="840" y="-111" on="0"/>
        <pt x="852" y="-17" on="0"/>
        <pt x="851" y="56" on="1"/>
      </contour>
    </TTGlyph>
    <TTGlyph name="germandbls" xMin="157" yMin="-23" xMax="1122" yMax="1472">
      <contour>
        <pt x="157" y="1105" on="1"/>
        <pt x="157" y="1160" on="0"/>
        <pt x="174" y="1247" on="0"/>
        <pt x="201" y="1315" on="0"/>
        <pt x="233" y="1364" on="0"/>
        <pt x="248" y="1381" on="1"/>
        <pt x="266" y="1402" on="0"/>
        <pt x="323" y="1436" on="0"/>
        <pt x="406" y="1459" on="0"/>
        <pt x="517" y="1472" on="0"/>
        <pt x="589" y="1472" on="1"/>
        <pt x="653" y="1472" on="0"/>
        <pt x="752" y="1463" on="0"/>
        <pt x="825" y="1448" on="0"/>
        <pt x="878" y="1425" on="0"/>
        <pt x="897" y="1412" on="1"/>
        <pt x="921" y="1395" on="0"/>
        <pt x="969" y="1343" on="0"/>
        <pt x="1007" y="1270" on="0"/>
        <pt x="1031" y="1176" on="0"/>
        <pt x="1031" y="1117" on="1"/>
        <pt x="1031" y="1065" on="0"/>
        <pt x="1009" y="967" on="0"/>
        <pt x="962" y="888" on="0"/>
        <pt x="890" y="835" on="0"/>
        <pt x="841" y="828" on="1"/>
        <pt x="857" y="824" on="0"/>
        <pt x="897" y="815" on="0"/>
        <pt x="942" y="801" on="0"/>
        <pt x="988" y="778" on="0"/>
        <pt x="1009" y="761" on="1"/>
        <pt x="1033" y="741" on="0"/>
        <pt x="1074" y="684" on="0"/>
        <pt x="1104" y="604" on="0"/>
        <pt x="1122" y="499" on="0"/>
        <pt x="1122" y="432" on="1"/>
        <pt x="1122" y="355" on="0"/>
        <pt x="1105" y="239" on="0"/>
        <pt x="1075" y="152" on="0"/>
        <pt x="1037" y="90" on="0"/>
        <pt x="1016" y="69" on="1"/>
        <pt x="971" y="27" on="0"/>
        <pt x="810" y="-23" on="0"/>
        <pt x="710" y="-23" on="1"/>
        <pt x="650" y="-23" on="0"/>
        <pt x="561" y="2" on="0"/>
        <pt x="495" y="44" on="0"/>
        <pt x="449" y="101" on="0"/>
        <pt x="431" y="134" on="1"/>
        <pt x="501" y="184" on="1"/>
        <pt x="521" y="155" on="0"/>
        <pt x="575" y="127" on="0"/>
        <pt x="632" y="116" on="0"/>
        <pt x="688" y="116" on="0"/>
        <pt x="710" y="116" on="1"/>
        <pt x="759" y="116" on="0"/>
        <pt x="831" y="128" on="0"/>
        <pt x="880" y="148" on="0"/>
        <pt x="911" y="172" on="0"/>
        <pt x="919" y="184" on="1"/>
        <pt x="932" y="201" on="0"/>
        <pt x="949" y="245" on="0"/>
        <pt x="958" y="304" on="0"/>
        <pt x="961" y="380" on="0"/>
        <pt x="961" y="429" on="1"/>
        <pt x="961" y="482" on="0"/>
        <pt x="953" y="561" on="0"/>
        <pt x="940" y="620" on="0"/>
        <pt x="920" y="661" on="0"/>
        <pt x="908" y="676" on="1"/>
        <pt x="896" y="690" on="0"/>
        <pt x="861" y="722" on="0"/>
        <pt x="813" y="748" on="0"/>
        <pt x="750" y="765" on="0"/>
        <pt x="709" y="765" on="1"/>
        <pt x="531" y="765" on="1"/>
        <pt x="531" y="881" on="1"/>
        <pt x="710" y="881" on="1"/>
        <pt x="750" y="881" on="0"/>
        <pt x="810" y="904" on="0"/>
        <pt x="851" y="959" on="0"/>
        <pt x="872" y="1048" on="0"/>
        <pt x="872" y="1114" on="1"/>
        <pt x="872" y="1186" on="0"/>
        <pt x="849" y="1275" on="0"/>
        <pt x="816" y="1301" on="1"/>
        <pt x="785" y="1325" on="0"/>
        <pt x="677" y="1343" on="0"/>
        <pt x="589" y="1343" on="1"/>
        <pt x="497" y="1343" on="0"/>
        <pt x="384" y="1320" on="0"/>
        <pt x="353" y="1283" on="1"/>
        <pt x="330" y="1254" on="0"/>
        <pt x="310" y="1160" on="0"/>
        <pt x="310" y="1087" on="1"/>
        <pt x="310" y="0" on="1"/>
        <pt x="157" y="0" on="1"/>
      </contour>
    </TTGlyph>
    <TTGlyph name="grave" xMin="122" yMin="1180" xMax="537" yMax="1590">
      <contour>
        <pt x="537" y="1212" on="1"/>
        <pt x="444" y="1180" on="1"/>
        <pt x="122" y="1516" on="1"/>
        <pt x="297" y="1590" on="1"/>
      </contour>
    </TTGlyph>
    <TTGlyph name="greater" xMin="106" yMin="59" xMax="1009" yMax="1126">
      <contour>
        <pt x="1009" y="561" on="1"/>
        <pt x="186" y="59" on="1"/>
        <pt x="106" y="154" on="1"/>
        <pt x="835" y="592" on="1"/>
        <pt x="106" y="1032" on="1"/>
        <pt x="186" y="1126" on="1"/>
        <pt x="1009" y="627" on="1"/>
      </contour>
    </TTGlyph>
    <TTGlyph name="greaterequal" xMin="125" yMin="-14" xMax="1270" yMax="1341">
      <contour>
        <pt x="1268" y="815" on="1"/>
        <pt x="1268" y="707" on="1"/>
        <pt x="139" y="182" on="1"/>
        <pt x="139" y="301" on="1"/>
        <pt x="1149" y="760" on="1"/>
        <pt x="1149" y="764" on="1"/>
        <pt x="139" y="1221" on="1"/>
        <pt x="139" y="1341" on="1"/>
      </contour>
      <contour>
        <pt x="125" y="-14" on="1"/>
        <pt x="125" y="86" on="1"/>
        <pt x="1270" y="86" on="1"/>
        <pt x="1270" y="-14" on="1"/>
      </contour>
    </TTGlyph>
    <TTGlyph name="guillemotleft" xMin="58" yMin="330" xMax="986" yMax="1112">
      <contour>
        <pt x="549" y="420" on="1"/>
        <pt x="445" y="330" on="1"/>
        <pt x="58" y="721" on="1"/>
        <pt x="445" y="1112" on="1"/>
        <pt x="549" y="1020" on="1"/>
        <pt x="226" y="721" on="1"/>
      </contour>
      <contour>
        <pt x="986" y="420" on="1"/>
        <pt x="885" y="330" on="1"/>
        <pt x="496" y="721" on="1"/>
        <pt x="885" y="1112" on="1"/>
        <pt x="986" y="1020" on="1"/>
        <pt x="664" y="721" on="1"/>
      </contour>
    </TTGlyph>
    <TTGlyph name="guillemotright" xMin="114" yMin="330" xMax="1042" yMax="1112">
      <contour>
        <pt x="551" y="420" on="1"/>
        <pt x="874" y="721" on="1"/>
        <pt x="551" y="1020" on="1"/>
        <pt x="655" y="1112" on="1"/>
        <pt x="1042" y="721" on="1"/>
        <pt x="655" y="330" on="1"/>
      </contour>
      <contour>
        <pt x="114" y="420" on="1"/>
        <pt x="436" y="721" on="1"/>
        <pt x="114" y="1020" on="1"/>
        <pt x="215" y="1112" on="1"/>
        <pt x="604" y="721" on="1"/>
        <pt x="215" y="330" on="1"/>
      </contour>
    </TTGlyph>
    <TTGlyph name="guilsinglleft" xMin="80" yMin="218" xMax="539" yMax="1106">
      <contour>
        <pt x="398" y="1106" on="1"/>
        <pt x="539" y="1038" on="1"/>
        <pt x="241" y="662" on="1"/>
        <pt x="539" y="286" on="1"/>
        <pt x="398" y="218" on="1"/>
        <pt x="80" y="609" on="1"/>
        <pt x="80" y="715" on="1"/>
      </contour>
    </TTGlyph>
    <TTGlyph name="guilsinglright" xMin="102" yMin="218" xMax="561" yMax="1106">
      <contour>
        <pt x="561" y="715" on="1"/>
        <pt x="561" y="609" on="1"/>
        <pt x="243" y="218" on="1"/>
        <pt x="102" y="286" on="1"/>
        <pt x="400" y="662" on="1"/>
        <pt x="102" y="1038" on="1"/>
        <pt x="243" y="1106" on="1"/>
      </contour>
    </TTGlyph>
    <TTGlyph name="h" xMin="157" yMin="0" xMax="1014" yMax="1441">
      <contour>
        <pt x="157" y="1441" on="1"/>
        <pt x="310" y="1441" on="1"/>
        <pt x="310" y="885" on="1"/>
        <pt x="330" y="913" on="0"/>
        <pt x="389" y="966" on="0"/>
        <pt x="472" y="1008" on="0"/>
        <pt x="581" y="1034" on="0"/>
        <pt x="652" y="1034" on="1"/>
        <pt x="719" y="1034" on="0"/>
        <pt x="819" y="1014" on="0"/>
        <pt x="888" y="986" on="0"/>
        <pt x="931" y="954" on="0"/>
        <pt x="942" y="942" on="1"/>
        <pt x="955" y="927" on="0"/>
        <pt x="981" y="882" on="0"/>
        <pt x="1001" y="799" on="0"/>
        <pt x="1014" y="668" on="0"/>
        <pt x="1014" y="568" on="1"/>
        <pt x="1014" y="0" on="1"/>
        <pt x="860" y="0" on="1"/>
        <pt x="860" y="616" on="1"/>
        <pt x="860" y="676" on="0"/>
        <pt x="851" y="754" on="0"/>
        <pt x="837" y="802" on="0"/>
        <pt x="823" y="827" on="0"/>
        <pt x="819" y="835" on="1"/>
        <pt x="812" y="847" on="0"/>
        <pt x="786" y="873" on="0"/>
        <pt x="738" y="894" on="0"/>
        <pt x="662" y="908" on="0"/>
        <pt x="604" y="908" on="1"/>
        <pt x="543" y="908" on="0"/>
        <pt x="457" y="892" on="0"/>
        <pt x="398" y="868" on="0"/>
        <pt x="364" y="838" on="0"/>
        <pt x="355" y="824" on="1"/>
        <pt x="349" y="815" on="0"/>
        <pt x="334" y="786" on="0"/>
        <pt x="320" y="733" on="0"/>
        <pt x="310" y="651" on="0"/>
        <pt x="310" y="589" on="1"/>
        <pt x="310" y="0" on="1"/>
        <pt x="157" y="0" on="1"/>
      </contour>
    </TTGlyph>
    <TTGlyph name="hungarumlaut" xMin="154" yMin="1194" xMax="848" yMax="1534">
      <contour>
        <pt x="524" y="1432" on="1"/>
        <pt x="217" y="1194" on="1"/>
        <pt x="154" y="1272" on="1"/>
        <pt x="432" y="1534" on="1"/>
      </contour>
      <contour>
        <pt x="848" y="1432" on="1"/>
        <pt x="541" y="1194" on="1"/>
        <pt x="477" y="1272" on="1"/>
        <pt x="756" y="1534" on="1"/>
      </contour>
    </TTGlyph>
    <TTGlyph name="hyphen" xMin="141" yMin="474" xMax="700" yMax="605">
      <contour>
        <pt x="141" y="605" on="1"/>
        <pt x="700" y="605" on="1"/>
        <pt x="700" y="474" on="1"/>
        <pt x="141" y="474" on="1"/>
      </contour>
    </TTGlyph>
    <TTGlyph name="i" xMin="142" yMin="0" xMax="328" yMax="1370">
      <contour>
        <pt x="158" y="0" on="1"/>
        <pt x="158" y="1011" on="1"/>
        <pt x="312" y="1011" on="1"/>
        <pt x="312" y="0" on="1"/>
      </contour>
      <contour>
        <pt x="234" y="1370" on="1"/>
        <pt x="264" y="1370" on="0"/>
        <pt x="301" y="1357" on="0"/>
        <pt x="321" y="1332" on="0"/>
        <pt x="328" y="1295" on="0"/>
        <pt x="328" y="1271" on="1"/>
        <pt x="328" y="1223" on="0"/>
        <pt x="291" y="1185" on="0"/>
        <pt x="234" y="1185" on="1"/>
        <pt x="183" y="1185" on="0"/>
        <pt x="142" y="1223" on="0"/>
        <pt x="142" y="1271" on="1"/>
        <pt x="142" y="1320" on="0"/>
        <pt x="180" y="1370" on="0"/>
      </contour>
    </TTGlyph>
    <TTGlyph name="iacute" xMin="30" yMin="0" xMax="442" yMax="1590">
      <component glyphName="dotlessi" x="0" y="0" flags="0x1204"/>
      <component glyphName="acute" x="-157" y="0" flags="0x1004"/>
    </TTGlyph>
    <TTGlyph name="icircumflex" xMin="-14" yMin="0" xMax="487" yMax="1472">
      <component glyphName="dotlessi" x="0" y="0" flags="0x1204"/>
      <component glyphName="circumflex" x="-90" y="0" flags="0x1004"/>
    </TTGlyph>
    <TTGlyph name="idieresis" xMin="-64" yMin="0" xMax="540" yMax="1247">
      <component glyphName="dotlessi" x="0" y="0" flags="0x1204"/>
      <component glyphName="dieresis" x="-108" y="-193" flags="0x1004"/>
    </TTGlyph>
    <TTGlyph name="igrave" xMin="29" yMin="0" xMax="444" yMax="1590">
      <component glyphName="dotlessi" x="0" y="0" flags="0x1204"/>
      <component glyphName="grave" x="-93" y="0" flags="0x1004"/>
    </TTGlyph>
    <TTGlyph name="infinity" xMin="136" yMin="252" xMax="1740" yMax="983">
      <contour>
        <pt x="1740" y="621" on="1"/>
        <pt x="1740" y="536" on="0"/>
        <pt x="1680" y="400" on="0"/>
        <pt x="1579" y="304" on="0"/>
        <pt x="1450" y="252" on="0"/>
        <pt x="1381" y="252" on="1"/>
        <pt x="1324" y="252" on="0"/>
        <pt x="1219" y="290" on="0"/>
        <pt x="1114" y="363" on="0"/>
        <pt x="1004" y="470" on="0"/>
        <pt x="941" y="539" on="1"/>
        <pt x="893" y="486" on="0"/>
        <pt x="795" y="383" on="0"/>
        <pt x="685" y="302" on="0"/>
        <pt x="560" y="252" on="0"/>
        <pt x="486" y="252" on="1"/>
        <pt x="415" y="252" on="0"/>
        <pt x="288" y="308" on="0"/>
        <pt x="192" y="406" on="0"/>
        <pt x="136" y="538" on="0"/>
        <pt x="136" y="614" on="1"/>
        <pt x="136" y="693" on="0"/>
        <pt x="192" y="828" on="0"/>
        <pt x="291" y="927" on="0"/>
        <pt x="426" y="983" on="0"/>
        <pt x="505" y="983" on="1"/>
        <pt x="572" y="983" on="0"/>
        <pt x="692" y="934" on="0"/>
        <pt x="801" y="853" on="0"/>
        <pt x="901" y="749" on="0"/>
        <pt x="949" y="694" on="1"/>
        <pt x="997" y="747" on="0"/>
        <pt x="1094" y="851" on="0"/>
        <pt x="1201" y="933" on="0"/>
        <pt x="1323" y="983" on="0"/>
        <pt x="1397" y="983" on="1"/>
        <pt x="1475" y="982" on="0"/>
        <pt x="1602" y="929" on="0"/>
        <pt x="1692" y="834" on="0"/>
        <pt x="1740" y="702" on="0"/>
        <pt x="1740" y="623" on="1"/>
      </contour>
      <contour>
        <pt x="505" y="352" on="1"/>
        <pt x="563" y="352" on="0"/>
        <pt x="668" y="404" on="0"/>
        <pt x="763" y="482" on="0"/>
        <pt x="846" y="572" on="0"/>
        <pt x="883" y="610" on="1"/>
        <pt x="843" y="658" on="0"/>
        <pt x="759" y="757" on="0"/>
        <pt x="663" y="837" on="0"/>
        <pt x="552" y="887" on="0"/>
        <pt x="486" y="887" on="1"/>
        <pt x="429" y="887" on="0"/>
        <pt x="339" y="841" on="0"/>
        <pt x="276" y="765" on="0"/>
        <pt x="243" y="665" on="0"/>
        <pt x="244" y="610" on="1"/>
        <pt x="244" y="557" on="0"/>
        <pt x="280" y="463" on="0"/>
        <pt x="348" y="393" on="0"/>
        <pt x="444" y="352" on="0"/>
        <pt x="503" y="352" on="1"/>
      </contour>
      <contour>
        <pt x="1385" y="887" on="1"/>
        <pt x="1343" y="887" on="0"/>
        <pt x="1266" y="859" on="0"/>
        <pt x="1196" y="814" on="0"/>
        <pt x="1131" y="757" on="0"/>
        <pt x="1074" y="698" on="0"/>
        <pt x="1023" y="642" on="0"/>
        <pt x="1002" y="621" on="1"/>
        <pt x="1063" y="555" on="0"/>
        <pt x="1164" y="455" on="0"/>
        <pt x="1255" y="387" on="0"/>
        <pt x="1341" y="352" on="0"/>
        <pt x="1389" y="352" on="1"/>
        <pt x="1447" y="352" on="0"/>
        <pt x="1538" y="398" on="0"/>
        <pt x="1601" y="473" on="0"/>
        <pt x="1633" y="566" on="0"/>
        <pt x="1633" y="614" on="1"/>
        <pt x="1633" y="678" on="0"/>
        <pt x="1595" y="780" on="0"/>
        <pt x="1529" y="850" on="0"/>
        <pt x="1439" y="887" on="0"/>
        <pt x="1387" y="887" on="1"/>
      </contour>
    </TTGlyph>
    <TTGlyph name="integral" xMin="-6" yMin="-342" xMax="783" yMax="1831">
      <contour>
        <pt x="754" y="1694" on="1"/>
        <pt x="739" y="1705" on="0"/>
        <pt x="685" y="1720" on="0"/>
        <pt x="660" y="1720" on="1"/>
        <pt x="581" y="1720" on="0"/>
        <pt x="534" y="1669" on="1"/>
        <pt x="489" y="1621" on="0"/>
        <pt x="449" y="1430" on="0"/>
        <pt x="449" y="1282" on="1"/>
        <pt x="449" y="1157" on="0"/>
        <pt x="459" y="883" on="0"/>
        <pt x="472" y="603" on="0"/>
        <pt x="482" y="326" on="0"/>
        <pt x="482" y="197" on="1"/>
        <pt x="482" y="108" on="0"/>
        <pt x="464" y="-29" on="0"/>
        <pt x="434" y="-134" on="0"/>
        <pt x="396" y="-209" on="0"/>
        <pt x="377" y="-236" on="1"/>
        <pt x="338" y="-290" on="0"/>
        <pt x="219" y="-342" on="0"/>
        <pt x="154" y="-342" on="1"/>
        <pt x="131" y="-342" on="0"/>
        <pt x="84" y="-335" on="0"/>
        <pt x="40" y="-324" on="0"/>
        <pt x="5" y="-310" on="0"/>
        <pt x="-6" y="-303" on="1"/>
        <pt x="23" y="-197" on="1"/>
        <pt x="39" y="-205" on="0"/>
        <pt x="102" y="-227" on="0"/>
        <pt x="140" y="-227" on="1"/>
        <pt x="177" y="-227" on="0"/>
        <pt x="250" y="-195" on="0"/>
        <pt x="309" y="-103" on="0"/>
        <pt x="345" y="65" on="0"/>
        <pt x="345" y="201" on="1"/>
        <pt x="345" y="331" on="0"/>
        <pt x="334" y="612" on="0"/>
        <pt x="321" y="895" on="0"/>
        <pt x="310" y="1172" on="0"/>
        <pt x="310" y="1298" on="1"/>
        <pt x="310" y="1385" on="0"/>
        <pt x="324" y="1524" on="0"/>
        <pt x="355" y="1634" on="0"/>
        <pt x="404" y="1719" on="0"/>
        <pt x="439" y="1751" on="1"/>
        <pt x="484" y="1796" on="0"/>
        <pt x="594" y="1831" on="0"/>
        <pt x="650" y="1831" on="1"/>
        <pt x="669" y="1831" on="0"/>
        <pt x="708" y="1825" on="0"/>
        <pt x="744" y="1814" on="0"/>
        <pt x="774" y="1802" on="0"/>
        <pt x="783" y="1796" on="1"/>
      </contour>
    </TTGlyph>
    <TTGlyph name="j" xMin="-254" yMin="-332" xMax="326" yMax="1370">
      <contour>
        <pt x="232" y="1370" on="1"/>
        <pt x="262" y="1370" on="0"/>
        <pt x="299" y="1357" on="0"/>
        <pt x="319" y="1332" on="0"/>
        <pt x="326" y="1295" on="0"/>
        <pt x="326" y="1271" on="1"/>
        <pt x="326" y="1223" on="0"/>
        <pt x="289" y="1185" on="0"/>
        <pt x="232" y="1185" on="1"/>
        <pt x="181" y="1185" on="0"/>
        <pt x="140" y="1223" on="0"/>
        <pt x="140" y="1271" on="1"/>
        <pt x="140" y="1320" on="0"/>
        <pt x="178" y="1370" on="0"/>
      </contour>
      <contour>
        <pt x="158" y="12" on="1"/>
        <pt x="158" y="-50" on="0"/>
        <pt x="151" y="-125" on="0"/>
        <pt x="146" y="-145" on="1"/>
        <pt x="141" y="-169" on="0"/>
        <pt x="135" y="-178" on="1"/>
        <pt x="129" y="-190" on="0"/>
        <pt x="113" y="-199" on="1"/>
        <pt x="99" y="-207" on="0"/>
        <pt x="50" y="-219" on="0"/>
        <pt x="10" y="-219" on="1"/>
        <pt x="-19" y="-219" on="0"/>
        <pt x="-61" y="-212" on="0"/>
        <pt x="-75" y="-207" on="1"/>
        <pt x="-91" y="-202" on="0"/>
        <pt x="-101" y="-195" on="1"/>
        <pt x="-108" y="-188" on="0"/>
        <pt x="-116" y="-176" on="1"/>
        <pt x="-123" y="-165" on="0"/>
        <pt x="-138" y="-132" on="0"/>
        <pt x="-145" y="-106" on="1"/>
        <pt x="-254" y="-130" on="1"/>
        <pt x="-251" y="-173" on="0"/>
        <pt x="-230" y="-231" on="0"/>
        <pt x="-219" y="-249" on="1"/>
        <pt x="-206" y="-270" on="0"/>
        <pt x="-190" y="-283" on="1"/>
        <pt x="-175" y="-297" on="0"/>
        <pt x="-148" y="-308" on="1"/>
        <pt x="-125" y="-317" on="0"/>
        <pt x="-46" y="-332" on="0"/>
        <pt x="14" y="-332" on="1"/>
        <pt x="81" y="-332" on="0"/>
        <pt x="172" y="-306" on="0"/>
        <pt x="201" y="-290" on="1"/>
        <pt x="234" y="-272" on="0"/>
        <pt x="255" y="-247" on="1"/>
        <pt x="271" y="-226" on="0"/>
        <pt x="283" y="-190" on="1"/>
        <pt x="294" y="-159" on="0"/>
        <pt x="311" y="-60" on="0"/>
        <pt x="311" y="12" on="1"/>
        <pt x="311" y="1011" on="1"/>
        <pt x="158" y="1011" on="1"/>
      </contour>
    </TTGlyph>
    <TTGlyph name="k" xMin="158" yMin="-21" xMax="950" yMax="1441">
      <contour>
        <pt x="158" y="1441" on="1"/>
        <pt x="311" y="1441" on="1"/>
        <pt x="311" y="517" on="1"/>
        <pt x="421" y="633" on="1"/>
        <pt x="771" y="1030" on="1"/>
        <pt x="904" y="973" on="1"/>
        <pt x="555" y="591" on="1"/>
        <pt x="950" y="26" on="1"/>
        <pt x="815" y="-21" on="1"/>
        <pt x="431" y="523" on="1"/>
        <pt x="311" y="405" on="1"/>
        <pt x="311" y="0" on="1"/>
        <pt x="158" y="0" on="1"/>
      </contour>
    </TTGlyph>
    <TTGlyph name="l" xMin="165" yMin="0" xMax="318" yMax="1441">
      <contour>
        <pt x="165" y="1441" on="1"/>
        <pt x="318" y="1441" on="1"/>
        <pt x="318" y="0" on="1"/>
        <pt x="165" y="0" on="1"/>
      </contour>
    </TTGlyph>
    <TTGlyph name="less" xMin="64" yMin="59" xMax="967" yMax="1126">
      <contour>
        <pt x="967" y="154" on="1"/>
        <pt x="887" y="59" on="1"/>
        <pt x="64" y="561" on="1"/>
        <pt x="64" y="627" on="1"/>
        <pt x="887" y="1126" on="1"/>
        <pt x="965" y="1032" on="1"/>
        <pt x="238" y="592" on="1"/>
      </contour>
    </TTGlyph>
    <TTGlyph name="lessequal" xMin="109" yMin="-14" xMax="1258" yMax="1341">
      <contour>
        <pt x="125" y="709" on="1"/>
        <pt x="125" y="815" on="1"/>
        <pt x="1252" y="1341" on="1"/>
        <pt x="1252" y="1221" on="1"/>
        <pt x="240" y="766" on="1"/>
        <pt x="240" y="762" on="1"/>
        <pt x="1252" y="301" on="1"/>
        <pt x="1252" y="182" on="1"/>
      </contour>
      <contour>
        <pt x="109" y="-14" on="1"/>
        <pt x="109" y="86" on="1"/>
        <pt x="1258" y="86" on="1"/>
        <pt x="1258" y="-14" on="1"/>
      </contour>
    </TTGlyph>
    <TTGlyph name="logicalnot" xMin="153" yMin="0" xMax="1229" yMax="633">
      <contour>
        <pt x="1050" y="0" on="1"/>
        <pt x="1050" y="532" on="1"/>
        <pt x="153" y="532" on="1"/>
        <pt x="153" y="633" on="1"/>
        <pt x="1229" y="633" on="1"/>
        <pt x="1229" y="0" on="1"/>
      </contour>
    </TTGlyph>
    <TTGlyph name="lozenge" xMin="60" yMin="-113" xMax="1189" yMax="1614">
      <contour>
        <pt x="560" y="-113" on="1"/>
        <pt x="60" y="750" on="1"/>
        <pt x="562" y="1614" on="1"/>
        <pt x="687" y="1614" on="1"/>
        <pt x="1189" y="750" on="1"/>
        <pt x="689" y="-113" on="1"/>
        <pt x="564" y="-113" on="1"/>
      </contour>
      <contour>
        <pt x="570" y="1391" on="1"/>
        <pt x="203" y="754" on="1"/>
        <pt x="578" y="104" on="1"/>
        <pt x="625" y="13" on="1"/>
        <pt x="671" y="104" on="1"/>
        <pt x="1046" y="754" on="1"/>
        <pt x="679" y="1391" on="1"/>
        <pt x="626" y="1491" on="1"/>
      </contour>
    </TTGlyph>
    <TTGlyph name="lslash" xMin="-3" yMin="0" xMax="624" yMax="1441">
      <contour>
        <pt x="194" y="587" on="1"/>
        <pt x="59" y="512" on="1"/>
        <pt x="-3" y="621" on="1"/>
        <pt x="194" y="731" on="1"/>
        <pt x="194" y="1441" on="1"/>
        <pt x="347" y="1441" on="1"/>
        <pt x="347" y="817" on="1"/>
        <pt x="558" y="936" on="1"/>
        <pt x="624" y="829" on="1"/>
        <pt x="347" y="673" on="1"/>
        <pt x="347" y="0" on="1"/>
        <pt x="194" y="0" on="1"/>
      </contour>
    </TTGlyph>
    <TTGlyph name="m" xMin="158" yMin="0" xMax="1581" yMax="1034">
      <contour>
        <pt x="1530" y="910" on="1"/>
        <pt x="1544" y="887" on="0"/>
        <pt x="1555" y="844" on="1"/>
        <pt x="1565" y="807" on="0"/>
        <pt x="1581" y="683" on="0"/>
        <pt x="1581" y="586" on="1"/>
        <pt x="1581" y="0" on="1"/>
        <pt x="1428" y="0" on="1"/>
        <pt x="1428" y="619" on="1"/>
        <pt x="1428" y="686" on="0"/>
        <pt x="1416" y="774" on="0"/>
        <pt x="1397" y="830" on="0"/>
        <pt x="1374" y="858" on="0"/>
        <pt x="1364" y="866" on="1"/>
        <pt x="1358" y="871" on="0"/>
        <pt x="1338" y="886" on="0"/>
        <pt x="1303" y="899" on="0"/>
        <pt x="1250" y="909" on="0"/>
        <pt x="1210" y="909" on="1"/>
        <pt x="1157" y="909" on="0"/>
        <pt x="1085" y="896" on="0"/>
        <pt x="1037" y="876" on="0"/>
        <pt x="1009" y="853" on="0"/>
        <pt x="1001" y="843" on="1"/>
        <pt x="993" y="832" on="0"/>
        <pt x="973" y="799" on="0"/>
        <pt x="957" y="740" on="0"/>
        <pt x="946" y="651" on="0"/>
        <pt x="946" y="585" on="1"/>
        <pt x="946" y="0" on="1"/>
        <pt x="792" y="0" on="1"/>
        <pt x="792" y="603" on="1"/>
        <pt x="792" y="674" on="0"/>
        <pt x="780" y="769" on="0"/>
        <pt x="762" y="828" on="0"/>
        <pt x="739" y="859" on="0"/>
        <pt x="729" y="867" on="1"/>
        <pt x="723" y="871" on="0"/>
        <pt x="703" y="886" on="0"/>
        <pt x="668" y="900" on="0"/>
        <pt x="614" y="910" on="0"/>
        <pt x="574" y="910" on="1"/>
        <pt x="525" y="910" on="0"/>
        <pt x="460" y="898" on="0"/>
        <pt x="417" y="882" on="0"/>
        <pt x="393" y="864" on="0"/>
        <pt x="385" y="858" on="1"/>
        <pt x="370" y="846" on="0"/>
        <pt x="343" y="808" on="0"/>
        <pt x="323" y="737" on="0"/>
        <pt x="311" y="625" on="0"/>
        <pt x="311" y="540" on="1"/>
        <pt x="311" y="0" on="1"/>
        <pt x="158" y="0" on="1"/>
        <pt x="158" y="1011" on="1"/>
        <pt x="285" y="1011" on="1"/>
        <pt x="296" y="864" on="1"/>
        <pt x="314" y="886" on="0"/>
        <pt x="365" y="944" on="0"/>
        <pt x="441" y="997" on="0"/>
        <pt x="546" y="1034" on="0"/>
        <pt x="618" y="1034" on="1"/>
        <pt x="680" y="1034" on="0"/>
        <pt x="771" y="1013" on="0"/>
        <pt x="834" y="981" on="0"/>
        <pt x="873" y="946" on="0"/>
        <pt x="883" y="932" on="1"/>
        <pt x="891" y="921" on="0"/>
        <pt x="911" y="885" on="0"/>
        <pt x="921" y="857" on="1"/>
        <pt x="938" y="879" on="0"/>
        <pt x="986" y="939" on="0"/>
        <pt x="1062" y="995" on="0"/>
        <pt x="1173" y="1034" on="0"/>
        <pt x="1254" y="1034" on="1"/>
        <pt x="1339" y="1034" on="0"/>
        <pt x="1446" y="995" on="0"/>
        <pt x="1477" y="972" on="1"/>
        <pt x="1513" y="945" on="0"/>
      </contour>
    </TTGlyph>
    <TTGlyph name="macron" xMin="174" yMin="1212" xMax="793" yMax="1368">
      <contour>
        <pt x="793" y="1368" on="1"/>
        <pt x="793" y="1212" on="1"/>
        <pt x="174" y="1212" on="1"/>
        <pt x="174" y="1368" on="1"/>
      </contour>
    </TTGlyph>
    <TTGlyph name="minus" xMin="153" yMin="573" xMax="906" yMax="682">
      <contour>
        <pt x="153" y="573" on="1"/>
        <pt x="153" y="682" on="1"/>
        <pt x="906" y="682" on="1"/>
        <pt x="906" y="573" on="1"/>
      </contour>
    </TTGlyph>
    <TTGlyph name="mu" xMin="170" yMin="-213" xMax="1020" yMax="1011">
      <contour>
        <pt x="170" y="1011" on="1"/>
        <pt x="324" y="1011" on="1"/>
        <pt x="324" y="403" on="1"/>
        <pt x="324" y="342" on="0"/>
        <pt x="332" y="263" on="0"/>
        <pt x="344" y="213" on="0"/>
        <pt x="357" y="187" on="0"/>
        <pt x="362" y="180" on="1"/>
        <pt x="368" y="167" on="0"/>
        <pt x="393" y="139" on="0"/>
        <pt x="440" y="117" on="0"/>
        <pt x="514" y="102" on="0"/>
        <pt x="568" y="102" on="1"/>
        <pt x="627" y="102" on="0"/>
        <pt x="709" y="116" on="0"/>
        <pt x="763" y="137" on="0"/>
        <pt x="795" y="161" on="0"/>
        <pt x="805" y="172" on="1"/>
        <pt x="815" y="182" on="0"/>
        <pt x="837" y="214" on="0"/>
        <pt x="855" y="271" on="0"/>
        <pt x="867" y="357" on="0"/>
        <pt x="867" y="422" on="1"/>
        <pt x="867" y="1011" on="1"/>
        <pt x="1020" y="1011" on="1"/>
        <pt x="1020" y="0" on="1"/>
        <pt x="892" y="0" on="1"/>
        <pt x="879" y="146" on="1"/>
        <pt x="869" y="131" on="0"/>
        <pt x="825" y="73" on="0"/>
        <pt x="743" y="16" on="0"/>
        <pt x="617" y="-26" on="0"/>
        <pt x="526" y="-26" on="1"/>
        <pt x="457" y="-26" on="0"/>
        <pt x="359" y="8" on="0"/>
        <pt x="324" y="30" on="1"/>
        <pt x="324" y="-186" on="1"/>
        <pt x="170" y="-213" on="1"/>
      </contour>
    </TTGlyph>
    <TTGlyph name="multiply" xMin="143" yMin="328" xMax="749" yMax="930">
      <contour>
        <pt x="548" y="629" on="1"/>
        <pt x="749" y="428" on="1"/>
        <pt x="646" y="328" on="1"/>
        <pt x="446" y="528" on="1"/>
        <pt x="245" y="328" on="1"/>
        <pt x="143" y="428" on="1"/>
        <pt x="343" y="629" on="1"/>
        <pt x="143" y="829" on="1"/>
        <pt x="245" y="930" on="1"/>
        <pt x="446" y="729" on="1"/>
        <pt x="646" y="930" on="1"/>
        <pt x="749" y="829" on="1"/>
      </contour>
    </TTGlyph>
    <TTGlyph name="n" xMin="158" yMin="0" xMax="1011" yMax="1034">
      <contour>
        <pt x="952" y="908" on="1"/>
        <pt x="968" y="883" on="0"/>
        <pt x="981" y="840" on="1"/>
        <pt x="992" y="803" on="0"/>
        <pt x="1011" y="680" on="0"/>
        <pt x="1011" y="587" on="1"/>
        <pt x="1011" y="0" on="1"/>
        <pt x="857" y="0" on="1"/>
        <pt x="857" y="617" on="1"/>
        <pt x="857" y="677" on="0"/>
        <pt x="847" y="754" on="0"/>
        <pt x="834" y="802" on="0"/>
        <pt x="819" y="827" on="0"/>
        <pt x="815" y="834" on="1"/>
        <pt x="807" y="846" on="0"/>
        <pt x="781" y="873" on="0"/>
        <pt x="733" y="894" on="0"/>
        <pt x="661" y="908" on="0"/>
        <pt x="607" y="908" on="1"/>
        <pt x="544" y="908" on="0"/>
        <pt x="457" y="892" on="0"/>
        <pt x="398" y="867" on="0"/>
        <pt x="365" y="837" on="0"/>
        <pt x="356" y="823" on="1"/>
        <pt x="347" y="809" on="0"/>
        <pt x="331" y="768" on="0"/>
        <pt x="319" y="703" on="0"/>
        <pt x="312" y="611" on="0"/>
        <pt x="312" y="545" on="1"/>
        <pt x="312" y="0" on="1"/>
        <pt x="158" y="0" on="1"/>
        <pt x="158" y="1011" on="1"/>
        <pt x="285" y="1011" on="1"/>
        <pt x="297" y="863" on="1"/>
        <pt x="315" y="889" on="0"/>
        <pt x="373" y="949" on="0"/>
        <pt x="459" y="1000" on="0"/>
        <pt x="577" y="1034" on="0"/>
        <pt x="656" y="1034" on="1"/>
        <pt x="745" y="1034" on="0"/>
        <pt x="860" y="994" on="0"/>
        <pt x="893" y="971" on="1"/>
        <pt x="932" y="943" on="0"/>
      </contour>
    </TTGlyph>
    <TTGlyph name="nine" xMin="105" yMin="-32" xMax="1015" yMax="1354">
      <contour>
        <pt x="172" y="96" on="1"/>
        <pt x="242" y="208" on="1"/>
        <pt x="274" y="180" on="0"/>
        <pt x="315" y="158" on="1"/>
        <pt x="350" y="139" on="0"/>
        <pt x="453" y="108" on="0"/>
        <pt x="519" y="108" on="1"/>
        <pt x="579" y="108" on="0"/>
        <pt x="666" y="137" on="0"/>
        <pt x="695" y="154" on="1"/>
        <pt x="729" y="174" on="0"/>
        <pt x="753" y="200" on="1"/>
        <pt x="778" y="230" on="0"/>
        <pt x="798" y="285" on="1"/>
        <pt x="815" y="332" on="0"/>
        <pt x="844" y="484" on="0"/>
        <pt x="844" y="601" on="1"/>
        <pt x="777" y="525" on="0"/>
        <pt x="602" y="453" on="0"/>
        <pt x="511" y="453" on="1"/>
        <pt x="448" y="453" on="0"/>
        <pt x="355" y="474" on="0"/>
        <pt x="324" y="487" on="1"/>
        <pt x="288" y="502" on="0"/>
        <pt x="262" y="522" on="1"/>
        <pt x="217" y="555" on="0"/>
        <pt x="183" y="608" on="1"/>
        <pt x="168" y="630" on="0"/>
        <pt x="140" y="688" on="0"/>
        <pt x="118" y="759" on="0"/>
        <pt x="105" y="844" on="0"/>
        <pt x="105" y="894" on="1"/>
        <pt x="105" y="979" on="0"/>
        <pt x="139" y="1101" on="0"/>
        <pt x="159" y="1143" on="1"/>
        <pt x="183" y="1191" on="0"/>
        <pt x="214" y="1225" on="1"/>
        <pt x="247" y="1261" on="0"/>
        <pt x="296" y="1289" on="1"/>
        <pt x="338" y="1313" on="0"/>
        <pt x="466" y="1354" on="0"/>
        <pt x="554" y="1354" on="1"/>
        <pt x="630" y="1354" on="0"/>
        <pt x="742" y="1324" on="0"/>
        <pt x="780" y="1307" on="1"/>
        <pt x="824" y="1287" on="0"/>
        <pt x="854" y="1261" on="1"/>
        <pt x="899" y="1226" on="0"/>
        <pt x="934" y="1156" on="1"/>
        <pt x="949" y="1126" on="0"/>
        <pt x="978" y="1045" on="0"/>
        <pt x="1001" y="938" on="0"/>
        <pt x="1015" y="805" on="0"/>
        <pt x="1015" y="723" on="1"/>
        <pt x="1015" y="628" on="0"/>
        <pt x="1002" y="473" on="0"/>
        <pt x="980" y="349" on="0"/>
        <pt x="952" y="254" on="0"/>
        <pt x="937" y="218" on="1"/>
        <pt x="903" y="134" on="0"/>
        <pt x="860" y="92" on="1"/>
        <pt x="821" y="57" on="0"/>
        <pt x="771" y="30" on="1"/>
        <pt x="727" y="7" on="0"/>
        <pt x="604" y="-32" on="0"/>
        <pt x="525" y="-32" on="1"/>
        <pt x="461" y="-32" on="0"/>
        <pt x="356" y="-6" on="0"/>
        <pt x="271" y="33" on="0"/>
        <pt x="201" y="78" on="0"/>
      </contour>
      <contour>
        <pt x="552" y="1223" on="1"/>
        <pt x="486" y="1223" on="0"/>
        <pt x="397" y="1190" on="0"/>
        <pt x="370" y="1170" on="1"/>
        <pt x="338" y="1147" on="0"/>
        <pt x="320" y="1118" on="1"/>
        <pt x="305" y="1102" on="0"/>
        <pt x="294" y="1072" on="1"/>
        <pt x="284" y="1046" on="0"/>
        <pt x="269" y="961" on="0"/>
        <pt x="269" y="895" on="1"/>
        <pt x="269" y="825" on="0"/>
        <pt x="292" y="731" on="0"/>
        <pt x="306" y="702" on="1"/>
        <pt x="323" y="668" on="0"/>
        <pt x="344" y="648" on="1"/>
        <pt x="364" y="630" on="0"/>
        <pt x="391" y="616" on="1"/>
        <pt x="414" y="604" on="0"/>
        <pt x="484" y="584" on="0"/>
        <pt x="532" y="584" on="1"/>
        <pt x="583" y="584" on="0"/>
        <pt x="679" y="616" on="0"/>
        <pt x="761" y="675" on="0"/>
        <pt x="825" y="759" on="0"/>
        <pt x="843" y="811" on="1"/>
        <pt x="843" y="921" on="0"/>
        <pt x="816" y="1058" on="0"/>
        <pt x="799" y="1096" on="1"/>
        <pt x="780" y="1141" on="0"/>
        <pt x="756" y="1161" on="1"/>
        <pt x="737" y="1178" on="0"/>
        <pt x="708" y="1192" on="1"/>
        <pt x="683" y="1203" on="0"/>
        <pt x="606" y="1223" on="0"/>
      </contour>
    </TTGlyph>
    <TTGlyph name="notequal" xMin="141" yMin="41" xMax="1292" yMax="1176">
      <contour>
        <pt x="886" y="891" on="1"/>
        <pt x="1292" y="891" on="1"/>
        <pt x="1292" y="791" on="1"/>
        <pt x="843" y="791" on="1"/>
        <pt x="671" y="434" on="1"/>
        <pt x="1292" y="434" on="1"/>
        <pt x="1292" y="332" on="1"/>
        <pt x="626" y="332" on="1"/>
        <pt x="487" y="41" on="1"/>
        <pt x="405" y="82" on="1"/>
        <pt x="524" y="332" on="1"/>
        <pt x="141" y="332" on="1"/>
        <pt x="141" y="434" on="1"/>
        <pt x="571" y="434" on="1"/>
        <pt x="739" y="791" on="1"/>
        <pt x="141" y="791" on="1"/>
        <pt x="141" y="891" on="1"/>
        <pt x="784" y="891" on="1"/>
        <pt x="919" y="1176" on="1"/>
        <pt x="1003" y="1135" on="1"/>
      </contour>
    </TTGlyph>
    <TTGlyph name="ntilde" xMin="158" yMin="0" xMax="1011" yMax="1441">
      <component glyphName="n" x="0" y="0" flags="0x1204"/>
      <component glyphName="tilde" x="140" y="0" flags="0x1004"/>
    </TTGlyph>
    <TTGlyph name="numbersign" xMin="130" yMin="287" xMax="824" yMax="1411">
      <contour>
        <pt x="154" y="1127" on="1"/>
        <pt x="330" y="1127" on="1"/>
        <pt x="382" y="1411" on="1"/>
        <pt x="520" y="1411" on="1"/>
        <pt x="468" y="1127" on="1"/>
        <pt x="586" y="1127" on="1"/>
        <pt x="638" y="1411" on="1"/>
        <pt x="777" y="1411" on="1"/>
        <pt x="725" y="1127" on="1"/>
        <pt x="824" y="1127" on="1"/>
        <pt x="824" y="996" on="1"/>
        <pt x="703" y="996" on="1"/>
        <pt x="653" y="698" on="1"/>
        <pt x="807" y="698" on="1"/>
        <pt x="807" y="566" on="1"/>
        <pt x="632" y="566" on="1"/>
        <pt x="582" y="287" on="1"/>
        <pt x="443" y="287" on="1"/>
        <pt x="495" y="566" on="1"/>
        <pt x="375" y="566" on="1"/>
        <pt x="325" y="287" on="1"/>
        <pt x="185" y="287" on="1"/>
        <pt x="236" y="566" on="1"/>
        <pt x="130" y="566" on="1"/>
        <pt x="137" y="698" on="1"/>
        <pt x="258" y="698" on="1"/>
        <pt x="307" y="996" on="1"/>
        <pt x="148" y="996" on="1"/>
      </contour>
      <contour>
        <pt x="436" y="996" on="1"/>
        <pt x="381" y="698" on="1"/>
        <pt x="526" y="698" on="1"/>
        <pt x="581" y="996" on="1"/>
      </contour>
    </TTGlyph>
    <TTGlyph name="o" xMin="109" yMin="-23" xMax="1043" yMax="1034">
      <contour>
        <pt x="574" y="909" on="1"/>
        <pt x="514" y="909" on="0"/>
        <pt x="429" y="895" on="0"/>
        <pt x="371" y="872" on="0"/>
        <pt x="335" y="845" on="0"/>
        <pt x="325" y="832" on="1"/>
        <pt x="315" y="819" on="0"/>
        <pt x="294" y="777" on="0"/>
        <pt x="277" y="702" on="0"/>
        <pt x="266" y="587" on="0"/>
        <pt x="266" y="502" on="1"/>
        <pt x="266" y="419" on="0"/>
        <pt x="277" y="307" on="0"/>
        <pt x="295" y="233" on="0"/>
        <pt x="316" y="190" on="0"/>
        <pt x="326" y="178" on="1"/>
        <pt x="336" y="166" on="0"/>
        <pt x="373" y="139" on="0"/>
        <pt x="433" y="116" on="0"/>
        <pt x="520" y="102" on="0"/>
        <pt x="580" y="102" on="1"/>
        <pt x="639" y="102" on="0"/>
        <pt x="724" y="117" on="0"/>
        <pt x="782" y="139" on="0"/>
        <pt x="817" y="167" on="0"/>
        <pt x="827" y="180" on="1"/>
        <pt x="837" y="193" on="0"/>
        <pt x="858" y="235" on="0"/>
        <pt x="875" y="309" on="0"/>
        <pt x="886" y="421" on="0"/>
        <pt x="886" y="504" on="1"/>
        <pt x="886" y="591" on="0"/>
        <pt x="874" y="707" on="0"/>
        <pt x="855" y="782" on="0"/>
        <pt x="833" y="824" on="0"/>
        <pt x="823" y="836" on="1"/>
        <pt x="812" y="848" on="0"/>
        <pt x="776" y="874" on="0"/>
        <pt x="717" y="895" on="0"/>
        <pt x="632" y="909" on="0"/>
      </contour>
      <contour>
        <pt x="574" y="1034" on="1"/>
        <pt x="652" y="1034" on="0"/>
        <pt x="773" y="1009" on="0"/>
        <pt x="862" y="972" on="0"/>
        <pt x="921" y="930" on="0"/>
        <pt x="937" y="913" on="1"/>
        <pt x="953" y="895" on="0"/>
        <pt x="990" y="836" on="0"/>
        <pt x="1022" y="742" on="0"/>
        <pt x="1043" y="605" on="0"/>
        <pt x="1043" y="509" on="1"/>
        <pt x="1043" y="413" on="0"/>
        <pt x="1022" y="273" on="0"/>
        <pt x="990" y="176" on="0"/>
        <pt x="953" y="115" on="0"/>
        <pt x="937" y="97" on="1"/>
        <pt x="921" y="79" on="0"/>
        <pt x="863" y="37" on="0"/>
        <pt x="774" y="1" on="0"/>
        <pt x="653" y="-23" on="0"/>
        <pt x="574" y="-23" on="1"/>
        <pt x="496" y="-23" on="0"/>
        <pt x="376" y="1" on="0"/>
        <pt x="288" y="38" on="0"/>
        <pt x="231" y="80" on="0"/>
        <pt x="215" y="98" on="1"/>
        <pt x="199" y="116" on="0"/>
        <pt x="162" y="177" on="0"/>
        <pt x="130" y="273" on="0"/>
        <pt x="109" y="411" on="0"/>
        <pt x="109" y="506" on="1"/>
        <pt x="109" y="602" on="0"/>
        <pt x="130" y="739" on="0"/>
        <pt x="161" y="835" on="0"/>
        <pt x="198" y="894" on="0"/>
        <pt x="214" y="912" on="1"/>
        <pt x="230" y="930" on="0"/>
        <pt x="288" y="972" on="0"/>
        <pt x="377" y="1009" on="0"/>
        <pt x="496" y="1034" on="0"/>
      </contour>
    </TTGlyph>
    <TTGlyph name="oacute" xMin="109" yMin="-23" xMax="1043" yMax="1590">
      <component glyphName="o" x="0" y="0" flags="0x1204"/>
      <component glyphName="acute" x="183" y="0" flags="0x1004"/>
    </TTGlyph>
    <TTGlyph name="ocircumflex" xMin="109" yMin="-23" xMax="1043" yMax="1472">
      <component glyphName="o" x="0" y="0" flags="0x1204"/>
      <component glyphName="circumflex" x="249" y="0" flags="0x1004"/>
    </TTGlyph>
    <TTGlyph name="odieresis" xMin="109" yMin="-23" xMax="1043" yMax="1440">
      <component glyphName="o" x="0" y="0" flags="0x1204"/>
      <component glyphName="dieresis" x="230" y="0" flags="0x1004"/>
    </TTGlyph>
    <TTGlyph name="oe" xMin="109" yMin="-31" xMax="1734" yMax="1040">
      <contour>
        <pt x="1502" y="595" on="1"/>
        <pt x="1578" y="589" on="1"/>
        <pt x="1575" y="651" on="0"/>
        <pt x="1563" y="740" on="0"/>
        <pt x="1546" y="802" on="0"/>
        <pt x="1528" y="839" on="0"/>
        <pt x="1520" y="849" on="1"/>
        <pt x="1511" y="859" on="0"/>
        <pt x="1480" y="882" on="0"/>
        <pt x="1429" y="902" on="0"/>
        <pt x="1356" y="916" on="0"/>
        <pt x="1307" y="916" on="1"/>
        <pt x="1264" y="916" on="0"/>
        <pt x="1198" y="906" on="0"/>
        <pt x="1149" y="890" on="0"/>
        <pt x="1116" y="871" on="0"/>
        <pt x="1106" y="863" on="1"/>
        <pt x="1096" y="855" on="0"/>
        <pt x="1072" y="819" on="0"/>
        <pt x="1050" y="756" on="0"/>
        <pt x="1034" y="662" on="0"/>
        <pt x="1033" y="595" on="1"/>
      </contour>
      <contour>
        <pt x="571" y="910" on="1"/>
        <pt x="512" y="910" on="0"/>
        <pt x="429" y="895" on="0"/>
        <pt x="374" y="873" on="0"/>
        <pt x="341" y="845" on="0"/>
        <pt x="332" y="832" on="1"/>
        <pt x="322" y="818" on="0"/>
        <pt x="300" y="776" on="0"/>
        <pt x="282" y="702" on="0"/>
        <pt x="270" y="589" on="0"/>
        <pt x="270" y="505" on="1"/>
        <pt x="270" y="421" on="0"/>
        <pt x="282" y="308" on="0"/>
        <pt x="300" y="234" on="0"/>
        <pt x="322" y="191" on="0"/>
        <pt x="332" y="178" on="1"/>
        <pt x="342" y="165" on="0"/>
        <pt x="375" y="138" on="0"/>
        <pt x="430" y="115" on="0"/>
        <pt x="512" y="101" on="0"/>
        <pt x="571" y="101" on="1"/>
        <pt x="629" y="101" on="0"/>
        <pt x="711" y="116" on="0"/>
        <pt x="767" y="138" on="0"/>
        <pt x="801" y="166" on="0"/>
        <pt x="810" y="179" on="1"/>
        <pt x="819" y="191" on="0"/>
        <pt x="839" y="233" on="0"/>
        <pt x="856" y="305" on="0"/>
        <pt x="867" y="414" on="0"/>
        <pt x="867" y="495" on="1"/>
        <pt x="867" y="583" on="0"/>
        <pt x="856" y="701" on="0"/>
        <pt x="839" y="777" on="0"/>
        <pt x="818" y="820" on="0"/>
        <pt x="809" y="833" on="1"/>
        <pt x="800" y="846" on="0"/>
        <pt x="766" y="873" on="0"/>
        <pt x="710" y="895" on="0"/>
        <pt x="628" y="910" on="0"/>
      </contour>
      <contour>
        <pt x="1722" y="274" on="1"/>
        <pt x="1715" y="227" on="0"/>
        <pt x="1694" y="157" on="0"/>
        <pt x="1671" y="108" on="0"/>
        <pt x="1647" y="76" on="0"/>
        <pt x="1637" y="67" on="1"/>
        <pt x="1623" y="55" on="0"/>
        <pt x="1575" y="21" on="0"/>
        <pt x="1497" y="-9" on="0"/>
        <pt x="1386" y="-31" on="0"/>
        <pt x="1311" y="-31" on="1"/>
        <pt x="1233" y="-31" on="0"/>
        <pt x="1123" y="-7" on="0"/>
        <pt x="1048" y="26" on="0"/>
        <pt x="1004" y="63" on="0"/>
        <pt x="992" y="76" on="1"/>
        <pt x="981" y="87" on="0"/>
        <pt x="962" y="113" on="0"/>
        <pt x="951" y="128" on="1"/>
        <pt x="941" y="113" on="0"/>
        <pt x="919" y="88" on="0"/>
        <pt x="908" y="77" on="1"/>
        <pt x="894" y="64" on="0"/>
        <pt x="843" y="27" on="0"/>
        <pt x="762" y="-7" on="0"/>
        <pt x="649" y="-31" on="0"/>
        <pt x="574" y="-31" on="1"/>
        <pt x="497" y="-31" on="0"/>
        <pt x="378" y="-6" on="0"/>
        <pt x="289" y="32" on="0"/>
        <pt x="231" y="74" on="0"/>
        <pt x="215" y="92" on="1"/>
        <pt x="199" y="110" on="0"/>
        <pt x="162" y="169" on="0"/>
        <pt x="130" y="265" on="0"/>
        <pt x="109" y="403" on="0"/>
        <pt x="109" y="499" on="1"/>
        <pt x="109" y="596" on="0"/>
        <pt x="130" y="736" on="0"/>
        <pt x="161" y="835" on="0"/>
        <pt x="197" y="897" on="0"/>
        <pt x="213" y="916" on="1"/>
        <pt x="228" y="934" on="0"/>
        <pt x="286" y="977" on="0"/>
        <pt x="373" y="1015" on="0"/>
        <pt x="492" y="1040" on="0"/>
        <pt x="569" y="1040" on="1"/>
        <pt x="648" y="1040" on="0"/>
        <pt x="766" y="1016" on="0"/>
        <pt x="850" y="982" on="0"/>
        <pt x="901" y="945" on="0"/>
        <pt x="914" y="933" on="1"/>
        <pt x="935" y="912" on="0"/>
        <pt x="953" y="885" on="1"/>
        <pt x="967" y="907" on="0"/>
        <pt x="996" y="938" on="0"/>
        <pt x="1009" y="949" on="1"/>
        <pt x="1023" y="961" on="0"/>
        <pt x="1070" y="993" on="0"/>
        <pt x="1143" y="1021" on="0"/>
        <pt x="1244" y="1040" on="0"/>
        <pt x="1313" y="1040" on="1"/>
        <pt x="1388" y="1040" on="0"/>
        <pt x="1493" y="1018" on="0"/>
        <pt x="1566" y="988" on="0"/>
        <pt x="1610" y="955" on="0"/>
        <pt x="1623" y="943" on="1"/>
        <pt x="1641" y="927" on="0"/>
        <pt x="1681" y="869" on="0"/>
        <pt x="1713" y="783" on="0"/>
        <pt x="1734" y="668" on="0"/>
        <pt x="1734" y="594" on="1"/>
        <pt x="1734" y="589" on="0"/>
        <pt x="1734" y="557" on="0"/>
        <pt x="1733" y="521" on="0"/>
        <pt x="1732" y="487" on="0"/>
        <pt x="1731" y="480" on="1"/>
        <pt x="1029" y="480" on="1"/>
        <pt x="1030" y="401" on="0"/>
        <pt x="1045" y="288" on="0"/>
        <pt x="1067" y="211" on="0"/>
        <pt x="1093" y="167" on="0"/>
        <pt x="1104" y="157" on="1"/>
        <pt x="1127" y="137" on="0"/>
        <pt x="1232" y="100" on="0"/>
        <pt x="1319" y="100" on="1"/>
        <pt x="1365" y="100" on="0"/>
        <pt x="1433" y="109" on="0"/>
        <pt x="1479" y="121" on="0"/>
        <pt x="1508" y="134" on="0"/>
        <pt x="1516" y="138" on="1"/>
        <pt x="1528" y="144" on="0"/>
        <pt x="1551" y="169" on="0"/>
        <pt x="1571" y="212" on="0"/>
        <pt x="1590" y="275" on="0"/>
        <pt x="1598" y="320" on="1"/>
      </contour>
    </TTGlyph>
</ttFont>
